<?xml version="1.0" encoding="UTF-8" standalone="no"?>
<!DOCTYPE svg PUBLIC "-//W3C//DTD SVG 1.1//EN"
 "http://www.w3.org/Graphics/SVG/1.1/DTD/svg11.dtd">
<!-- Generated by graphviz version 5.0.0 (20220707.1540)
 -->
<!-- Title: UmlClassDiagram Pages: 1 -->
<svg width="1259pt" height="704pt"
 viewBox="0.00 0.00 1259.44 704.00" xmlns="http://www.w3.org/2000/svg" xmlns:xlink="http://www.w3.org/1999/xlink">
<g id="graph0" class="graph" transform="scale(1 1) rotate(0) translate(4 700)">
<title>UmlClassDiagram</title>
<polygon fill="white" stroke="transparent" points="-4,4 -4,-700 1255.44,-700 1255.44,4 -4,4"/>
<!-- 0 -->
<g id="node1" class="node">
<title>0</title>
<polygon fill="#f2f2f2" stroke="black" points="392.41,-349.7 392.41,-541.7 886.66,-541.7 886.66,-349.7 392.41,-349.7"/>
<text text-anchor="middle" x="639.53" y="-525.1" font-family="Times,serif" font-size="14.00">&lt;&lt;Abstract&gt;&gt;</text>
<text text-anchor="middle" x="639.53" y="-508.3" font-family="Times,serif" font-size="14.00">AbstractHandler</text>
<text text-anchor="middle" x="639.53" y="-491.5" font-family="Times,serif" font-size="14.00">contractsfactory&#45;patternschainofresponsibilityAbstractHandler.sol</text>
<polyline fill="none" stroke="black" points="392.41,-483.3 886.66,-483.3 "/>
<text text-anchor="start" x="400.41" y="-466.7" font-family="Times,serif" font-size="14.00">Private:</text>
<text text-anchor="start" x="400.41" y="-449.9" font-family="Times,serif" font-size="14.00"> &#160;&#160;nextHandler: ChainOfResponsibilityHandler</text>
<polyline fill="none" stroke="black" points="392.41,-441.7 886.66,-441.7 "/>
<text text-anchor="start" x="400.41" y="-425.1" font-family="Times,serif" font-size="14.00">External:</text>
<text text-anchor="start" x="400.41" y="-408.3" font-family="Times,serif" font-size="14.00"> &#160;&#160;&#160;setNext(_handler: ChainOfResponsibilityHandler): ChainOfResponsibilityHandler</text>
<text text-anchor="start" x="400.41" y="-391.5" font-family="Times,serif" font-size="14.00"> &#160;&#160;&#160;supportsInterface(interfaceID: bytes4): bool</text>
<text text-anchor="start" x="400.41" y="-374.7" font-family="Times,serif" font-size="14.00">Public:</text>
<text text-anchor="start" x="400.41" y="-357.9" font-family="Times,serif" font-size="14.00"> &#160;&#160;&#160;handle(_request: bytes): string</text>
</g>
<!-- 1 -->
<g id="node2" class="node">
<title>1</title>
<polygon fill="#f2f2f2" stroke="black" points="390.66,-578.7 390.66,-695.5 888.41,-695.5 888.41,-578.7 390.66,-578.7"/>
<text text-anchor="middle" x="639.53" y="-678.9" font-family="Times,serif" font-size="14.00">&lt;&lt;Interface&gt;&gt;</text>
<text text-anchor="middle" x="639.53" y="-662.1" font-family="Times,serif" font-size="14.00">ChainOfResponsibilityHandler</text>
<text text-anchor="middle" x="639.53" y="-645.3" font-family="Times,serif" font-size="14.00">contractsfactory&#45;patternschainofresponsibilityChainOfResponsibilityHandler.sol</text>
<polyline fill="none" stroke="black" points="390.66,-637.1 888.41,-637.1 "/>
<text text-anchor="start" x="398.66" y="-620.5" font-family="Times,serif" font-size="14.00">External:</text>
<text text-anchor="start" x="398.66" y="-603.7" font-family="Times,serif" font-size="14.00"> &#160;&#160;&#160;&#160;setNext(_handler: ChainOfResponsibilityHandler): ChainOfResponsibilityHandler</text>
<text text-anchor="start" x="398.66" y="-586.9" font-family="Times,serif" font-size="14.00"> &#160;&#160;&#160;&#160;handle(_request: bytes): string</text>
</g>
<!-- 0&#45;&gt;1 -->
<g id="edge1" class="edge">
<title>0&#45;&gt;1</title>
<path fill="none" stroke="black" stroke-dasharray="5,2" d="M639.53,-541.95C639.53,-544.11 639.53,-546.26 639.53,-548.41"/>
<polygon fill="none" stroke="black" points="629.03,-548.62 639.53,-578.62 650.03,-548.62 629.03,-548.62"/>
</g>
<!-- 1&#45;&gt;1 -->
<g id="edge2" class="edge">
<title>1&#45;&gt;1</title>
<path fill="none" stroke="black" stroke-dasharray="5,2" d="M888.72,-615.05C899.89,-620.66 906.41,-628.01 906.41,-637.1 906.41,-643.49 903.18,-649.02 897.39,-653.7"/>
<polygon fill="black" stroke="black" points="895.32,-650.86 888.72,-659.15 899.05,-656.79 895.32,-650.86"/>
</g>
<!-- 2 -->
<g id="node3" class="node">
<title>2</title>
<polygon fill="#f2f2f2" stroke="black" points="27.63,-212.7 27.63,-312.7 423.44,-312.7 423.44,-212.7 27.63,-212.7"/>
<text text-anchor="middle" x="225.53" y="-296.1" font-family="Times,serif" font-size="14.00">ConcreteHandler1</text>
<text text-anchor="middle" x="225.53" y="-279.3" font-family="Times,serif" font-size="14.00">contractsfactory&#45;patternschainofresponsibilityConcreteHandler1.sol</text>
<polyline fill="none" stroke="black" points="27.63,-271.1 423.44,-271.1 "/>
<text text-anchor="start" x="35.63" y="-254.5" font-family="Times,serif" font-size="14.00">Public:</text>
<text text-anchor="start" x="35.63" y="-237.7" font-family="Times,serif" font-size="14.00"> &#160;&#160;&#160;&lt;&lt;event&gt;&gt; Logging(description: string, handlerAddress: bytes)</text>
<text text-anchor="start" x="35.63" y="-220.9" font-family="Times,serif" font-size="14.00"> &#160;&#160;&#160;handle(_request: bytes): string</text>
</g>
<!-- 2&#45;&gt;0 -->
<g id="edge3" class="edge">
<title>2&#45;&gt;0</title>
<path fill="none" stroke="black" d="M337.84,-312.8C355.66,-320.59 374.68,-328.91 394.16,-337.42"/>
<polygon fill="none" stroke="black" points="390.25,-347.18 421.95,-349.57 398.67,-327.93 390.25,-347.18"/>
</g>
<!-- 3 -->
<g id="node4" class="node">
<title>3</title>
<polygon fill="#f2f2f2" stroke="black" points="441.63,-212.7 441.63,-312.7 837.44,-312.7 837.44,-212.7 441.63,-212.7"/>
<text text-anchor="middle" x="639.53" y="-296.1" font-family="Times,serif" font-size="14.00">ConcreteHandler2</text>
<text text-anchor="middle" x="639.53" y="-279.3" font-family="Times,serif" font-size="14.00">contractsfactory&#45;patternschainofresponsibilityConcreteHandler2.sol</text>
<polyline fill="none" stroke="black" points="441.63,-271.1 837.44,-271.1 "/>
<text text-anchor="start" x="449.63" y="-254.5" font-family="Times,serif" font-size="14.00">Public:</text>
<text text-anchor="start" x="449.63" y="-237.7" font-family="Times,serif" font-size="14.00"> &#160;&#160;&#160;&lt;&lt;event&gt;&gt; Logging(description: string, handlerAddress: bytes)</text>
<text text-anchor="start" x="449.63" y="-220.9" font-family="Times,serif" font-size="14.00"> &#160;&#160;&#160;handle(_request: bytes): string</text>
</g>
<!-- 3&#45;&gt;0 -->
<g id="edge4" class="edge">
<title>3&#45;&gt;0</title>
<path fill="none" stroke="black" d="M639.53,-313.16C639.53,-315.19 639.53,-317.26 639.53,-319.35"/>
<polygon fill="none" stroke="black" points="629.03,-319.36 639.53,-349.36 650.03,-319.36 629.03,-319.36"/>
</g>
<!-- 4 -->
<g id="node5" class="node">
<title>4</title>
<polygon fill="#f2f2f2" stroke="black" points="855.63,-212.7 855.63,-312.7 1251.44,-312.7 1251.44,-212.7 855.63,-212.7"/>
<text text-anchor="middle" x="1053.53" y="-296.1" font-family="Times,serif" font-size="14.00">ConcreteHandler3</text>
<text text-anchor="middle" x="1053.53" y="-279.3" font-family="Times,serif" font-size="14.00">contractsfactory&#45;patternschainofresponsibilityConcreteHandler3.sol</text>
<polyline fill="none" stroke="black" points="855.63,-271.1 1251.44,-271.1 "/>
<text text-anchor="start" x="863.63" y="-254.5" font-family="Times,serif" font-size="14.00">Public:</text>
<text text-anchor="start" x="863.63" y="-237.7" font-family="Times,serif" font-size="14.00"> &#160;&#160;&#160;&lt;&lt;event&gt;&gt; Logging(description: string, handlerAddress: bytes)</text>
<text text-anchor="start" x="863.63" y="-220.9" font-family="Times,serif" font-size="14.00"> &#160;&#160;&#160;handle(_request: bytes): string</text>
</g>
<!-- 4&#45;&gt;0 -->
<g id="edge5" class="edge">
<title>4&#45;&gt;0</title>
<path fill="none" stroke="black" d="M941.22,-312.8C923.4,-320.59 904.39,-328.91 884.9,-337.42"/>
<polygon fill="none" stroke="black" points="880.4,-327.93 857.12,-349.57 888.81,-347.18 880.4,-327.93"/>
</g>
<!-- 5 -->
<g id="node6" class="node">
<title>5</title>
<polygon fill="#f2f2f2" stroke="black" points="174.72,-0.5 174.72,-175.7 690.35,-175.7 690.35,-0.5 174.72,-0.5"/>
<text text-anchor="middle" x="432.53" y="-159.1" font-family="Times,serif" font-size="14.00">RoleAssignmentChainOfResponsibility</text>
<text text-anchor="middle" x="432.53" y="-142.3" font-family="Times,serif" font-size="14.00">contractsfactory&#45;patternschainofresponsibilityRoleAssignmentChainOfResponsibility.sol</text>
<polyline fill="none" stroke="black" points="174.72,-134.1 690.35,-134.1 "/>
<text text-anchor="start" x="182.72" y="-117.5" font-family="Times,serif" font-size="14.00">Public:</text>
<text text-anchor="start" x="182.72" y="-100.7" font-family="Times,serif" font-size="14.00"> &#160;&#160;isChainResponsibilitySuitable: bool</text>
<text text-anchor="start" x="182.72" y="-83.9" font-family="Times,serif" font-size="14.00"> &#160;&#160;handler: ChainOfResponsibilityHandler</text>
<polyline fill="none" stroke="black" points="174.72,-75.7 690.35,-75.7 "/>
<text text-anchor="start" x="182.72" y="-59.1" font-family="Times,serif" font-size="14.00">Public:</text>
<text text-anchor="start" x="182.72" y="-42.3" font-family="Times,serif" font-size="14.00"> &#160;&#160;&#160;&lt;&lt;event&gt;&gt; Logging(description: string)</text>
<text text-anchor="start" x="182.72" y="-25.5" font-family="Times,serif" font-size="14.00"> &#160;&#160;&#160;constructor(_handler: ChainOfResponsibilityHandler)</text>
<text text-anchor="start" x="182.72" y="-8.7" font-family="Times,serif" font-size="14.00"> &#160;&#160;&#160;testHandlers(_chainResponseAddress: address, _chainOfResponsibility: bytes4)</text>
</g>
<!-- 5&#45;&gt;1 -->
<g id="edge6" class="edge">
<title>5&#45;&gt;1</title>
<path fill="none" stroke="black" d="M174.47,-139.52C103.49,-158.89 40.02,-183.39 18.53,-212.2 -8.31,-248.18 -3.19,-273.92 18.53,-313.2 93.06,-447.93 245.94,-528.4 381.36,-575.31"/>
<polygon fill="black" stroke="black" points="380.49,-578.71 391.08,-578.63 382.75,-572.08 380.49,-578.71"/>
</g>
<!-- 5&#45;&gt;2 -->
<g id="edge7" class="edge">
<title>5&#45;&gt;2</title>
<path fill="none" stroke="black" stroke-dasharray="5,2" d="M328.43,-175.91C316.16,-186.14 303.9,-196.36 292.34,-206"/>
<polygon fill="black" stroke="black" points="289.9,-203.47 284.46,-212.57 294.38,-208.85 289.9,-203.47"/>
</g>
<!-- 5&#45;&gt;3 -->
<g id="edge8" class="edge">
<title>5&#45;&gt;3</title>
<path fill="none" stroke="black" stroke-dasharray="5,2" d="M536.64,-175.91C548.91,-186.14 561.17,-196.36 572.72,-206"/>
<polygon fill="black" stroke="black" points="570.68,-208.85 580.61,-212.57 575.17,-203.47 570.68,-208.85"/>
</g>
<!-- 5&#45;&gt;4 -->
<g id="edge9" class="edge">
<title>5&#45;&gt;4</title>
<path fill="none" stroke="black" stroke-dasharray="5,2" d="M690.5,-160.8C749.75,-177.27 811.64,-194.47 867.18,-209.91"/>
<polygon fill="black" stroke="black" points="866.55,-213.36 877.12,-212.67 868.42,-206.62 866.55,-213.36"/>
</g>
</g>
</svg>
