<?xml version="1.0" encoding="UTF-8" standalone="no"?>
<!DOCTYPE svg PUBLIC "-//W3C//DTD SVG 1.1//EN"
 "http://www.w3.org/Graphics/SVG/1.1/DTD/svg11.dtd">
<!-- Generated by graphviz version 5.0.0 (20220707.1540)
 -->
<!-- Title: UmlClassDiagram Pages: 1 -->
<svg width="4192pt" height="917pt"
 viewBox="0.00 0.00 4192.25 917.00" xmlns="http://www.w3.org/2000/svg" xmlns:xlink="http://www.w3.org/1999/xlink">
<g id="graph0" class="graph" transform="scale(1 1) rotate(0) translate(4 913)">
<title>UmlClassDiagram</title>
<polygon fill="white" stroke="transparent" points="-4,4 -4,-913 4188.25,-913 4188.25,4 -4,4"/>
<!-- 0 -->
<g id="node1" class="node">
<title>0</title>
<polygon fill="#f2f2f2" stroke="black" points="0,-237.9 0,-463.5 358.59,-463.5 358.59,-237.9 0,-237.9"/>
<text text-anchor="middle" x="179.29" y="-446.9" font-family="Times,serif" font-size="14.00">UpdatedCellAgent</text>
<text text-anchor="middle" x="179.29" y="-430.1" font-family="Times,serif" font-size="14.00">contractsUpdatedCellAgent.sol</text>
<polyline fill="none" stroke="black" points="0,-421.9 358.59,-421.9 "/>
<text text-anchor="start" x="8" y="-405.3" font-family="Times,serif" font-size="14.00">Public:</text>
<text text-anchor="start" x="8" y="-388.5" font-family="Times,serif" font-size="14.00"> &#160;&#160;sampleVariable: uint</text>
<polyline fill="none" stroke="black" points="0,-380.3 358.59,-380.3 "/>
<text text-anchor="start" x="8" y="-363.7" font-family="Times,serif" font-size="14.00">Internal:</text>
<text text-anchor="start" x="8" y="-346.9" font-family="Times,serif" font-size="14.00"> &#160;&#160;&#160;_authorizeUpgrade(address) &lt;&lt;onlyOwner&gt;&gt;</text>
<text text-anchor="start" x="8" y="-330.1" font-family="Times,serif" font-size="14.00">External:</text>
<text text-anchor="start" x="8" y="-313.3" font-family="Times,serif" font-size="14.00"> &#160;&#160;&#160;changeStateVariable()</text>
<text text-anchor="start" x="8" y="-296.5" font-family="Times,serif" font-size="14.00">Public:</text>
<text text-anchor="start" x="8" y="-279.7" font-family="Times,serif" font-size="14.00"> &#160;&#160;&#160;initializeRoleOwner(roleAddress: address) &lt;&lt;initializer&gt;&gt;</text>
<text text-anchor="start" x="8" y="-262.9" font-family="Times,serif" font-size="14.00"> &#160;&#160;&#160;getMessage(): string</text>
<text text-anchor="start" x="8" y="-246.1" font-family="Times,serif" font-size="14.00"> &#160;&#160;&#160;setStateVariable()</text>
</g>
<!-- 1 -->
<g id="node2" class="node">
<title>1</title>
<polygon fill="#f2f2f2" stroke="black" points="75.07,-38.1 75.07,-121.3 283.52,-121.3 283.52,-38.1 75.07,-38.1"/>
<text text-anchor="middle" x="179.29" y="-104.7" font-family="Times,serif" font-size="14.00">UpdatedRoleV2</text>
<text text-anchor="middle" x="179.29" y="-87.9" font-family="Times,serif" font-size="14.00">contractsUpdatedCellAgentV2.sol</text>
<polyline fill="none" stroke="black" points="75.07,-79.7 283.52,-79.7 "/>
<text text-anchor="start" x="83.07" y="-63.1" font-family="Times,serif" font-size="14.00">External:</text>
<text text-anchor="start" x="83.07" y="-46.3" font-family="Times,serif" font-size="14.00"> &#160;&#160;&#160;refillStateVariable()</text>
</g>
<!-- 1&#45;&gt;0 -->
<g id="edge1" class="edge">
<title>1&#45;&gt;0</title>
<path fill="none" stroke="black" d="M179.29,-121.56C179.29,-145 179.29,-175.98 179.29,-207.53"/>
<polygon fill="none" stroke="black" points="168.8,-207.72 179.29,-237.72 189.8,-207.72 168.8,-207.72"/>
</g>
<!-- 2 -->
<g id="node3" class="node">
<title>2</title>
<polygon fill="#f2f2f2" stroke="black" points="798.38,-195.9 798.38,-505.5 1170.21,-505.5 1170.21,-195.9 798.38,-195.9"/>
<text text-anchor="middle" x="984.29" y="-488.9" font-family="Times,serif" font-size="14.00">CellConfigurator</text>
<text text-anchor="middle" x="984.29" y="-472.1" font-family="Times,serif" font-size="14.00">contractsfactory&#45;fundamentalCellConfigurator.sol</text>
<polyline fill="none" stroke="black" points="798.38,-463.9 1170.21,-463.9 "/>
<text text-anchor="start" x="806.38" y="-447.3" font-family="Times,serif" font-size="14.00">Public:</text>
<text text-anchor="start" x="806.38" y="-430.5" font-family="Times,serif" font-size="14.00"> &#160;&#160;companyName: string</text>
<text text-anchor="start" x="806.38" y="-413.7" font-family="Times,serif" font-size="14.00"> &#160;&#160;companyId: string</text>
<text text-anchor="start" x="806.38" y="-396.9" font-family="Times,serif" font-size="14.00"> &#160;&#160;isProductionEnviornmentLeased: bool</text>
<text text-anchor="start" x="806.38" y="-380.1" font-family="Times,serif" font-size="14.00"> &#160;&#160;serviceProviderID: string</text>
<text text-anchor="start" x="806.38" y="-363.3" font-family="Times,serif" font-size="14.00"> &#160;&#160;machineID: string</text>
<text text-anchor="start" x="806.38" y="-346.5" font-family="Times,serif" font-size="14.00"> &#160;&#160;owner: address</text>
<polyline fill="none" stroke="black" points="798.38,-338.3 1170.21,-338.3 "/>
<text text-anchor="start" x="806.38" y="-321.7" font-family="Times,serif" font-size="14.00">Public:</text>
<text text-anchor="start" x="806.38" y="-304.9" font-family="Times,serif" font-size="14.00"> &#160;&#160;&#160;&lt;&lt;modifier&gt;&gt; onlyOwner()</text>
<text text-anchor="start" x="806.38" y="-288.1" font-family="Times,serif" font-size="14.00"> &#160;&#160;&#160;constructor()</text>
<text text-anchor="start" x="806.38" y="-271.3" font-family="Times,serif" font-size="14.00"> &#160;&#160;&#160;getCompanyName(): string</text>
<text text-anchor="start" x="806.38" y="-254.5" font-family="Times,serif" font-size="14.00"> &#160;&#160;&#160;getCompanyId(): string</text>
<text text-anchor="start" x="806.38" y="-237.7" font-family="Times,serif" font-size="14.00"> &#160;&#160;&#160;setCompanyName(_companyName: string) &lt;&lt;onlyOwner&gt;&gt;</text>
<text text-anchor="start" x="806.38" y="-220.9" font-family="Times,serif" font-size="14.00"> &#160;&#160;&#160;setCompanyId(_companyId: string) &lt;&lt;onlyOwner&gt;&gt;</text>
<text text-anchor="start" x="806.38" y="-204.1" font-family="Times,serif" font-size="14.00"> &#160;&#160;&#160;getType(): Constants.ClassType</text>
</g>
<!-- 6 -->
<g id="node7" class="node">
<title>6</title>
<polygon fill="#f2f2f2" stroke="black" points="1062.98,-542.5 1062.98,-642.5 1361.61,-642.5 1361.61,-542.5 1062.98,-542.5"/>
<text text-anchor="middle" x="1212.29" y="-625.9" font-family="Times,serif" font-size="14.00">&lt;&lt;Abstract&gt;&gt;</text>
<text text-anchor="middle" x="1212.29" y="-609.1" font-family="Times,serif" font-size="14.00">FactoryBoxRoles</text>
<text text-anchor="middle" x="1212.29" y="-592.3" font-family="Times,serif" font-size="14.00">contractsfactory&#45;fundamentalFactoryBoxRoles.sol</text>
<polyline fill="none" stroke="black" points="1062.98,-584.1 1361.61,-584.1 "/>
<text text-anchor="start" x="1070.98" y="-567.5" font-family="Times,serif" font-size="14.00">Public:</text>
<text text-anchor="start" x="1070.98" y="-550.7" font-family="Times,serif" font-size="14.00"> &#160;&#160;&#160;&lt;&lt;abstract&gt;&gt; getType(): Constants.ClassType</text>
</g>
<!-- 2&#45;&gt;6 -->
<g id="edge2" class="edge">
<title>2&#45;&gt;6</title>
<path fill="none" stroke="black" d="M1130.63,-505.6C1135.34,-510.56 1139.97,-515.44 1144.49,-520.19"/>
<polygon fill="none" stroke="black" points="1137,-527.55 1165.28,-542.05 1152.22,-513.08 1137,-527.55"/>
</g>
<!-- 12 -->
<g id="node12" class="node">
<title>12</title>
<polygon fill="#f2f2f2" stroke="black" points="1117.14,-679.5 1117.14,-813.1 1399.45,-813.1 1399.45,-679.5 1117.14,-679.5"/>
<text text-anchor="middle" x="1258.29" y="-796.5" font-family="Times,serif" font-size="14.00">&lt;&lt;Enum&gt;&gt;</text>
<text text-anchor="middle" x="1258.29" y="-779.7" font-family="Times,serif" font-size="14.00">ClassType</text>
<text text-anchor="middle" x="1258.29" y="-762.9" font-family="Times,serif" font-size="14.00">contractsfactory&#45;fundamentalRoleConstants.sol</text>
<polyline fill="none" stroke="black" points="1117.14,-754.7 1399.45,-754.7 "/>
<text text-anchor="start" x="1125.14" y="-738.1" font-family="Times,serif" font-size="14.00">CellConfigurator: 0</text>
<text text-anchor="start" x="1125.14" y="-721.3" font-family="Times,serif" font-size="14.00">CellConfiguratorController: 1</text>
<text text-anchor="start" x="1125.14" y="-704.5" font-family="Times,serif" font-size="14.00">CellMaintenanceAgent: 2</text>
<text text-anchor="start" x="1125.14" y="-687.7" font-family="Times,serif" font-size="14.00">Cobot: 3</text>
</g>
<!-- 2&#45;&gt;12 -->
<g id="edge4" class="edge">
<title>2&#45;&gt;12</title>
<path fill="none" stroke="black" stroke-dasharray="5,2" d="M1009.19,-505.61C1021.01,-563.4 1036.47,-620.54 1054.29,-643 1068.95,-661.46 1087.81,-676.87 1108.14,-689.65"/>
<polygon fill="black" stroke="black" points="1106.56,-692.78 1116.93,-694.96 1110.18,-686.79 1106.56,-692.78"/>
</g>
<!-- 11 -->
<g id="node13" class="node">
<title>11</title>
<polygon fill="#f2f2f2" stroke="black" points="1117.14,-850.1 1117.14,-908.5 1399.45,-908.5 1399.45,-850.1 1117.14,-850.1"/>
<text text-anchor="middle" x="1258.29" y="-891.9" font-family="Times,serif" font-size="14.00">&lt;&lt;Library&gt;&gt;</text>
<text text-anchor="middle" x="1258.29" y="-875.1" font-family="Times,serif" font-size="14.00">Constants</text>
<text text-anchor="middle" x="1258.29" y="-858.3" font-family="Times,serif" font-size="14.00">contractsfactory&#45;fundamentalRoleConstants.sol</text>
</g>
<!-- 2&#45;&gt;11 -->
<g id="edge3" class="edge">
<title>2&#45;&gt;11</title>
<path fill="none" stroke="black" stroke-dasharray="5,2" d="M976.37,-505.55C979.87,-606.77 1002.34,-734.66 1083.29,-813.6 1096.82,-826.79 1113.27,-837.33 1130.61,-845.74"/>
<polygon fill="black" stroke="black" points="1129.2,-848.94 1139.74,-849.95 1132.12,-842.59 1129.2,-848.94"/>
</g>
<!-- 3 -->
<g id="node4" class="node">
<title>3</title>
<polygon fill="#f2f2f2" stroke="black" points="1226.38,-254.7 1226.38,-446.7 1580.21,-446.7 1580.21,-254.7 1226.38,-254.7"/>
<text text-anchor="middle" x="1403.29" y="-430.1" font-family="Times,serif" font-size="14.00">CellConfiguratorController</text>
<text text-anchor="middle" x="1403.29" y="-413.3" font-family="Times,serif" font-size="14.00">contractsfactory&#45;fundamentalCellConfiguratorController.sol</text>
<polyline fill="none" stroke="black" points="1226.38,-405.1 1580.21,-405.1 "/>
<text text-anchor="start" x="1234.38" y="-388.5" font-family="Times,serif" font-size="14.00">Public:</text>
<text text-anchor="start" x="1234.38" y="-371.7" font-family="Times,serif" font-size="14.00"> &#160;&#160;stringMapping: mapping(bytes32=&gt;string)</text>
<polyline fill="none" stroke="black" points="1226.38,-363.5 1580.21,-363.5 "/>
<text text-anchor="start" x="1234.38" y="-346.9" font-family="Times,serif" font-size="14.00">Public:</text>
<text text-anchor="start" x="1234.38" y="-330.1" font-family="Times,serif" font-size="14.00"> &#160;&#160;&#160;&lt;&lt;event&gt;&gt; Logging(description: string)</text>
<text text-anchor="start" x="1234.38" y="-313.3" font-family="Times,serif" font-size="14.00"> &#160;&#160;&#160;constructor()</text>
<text text-anchor="start" x="1234.38" y="-296.5" font-family="Times,serif" font-size="14.00"> &#160;&#160;&#160;getType(): Constants.ClassType</text>
<text text-anchor="start" x="1234.38" y="-279.7" font-family="Times,serif" font-size="14.00"> &#160;&#160;&#160;setLocationValues(key: string, value: string)</text>
<text text-anchor="start" x="1234.38" y="-262.9" font-family="Times,serif" font-size="14.00"> &#160;&#160;&#160;getLocationValues(key: string): string</text>
</g>
<!-- 3&#45;&gt;6 -->
<g id="edge5" class="edge">
<title>3&#45;&gt;6</title>
<path fill="none" stroke="black" d="M1327.53,-446.82C1308.51,-470.7 1288.4,-495.95 1270.39,-518.56"/>
<polygon fill="none" stroke="black" points="1261.96,-512.29 1251.48,-542.3 1278.39,-525.37 1261.96,-512.29"/>
</g>
<!-- 3&#45;&gt;12 -->
<g id="edge7" class="edge">
<title>3&#45;&gt;12</title>
<path fill="none" stroke="black" stroke-dasharray="5,2" d="M1409.07,-446.73C1408.79,-506.14 1401.11,-582.59 1370.29,-643 1365.16,-653.07 1358.59,-662.64 1351.23,-671.59"/>
<polygon fill="black" stroke="black" points="1348.46,-669.45 1344.56,-679.3 1353.75,-674.02 1348.46,-669.45"/>
</g>
<!-- 3&#45;&gt;11 -->
<g id="edge6" class="edge">
<title>3&#45;&gt;11</title>
<path fill="none" stroke="black" stroke-dasharray="5,2" d="M1433.23,-447.05C1458.46,-546.99 1480.13,-704.39 1408.29,-813.6 1399.92,-826.33 1388.45,-836.57 1375.56,-844.8"/>
<polygon fill="black" stroke="black" points="1373.73,-841.82 1366.9,-849.92 1377.29,-847.84 1373.73,-841.82"/>
</g>
<!-- 4 -->
<g id="node5" class="node">
<title>4</title>
<polygon fill="#f2f2f2" stroke="black" points="376.23,-283.9 376.23,-417.5 780.36,-417.5 780.36,-283.9 376.23,-283.9"/>
<text text-anchor="middle" x="578.29" y="-400.9" font-family="Times,serif" font-size="14.00">CellMaintenanceAgent</text>
<text text-anchor="middle" x="578.29" y="-384.1" font-family="Times,serif" font-size="14.00">contractsfactory&#45;fundamentalCellMaintenanceAgent.sol</text>
<polyline fill="none" stroke="black" points="376.23,-375.9 780.36,-375.9 "/>
<text text-anchor="start" x="384.23" y="-359.3" font-family="Times,serif" font-size="14.00">Public:</text>
<text text-anchor="start" x="384.23" y="-342.5" font-family="Times,serif" font-size="14.00"> &#160;&#160;&#160;&lt;&lt;event&gt;&gt; Logging(description: string, problemDefinition: string)</text>
<text text-anchor="start" x="384.23" y="-325.7" font-family="Times,serif" font-size="14.00"> &#160;&#160;&#160;constructor()</text>
<text text-anchor="start" x="384.23" y="-308.9" font-family="Times,serif" font-size="14.00"> &#160;&#160;&#160;assignLogging(_description: string, _problemDefinition: string)</text>
<text text-anchor="start" x="384.23" y="-292.1" font-family="Times,serif" font-size="14.00"> &#160;&#160;&#160;getType(): Constants.ClassType</text>
</g>
<!-- 4&#45;&gt;6 -->
<g id="edge8" class="edge">
<title>4&#45;&gt;6</title>
<path fill="none" stroke="black" d="M650.65,-417.89C689.14,-449.48 738.84,-484.9 789.29,-506 881.51,-544.56 913.35,-522.03 1011.29,-542 1018.48,-543.47 1025.8,-545.01 1033.18,-546.62"/>
<polygon fill="none" stroke="black" points="1031.2,-556.93 1062.77,-553.27 1035.81,-536.44 1031.2,-556.93"/>
</g>
<!-- 4&#45;&gt;12 -->
<g id="edge10" class="edge">
<title>4&#45;&gt;12</title>
<path fill="none" stroke="black" stroke-dasharray="5,2" d="M664.16,-417.7C749.72,-481.31 886.56,-577.33 1015.29,-643 1044.58,-657.94 1076.56,-672.55 1107.41,-685.83"/>
<polygon fill="black" stroke="black" points="1106.38,-689.2 1116.95,-689.92 1109.13,-682.76 1106.38,-689.2"/>
</g>
<!-- 4&#45;&gt;11 -->
<g id="edge9" class="edge">
<title>4&#45;&gt;11</title>
<path fill="none" stroke="black" stroke-dasharray="5,2" d="M620.05,-417.65C687.67,-518.84 830.98,-711.41 1002.29,-813.6 1033.96,-832.49 1071,-845.9 1106.92,-855.4"/>
<polygon fill="black" stroke="black" points="1106.45,-858.9 1117.01,-857.98 1108.19,-852.11 1106.45,-858.9"/>
</g>
<!-- 5 -->
<g id="node6" class="node">
<title>5</title>
<polygon fill="#f2f2f2" stroke="black" points="1597.93,-229.5 1597.93,-471.9 1992.66,-471.9 1992.66,-229.5 1597.93,-229.5"/>
<text text-anchor="middle" x="1795.29" y="-455.3" font-family="Times,serif" font-size="14.00">Cobot</text>
<text text-anchor="middle" x="1795.29" y="-438.5" font-family="Times,serif" font-size="14.00">contractsfactory&#45;fundamentalCobot.sol</text>
<polyline fill="none" stroke="black" points="1597.93,-430.3 1992.66,-430.3 "/>
<text text-anchor="start" x="1605.93" y="-413.7" font-family="Times,serif" font-size="14.00">Public:</text>
<text text-anchor="start" x="1605.93" y="-396.9" font-family="Times,serif" font-size="14.00"> &#160;&#160;cobotCollection: mapping(bytes32=&gt;string)</text>
<polyline fill="none" stroke="black" points="1597.93,-388.7 1992.66,-388.7 "/>
<text text-anchor="start" x="1605.93" y="-372.1" font-family="Times,serif" font-size="14.00">External:</text>
<text text-anchor="start" x="1605.93" y="-355.3" font-family="Times,serif" font-size="14.00"> &#160;&#160;&#160;setCobotID(_id: string, _name: string)</text>
<text text-anchor="start" x="1605.93" y="-338.5" font-family="Times,serif" font-size="14.00"> &#160;&#160;&#160;getLocationOfMapping(mappingSlot: uint, key: uint): (slot: uint)</text>
<text text-anchor="start" x="1605.93" y="-321.7" font-family="Times,serif" font-size="14.00">Public:</text>
<text text-anchor="start" x="1605.93" y="-304.9" font-family="Times,serif" font-size="14.00"> &#160;&#160;&#160;&lt;&lt;event&gt;&gt; Logging(description: string)</text>
<text text-anchor="start" x="1605.93" y="-288.1" font-family="Times,serif" font-size="14.00"> &#160;&#160;&#160;constructor()</text>
<text text-anchor="start" x="1605.93" y="-271.3" font-family="Times,serif" font-size="14.00"> &#160;&#160;&#160;getType(): Constants.ClassType</text>
<text text-anchor="start" x="1605.93" y="-254.5" font-family="Times,serif" font-size="14.00"> &#160;&#160;&#160;getCobotName(_id: string, _name: string): string</text>
<text text-anchor="start" x="1605.93" y="-237.7" font-family="Times,serif" font-size="14.00"> &#160;&#160;&#160;getHashValue(_id: string, _text: string): bytes32</text>
</g>
<!-- 5&#45;&gt;6 -->
<g id="edge11" class="edge">
<title>5&#45;&gt;6</title>
<path fill="none" stroke="black" d="M1649.78,-472.05C1630.2,-484.8 1609.78,-496.53 1589.29,-506 1527.76,-534.44 1456.1,-553.75 1391.88,-566.7"/>
<polygon fill="none" stroke="black" points="1389.5,-556.47 1361.99,-572.39 1393.43,-577.1 1389.5,-556.47"/>
</g>
<!-- 5&#45;&gt;12 -->
<g id="edge13" class="edge">
<title>5&#45;&gt;12</title>
<path fill="none" stroke="black" stroke-dasharray="5,2" d="M1635.22,-471.98C1619.73,-483.51 1604.22,-495 1589.29,-506 1505.77,-567.54 1484.38,-582.23 1400.29,-643 1386.71,-652.82 1372.38,-663.16 1358.27,-673.33"/>
<polygon fill="black" stroke="black" points="1356.05,-670.62 1349.99,-679.3 1360.15,-676.29 1356.05,-670.62"/>
</g>
<!-- 5&#45;&gt;11 -->
<g id="edge12" class="edge">
<title>5&#45;&gt;11</title>
<path fill="none" stroke="black" stroke-dasharray="5,2" d="M1731.42,-471.94C1670.57,-575.86 1569.89,-723.19 1445.29,-813.6 1426.89,-826.96 1405.49,-837.73 1383.89,-846.37"/>
<polygon fill="black" stroke="black" points="1382.37,-843.2 1374.3,-850.06 1384.89,-849.74 1382.37,-843.2"/>
</g>
<!-- 6&#45;&gt;12 -->
<g id="edge15" class="edge">
<title>6&#45;&gt;12</title>
<path fill="none" stroke="black" stroke-dasharray="5,2" d="M1227.23,-642.79C1229.83,-651.37 1232.59,-660.47 1235.35,-669.57"/>
<polygon fill="black" stroke="black" points="1232.08,-670.86 1238.33,-679.42 1238.78,-668.83 1232.08,-670.86"/>
</g>
<!-- 6&#45;&gt;11 -->
<g id="edge14" class="edge">
<title>6&#45;&gt;11</title>
<path fill="none" stroke="black" stroke-dasharray="5,2" d="M1135.59,-642.57C1124.53,-653.18 1114.73,-665.37 1108.29,-679 1082.74,-733.09 1075.42,-763.62 1108.29,-813.6 1116.67,-826.33 1128.14,-836.57 1141.03,-844.8"/>
<polygon fill="black" stroke="black" points="1139.3,-847.84 1149.69,-849.92 1142.86,-841.82 1139.3,-847.84"/>
</g>
<!-- 7 -->
<g id="node8" class="node">
<title>7</title>
<polygon fill="#f2f2f2" stroke="black" points="2048.34,-279.9 2048.34,-421.5 2414.25,-421.5 2414.25,-279.9 2048.34,-279.9"/>
<text text-anchor="middle" x="2231.29" y="-404.9" font-family="Times,serif" font-size="14.00">MediatorPattern</text>
<text text-anchor="middle" x="2231.29" y="-388.1" font-family="Times,serif" font-size="14.00">contractsfactory&#45;fundamentalMediatorPattern.sol</text>
<polyline fill="none" stroke="black" points="2048.34,-379.9 2414.25,-379.9 "/>
<text text-anchor="start" x="2056.34" y="-363.3" font-family="Times,serif" font-size="14.00">Public:</text>
<text text-anchor="start" x="2056.34" y="-346.5" font-family="Times,serif" font-size="14.00"> &#160;&#160;objects: mapping(address=&gt;address)</text>
<polyline fill="none" stroke="black" points="2048.34,-338.3 2414.25,-338.3 "/>
<text text-anchor="start" x="2056.34" y="-321.7" font-family="Times,serif" font-size="14.00">Public:</text>
<text text-anchor="start" x="2056.34" y="-304.9" font-family="Times,serif" font-size="14.00"> &#160;&#160;&#160;register(_objectAddress: address)</text>
<text text-anchor="start" x="2056.34" y="-288.1" font-family="Times,serif" font-size="14.00"> &#160;&#160;&#160;sendMessage(_recipientAddress: address, _message: string)</text>
</g>
<!-- 8 -->
<g id="node9" class="node">
<title>8</title>
<polygon fill="#f2f2f2" stroke="black" points="2425.49,-38.1 2425.49,-121.3 2717.1,-121.3 2717.1,-38.1 2425.49,-38.1"/>
<text text-anchor="middle" x="2571.29" y="-104.7" font-family="Times,serif" font-size="14.00">Object1</text>
<text text-anchor="middle" x="2571.29" y="-87.9" font-family="Times,serif" font-size="14.00">contractsfactory&#45;fundamentalMediatorPattern.sol</text>
<polyline fill="none" stroke="black" points="2425.49,-79.7 2717.1,-79.7 "/>
<text text-anchor="start" x="2433.49" y="-63.1" font-family="Times,serif" font-size="14.00">Public:</text>
<text text-anchor="start" x="2433.49" y="-46.3" font-family="Times,serif" font-size="14.00"> &#160;&#160;&#160;receiveMessage(message: string): string</text>
</g>
<!-- 9 -->
<g id="node10" class="node">
<title>9</title>
<polygon fill="#f2f2f2" stroke="black" points="2055.34,-8.9 2055.34,-150.5 2407.25,-150.5 2407.25,-8.9 2055.34,-8.9"/>
<text text-anchor="middle" x="2231.29" y="-133.9" font-family="Times,serif" font-size="14.00">Object2</text>
<text text-anchor="middle" x="2231.29" y="-117.1" font-family="Times,serif" font-size="14.00">contractsfactory&#45;fundamentalMediatorPattern.sol</text>
<polyline fill="none" stroke="black" points="2055.34,-108.9 2407.25,-108.9 "/>
<text text-anchor="start" x="2063.34" y="-92.3" font-family="Times,serif" font-size="14.00">Public:</text>
<text text-anchor="start" x="2063.34" y="-75.5" font-family="Times,serif" font-size="14.00"> &#160;&#160;mediator: MediatorPattern</text>
<polyline fill="none" stroke="black" points="2055.34,-67.3 2407.25,-67.3 "/>
<text text-anchor="start" x="2063.34" y="-50.7" font-family="Times,serif" font-size="14.00">Public:</text>
<text text-anchor="start" x="2063.34" y="-33.9" font-family="Times,serif" font-size="14.00"> &#160;&#160;&#160;constructor(_mediator: MediatorPattern)</text>
<text text-anchor="start" x="2063.34" y="-17.1" font-family="Times,serif" font-size="14.00"> &#160;&#160;&#160;sendMessage(recipientAddress: address, message: string)</text>
</g>
<!-- 9&#45;&gt;7 -->
<g id="edge16" class="edge">
<title>9&#45;&gt;7</title>
<path fill="none" stroke="black" d="M2231.29,-150.67C2231.29,-186.96 2231.29,-231.45 2231.29,-269.17"/>
<polygon fill="black" stroke="black" points="2227.8,-269.61 2231.29,-279.61 2234.8,-269.61 2227.8,-269.61"/>
</g>
<!-- 10 -->
<g id="node11" class="node">
<title>10</title>
<polygon fill="#f2f2f2" stroke="black" points="2734.82,-0.5 2734.82,-158.9 3025.77,-158.9 3025.77,-0.5 2734.82,-0.5"/>
<text text-anchor="middle" x="2880.29" y="-142.3" font-family="Times,serif" font-size="14.00">Migrations</text>
<text text-anchor="middle" x="2880.29" y="-125.5" font-family="Times,serif" font-size="14.00">contractsfactory&#45;fundamentalMigrations.sol</text>
<polyline fill="none" stroke="black" points="2734.82,-117.3 3025.77,-117.3 "/>
<text text-anchor="start" x="2742.82" y="-100.7" font-family="Times,serif" font-size="14.00">Public:</text>
<text text-anchor="start" x="2742.82" y="-83.9" font-family="Times,serif" font-size="14.00"> &#160;&#160;owner: address</text>
<text text-anchor="start" x="2742.82" y="-67.1" font-family="Times,serif" font-size="14.00"> &#160;&#160;last_completed_migration: uint</text>
<polyline fill="none" stroke="black" points="2734.82,-58.9 3025.77,-58.9 "/>
<text text-anchor="start" x="2742.82" y="-42.3" font-family="Times,serif" font-size="14.00">Public:</text>
<text text-anchor="start" x="2742.82" y="-25.5" font-family="Times,serif" font-size="14.00"> &#160;&#160;&#160;&lt;&lt;modifier&gt;&gt; restricted()</text>
<text text-anchor="start" x="2742.82" y="-8.7" font-family="Times,serif" font-size="14.00"> &#160;&#160;&#160;setCompleted(completed: uint) &lt;&lt;restricted&gt;&gt;</text>
</g>
<!-- 12&#45;&gt;11 -->
<g id="edge17" class="edge">
<title>12&#45;&gt;11</title>
<path fill="none" stroke="black" d="M1258.29,-813.18C1258.29,-821.61 1258.29,-830.03 1258.29,-837.88"/>
<polygon fill="black" stroke="black" points="1258.3,-838.07 1262.29,-844.07 1258.29,-850.07 1254.29,-844.07 1258.3,-838.07"/>
</g>
<!-- 13 -->
<g id="node14" class="node">
<title>13</title>
<polygon fill="#f2f2f2" stroke="black" points="1124.92,-29.7 1124.92,-129.7 1475.67,-129.7 1475.67,-29.7 1124.92,-29.7"/>
<text text-anchor="middle" x="1300.29" y="-113.1" font-family="Times,serif" font-size="14.00">RoleSubtypingFactoryBox</text>
<text text-anchor="middle" x="1300.29" y="-96.3" font-family="Times,serif" font-size="14.00">contractsfactory&#45;fundamentalRoleSubtypingFactoryBox.sol</text>
<polyline fill="none" stroke="black" points="1124.92,-88.1 1475.67,-88.1 "/>
<text text-anchor="start" x="1132.92" y="-71.5" font-family="Times,serif" font-size="14.00">Public:</text>
<text text-anchor="start" x="1132.92" y="-54.7" font-family="Times,serif" font-size="14.00"> &#160;&#160;&#160;&lt;&lt;payable&gt;&gt; assignmentOfRoles(): string[]</text>
<text text-anchor="start" x="1132.92" y="-37.9" font-family="Times,serif" font-size="14.00"> &#160;&#160;&#160;&lt;&lt;event&gt;&gt; Logging(description: string)</text>
</g>
<!-- 13&#45;&gt;2 -->
<g id="edge19" class="edge">
<title>13&#45;&gt;2</title>
<path fill="none" stroke="black" stroke-dasharray="5,2" d="M1242.7,-129.73C1222.38,-147.03 1198.26,-167.56 1173.06,-189.01"/>
<polygon fill="black" stroke="black" points="1170.56,-186.55 1165.21,-195.69 1175.09,-191.88 1170.56,-186.55"/>
</g>
<!-- 13&#45;&gt;3 -->
<g id="edge20" class="edge">
<title>13&#45;&gt;3</title>
<path fill="none" stroke="black" stroke-dasharray="5,2" d="M1319.07,-129.73C1331.4,-161.92 1348,-205.28 1363.2,-244.99"/>
<polygon fill="black" stroke="black" points="1359.98,-246.37 1366.83,-254.46 1366.52,-243.87 1359.98,-246.37"/>
</g>
<!-- 13&#45;&gt;4 -->
<g id="edge21" class="edge">
<title>13&#45;&gt;4</title>
<path fill="none" stroke="black" stroke-dasharray="5,2" d="M1124.87,-101.87C1023.52,-118.51 895.48,-147.2 789.29,-195.4 743.58,-216.15 697.97,-247.79 660.91,-277.02"/>
<polygon fill="black" stroke="black" points="658.29,-274.63 652.65,-283.6 662.65,-280.11 658.29,-274.63"/>
</g>
<!-- 13&#45;&gt;5 -->
<g id="edge22" class="edge">
<title>13&#45;&gt;5</title>
<path fill="none" stroke="black" stroke-dasharray="5,2" d="M1445.6,-129.73C1492.67,-147.86 1544.31,-170.22 1589.29,-195.4 1604.67,-204.01 1620.21,-213.63 1635.48,-223.74"/>
<polygon fill="black" stroke="black" points="1633.68,-226.75 1643.93,-229.41 1637.57,-220.94 1633.68,-226.75"/>
</g>
<!-- 13&#45;&gt;6 -->
<g id="edge18" class="edge">
<title>13&#45;&gt;6</title>
<path fill="none" stroke="black" stroke-dasharray="5,2" d="M1254.65,-129.72C1239.8,-148.78 1225.13,-171.71 1217.29,-195.4 1179.46,-309.75 1191.05,-453.03 1202.15,-532.13"/>
<polygon fill="black" stroke="black" points="1198.74,-533 1203.64,-542.39 1205.67,-531.99 1198.74,-533"/>
</g>
<!-- 13&#45;&gt;11 -->
<g id="edge23" class="edge">
<title>13&#45;&gt;11</title>
<path fill="none" stroke="black" stroke-dasharray="5,2" d="M1475.98,-84.39C1661.19,-92.44 1935.17,-117.58 2001.29,-195.4 2045.99,-248 2034.18,-445.32 2001.29,-506 1883.51,-723.36 1590.53,-816.54 1409.66,-854.4"/>
<polygon fill="black" stroke="black" points="1408.88,-850.98 1399.79,-856.43 1410.29,-857.84 1408.88,-850.98"/>
</g>
<!-- 14 -->
<g id="node15" class="node">
<title>14</title>
<polygon fill="#f2f2f2" stroke="black" points="3044.12,-0.5 3044.12,-158.9 3434.47,-158.9 3434.47,-0.5 3044.12,-0.5"/>
<text text-anchor="middle" x="3239.29" y="-142.3" font-family="Times,serif" font-size="14.00">ExtendedTransparentRole</text>
<text text-anchor="middle" x="3239.29" y="-125.5" font-family="Times,serif" font-size="14.00">contractstransparent&#45;upgradable&#45;proxyxtendedTransparentRole.sol</text>
<polyline fill="none" stroke="black" points="3044.12,-117.3 3434.47,-117.3 "/>
<text text-anchor="start" x="3052.12" y="-100.7" font-family="Times,serif" font-size="14.00">Public:</text>
<text text-anchor="start" x="3052.12" y="-83.9" font-family="Times,serif" font-size="14.00"> &#160;&#160;sampleVariable: uint</text>
<polyline fill="none" stroke="black" points="3044.12,-75.7 3434.47,-75.7 "/>
<text text-anchor="start" x="3052.12" y="-59.1" font-family="Times,serif" font-size="14.00">External:</text>
<text text-anchor="start" x="3052.12" y="-42.3" font-family="Times,serif" font-size="14.00"> &#160;&#160;&#160;changeStateVariable()</text>
<text text-anchor="start" x="3052.12" y="-25.5" font-family="Times,serif" font-size="14.00">Public:</text>
<text text-anchor="start" x="3052.12" y="-8.7" font-family="Times,serif" font-size="14.00"> &#160;&#160;&#160;getMessage(): string</text>
</g>
<!-- 15 -->
<g id="node16" class="node">
<title>15</title>
<polygon fill="#f2f2f2" stroke="black" points="3452.34,-4.5 3452.34,-154.9 4184.25,-154.9 4184.25,-4.5 3452.34,-4.5"/>
<text text-anchor="middle" x="3818.29" y="-138.3" font-family="Times,serif" font-size="14.00">ProxyAdmin</text>
<text text-anchor="middle" x="3818.29" y="-121.5" font-family="Times,serif" font-size="14.00">contractstransparent&#45;upgradable&#45;proxyProxyAdmin.sol</text>
<polyline fill="none" stroke="black" points="3452.34,-113.3 4184.25,-113.3 "/>
<text text-anchor="start" x="3460.34" y="-96.7" font-family="Times,serif" font-size="14.00">Public:</text>
<text text-anchor="start" x="3460.34" y="-79.9" font-family="Times,serif" font-size="14.00"> &#160;&#160;&#160;&lt;&lt;payable&gt;&gt; upgradeAndCall(proxy: TransparentUpgradeableProxy, implementation: address, data: bytes) &lt;&lt;onlyOwner&gt;&gt;</text>
<text text-anchor="start" x="3460.34" y="-63.1" font-family="Times,serif" font-size="14.00"> &#160;&#160;&#160;getProxyImplementation(proxy: TransparentUpgradeableProxy): address</text>
<text text-anchor="start" x="3460.34" y="-46.3" font-family="Times,serif" font-size="14.00"> &#160;&#160;&#160;getProxyAdmin(proxy: TransparentUpgradeableProxy): address</text>
<text text-anchor="start" x="3460.34" y="-29.5" font-family="Times,serif" font-size="14.00"> &#160;&#160;&#160;changeProxyAdmin(proxy: TransparentUpgradeableProxy, newAdmin: address) &lt;&lt;onlyOwner&gt;&gt;</text>
<text text-anchor="start" x="3460.34" y="-12.7" font-family="Times,serif" font-size="14.00"> &#160;&#160;&#160;upgrade(proxy: TransparentUpgradeableProxy, implementation: address) &lt;&lt;onlyOwner&gt;&gt;</text>
</g>
<!-- 16 -->
<g id="node17" class="node">
<title>16</title>
<polygon fill="#f2f2f2" stroke="black" points="3549.72,-225.1 3549.72,-476.3 4086.87,-476.3 4086.87,-225.1 3549.72,-225.1"/>
<text text-anchor="middle" x="3818.29" y="-459.7" font-family="Times,serif" font-size="14.00">TransparentUpgradeableProxy</text>
<text text-anchor="middle" x="3818.29" y="-442.9" font-family="Times,serif" font-size="14.00">contractstransparent&#45;upgradable&#45;proxyTransparentUpgradeableProxy.sol</text>
<polyline fill="none" stroke="black" points="3549.72,-434.7 4086.87,-434.7 "/>
<text text-anchor="start" x="3557.72" y="-418.1" font-family="Times,serif" font-size="14.00">Internal:</text>
<text text-anchor="start" x="3557.72" y="-401.3" font-family="Times,serif" font-size="14.00"> &#160;&#160;&#160;_admin(): address</text>
<text text-anchor="start" x="3557.72" y="-384.5" font-family="Times,serif" font-size="14.00"> &#160;&#160;&#160;_beforeFallback()</text>
<text text-anchor="start" x="3557.72" y="-367.7" font-family="Times,serif" font-size="14.00">External:</text>
<text text-anchor="start" x="3557.72" y="-350.9" font-family="Times,serif" font-size="14.00"> &#160;&#160;&#160;&lt;&lt;payable&gt;&gt; upgradeToAndCall(newImplementation: address, data: bytes) &lt;&lt;ifAdmin&gt;&gt;</text>
<text text-anchor="start" x="3557.72" y="-334.1" font-family="Times,serif" font-size="14.00"> &#160;&#160;&#160;admin(): (admin_: address) &lt;&lt;ifAdmin&gt;&gt;</text>
<text text-anchor="start" x="3557.72" y="-317.3" font-family="Times,serif" font-size="14.00"> &#160;&#160;&#160;implementation(): (implementation_: address) &lt;&lt;ifAdmin&gt;&gt;</text>
<text text-anchor="start" x="3557.72" y="-300.5" font-family="Times,serif" font-size="14.00"> &#160;&#160;&#160;changeAdmin(newAdmin: address) &lt;&lt;ifAdmin&gt;&gt;</text>
<text text-anchor="start" x="3557.72" y="-283.7" font-family="Times,serif" font-size="14.00"> &#160;&#160;&#160;upgradeTo(newImplementation: address) &lt;&lt;ifAdmin&gt;&gt;</text>
<text text-anchor="start" x="3557.72" y="-266.9" font-family="Times,serif" font-size="14.00">Public:</text>
<text text-anchor="start" x="3557.72" y="-250.1" font-family="Times,serif" font-size="14.00"> &#160;&#160;&#160;&lt;&lt;modifier&gt;&gt; ifAdmin()</text>
<text text-anchor="start" x="3557.72" y="-233.3" font-family="Times,serif" font-size="14.00"> &#160;&#160;&#160;constructor(_logic: address, admin_: address, _data: bytes)</text>
</g>
<!-- 15&#45;&gt;16 -->
<g id="edge24" class="edge">
<title>15&#45;&gt;16</title>
<path fill="none" stroke="black" stroke-dasharray="5,2" d="M3818.29,-154.92C3818.29,-173.56 3818.29,-194.15 3818.29,-214.76"/>
<polygon fill="black" stroke="black" points="3814.8,-214.87 3818.29,-224.87 3821.8,-214.87 3814.8,-214.87"/>
</g>
</g>
</svg>
