<?xml version="1.0" encoding="UTF-8" standalone="no"?>
<!DOCTYPE svg PUBLIC "-//W3C//DTD SVG 1.1//EN"
 "http://www.w3.org/Graphics/SVG/1.1/DTD/svg11.dtd">
<!-- Generated by graphviz version 5.0.0 (20220707.1540)
 -->
<!-- Title: UmlClassDiagram Pages: 1 -->
<svg width="1693pt" height="859pt"
 viewBox="0.00 0.00 1692.89 858.60" xmlns="http://www.w3.org/2000/svg" xmlns:xlink="http://www.w3.org/1999/xlink">
<g id="graph0" class="graph" transform="scale(1 1) rotate(0) translate(4 854.6)">
<title>UmlClassDiagram</title>
<polygon fill="white" stroke="transparent" points="-4,4 -4,-854.6 1688.89,-854.6 1688.89,4 -4,4"/>
<!-- 0 -->
<g id="node1" class="node">
<title>0</title>
<polygon fill="#f2f2f2" stroke="black" points="422.15,-137.5 422.15,-447.1 793.98,-447.1 793.98,-137.5 422.15,-137.5"/>
<text text-anchor="middle" x="608.07" y="-430.5" font-family="Times,serif" font-size="14.00">CellConfigurator</text>
<text text-anchor="middle" x="608.07" y="-413.7" font-family="Times,serif" font-size="14.00">contractsfactory&#45;fundamentalCellConfigurator.sol</text>
<polyline fill="none" stroke="black" points="422.15,-405.5 793.98,-405.5 "/>
<text text-anchor="start" x="430.15" y="-388.9" font-family="Times,serif" font-size="14.00">Public:</text>
<text text-anchor="start" x="430.15" y="-372.1" font-family="Times,serif" font-size="14.00"> &#160;&#160;companyName: string</text>
<text text-anchor="start" x="430.15" y="-355.3" font-family="Times,serif" font-size="14.00"> &#160;&#160;companyId: string</text>
<text text-anchor="start" x="430.15" y="-338.5" font-family="Times,serif" font-size="14.00"> &#160;&#160;isProductionEnviornmentLeased: bool</text>
<text text-anchor="start" x="430.15" y="-321.7" font-family="Times,serif" font-size="14.00"> &#160;&#160;serviceProviderID: string</text>
<text text-anchor="start" x="430.15" y="-304.9" font-family="Times,serif" font-size="14.00"> &#160;&#160;machineID: string</text>
<text text-anchor="start" x="430.15" y="-288.1" font-family="Times,serif" font-size="14.00"> &#160;&#160;owner: address</text>
<polyline fill="none" stroke="black" points="422.15,-279.9 793.98,-279.9 "/>
<text text-anchor="start" x="430.15" y="-263.3" font-family="Times,serif" font-size="14.00">Public:</text>
<text text-anchor="start" x="430.15" y="-246.5" font-family="Times,serif" font-size="14.00"> &#160;&#160;&#160;&lt;&lt;modifier&gt;&gt; onlyOwner()</text>
<text text-anchor="start" x="430.15" y="-229.7" font-family="Times,serif" font-size="14.00"> &#160;&#160;&#160;constructor()</text>
<text text-anchor="start" x="430.15" y="-212.9" font-family="Times,serif" font-size="14.00"> &#160;&#160;&#160;getCompanyName(): string</text>
<text text-anchor="start" x="430.15" y="-196.1" font-family="Times,serif" font-size="14.00"> &#160;&#160;&#160;getCompanyId(): string</text>
<text text-anchor="start" x="430.15" y="-179.3" font-family="Times,serif" font-size="14.00"> &#160;&#160;&#160;setCompanyName(_companyName: string) &lt;&lt;onlyOwner&gt;&gt;</text>
<text text-anchor="start" x="430.15" y="-162.5" font-family="Times,serif" font-size="14.00"> &#160;&#160;&#160;setCompanyId(_companyId: string) &lt;&lt;onlyOwner&gt;&gt;</text>
<text text-anchor="start" x="430.15" y="-145.7" font-family="Times,serif" font-size="14.00"> &#160;&#160;&#160;getType(): Constants.ClassType</text>
</g>
<!-- 4 -->
<g id="node5" class="node">
<title>4</title>
<polygon fill="#f2f2f2" stroke="black" points="686.75,-484.1 686.75,-584.1 985.38,-584.1 985.38,-484.1 686.75,-484.1"/>
<text text-anchor="middle" x="836.07" y="-567.5" font-family="Times,serif" font-size="14.00">&lt;&lt;Abstract&gt;&gt;</text>
<text text-anchor="middle" x="836.07" y="-550.7" font-family="Times,serif" font-size="14.00">FactoryBoxRoles</text>
<text text-anchor="middle" x="836.07" y="-533.9" font-family="Times,serif" font-size="14.00">contractsfactory&#45;fundamentalFactoryBoxRoles.sol</text>
<polyline fill="none" stroke="black" points="686.75,-525.7 985.38,-525.7 "/>
<text text-anchor="start" x="694.75" y="-509.1" font-family="Times,serif" font-size="14.00">Public:</text>
<text text-anchor="start" x="694.75" y="-492.3" font-family="Times,serif" font-size="14.00"> &#160;&#160;&#160;&lt;&lt;abstract&gt;&gt; getType(): Constants.ClassType</text>
</g>
<!-- 0&#45;&gt;4 -->
<g id="edge1" class="edge">
<title>0&#45;&gt;4</title>
<path fill="none" stroke="black" d="M754.4,-447.2C759.11,-452.16 763.74,-457.04 768.26,-461.79"/>
<polygon fill="none" stroke="black" points="760.77,-469.15 789.05,-483.65 775.99,-454.68 760.77,-469.15"/>
</g>
<!-- 6 -->
<g id="node6" class="node">
<title>6</title>
<polygon fill="#f2f2f2" stroke="black" points="740.91,-621.1 740.91,-754.7 1023.22,-754.7 1023.22,-621.1 740.91,-621.1"/>
<text text-anchor="middle" x="882.07" y="-738.1" font-family="Times,serif" font-size="14.00">&lt;&lt;Enum&gt;&gt;</text>
<text text-anchor="middle" x="882.07" y="-721.3" font-family="Times,serif" font-size="14.00">ClassType</text>
<text text-anchor="middle" x="882.07" y="-704.5" font-family="Times,serif" font-size="14.00">contractsfactory&#45;fundamentalRoleConstants.sol</text>
<polyline fill="none" stroke="black" points="740.91,-696.3 1023.22,-696.3 "/>
<text text-anchor="start" x="748.91" y="-679.7" font-family="Times,serif" font-size="14.00">CellConfigurator: 0</text>
<text text-anchor="start" x="748.91" y="-662.9" font-family="Times,serif" font-size="14.00">CellConfiguratorController: 1</text>
<text text-anchor="start" x="748.91" y="-646.1" font-family="Times,serif" font-size="14.00">CellMaintenanceAgent: 2</text>
<text text-anchor="start" x="748.91" y="-629.3" font-family="Times,serif" font-size="14.00">Cobot: 3</text>
</g>
<!-- 0&#45;&gt;6 -->
<g id="edge3" class="edge">
<title>0&#45;&gt;6</title>
<path fill="none" stroke="black" stroke-dasharray="5,2" d="M632.97,-447.21C644.79,-505 660.24,-562.14 678.07,-584.6 692.72,-603.06 711.58,-618.47 731.91,-631.25"/>
<polygon fill="black" stroke="black" points="730.33,-634.38 740.7,-636.56 733.95,-628.39 730.33,-634.38"/>
</g>
<!-- 5 -->
<g id="node7" class="node">
<title>5</title>
<polygon fill="#f2f2f2" stroke="black" points="740.91,-791.7 740.91,-850.1 1023.22,-850.1 1023.22,-791.7 740.91,-791.7"/>
<text text-anchor="middle" x="882.07" y="-833.5" font-family="Times,serif" font-size="14.00">&lt;&lt;Library&gt;&gt;</text>
<text text-anchor="middle" x="882.07" y="-816.7" font-family="Times,serif" font-size="14.00">Constants</text>
<text text-anchor="middle" x="882.07" y="-799.9" font-family="Times,serif" font-size="14.00">contractsfactory&#45;fundamentalRoleConstants.sol</text>
</g>
<!-- 0&#45;&gt;5 -->
<g id="edge2" class="edge">
<title>0&#45;&gt;5</title>
<path fill="none" stroke="black" stroke-dasharray="5,2" d="M599.67,-447.22C602.9,-548.47 625.07,-676.37 706.07,-755.2 719.67,-768.45 736.22,-779.01 753.65,-787.44"/>
<polygon fill="black" stroke="black" points="752.29,-790.66 762.84,-791.65 755.21,-784.3 752.29,-790.66"/>
</g>
<!-- 1 -->
<g id="node2" class="node">
<title>1</title>
<polygon fill="#f2f2f2" stroke="black" points="850.15,-196.3 850.15,-388.3 1203.98,-388.3 1203.98,-196.3 850.15,-196.3"/>
<text text-anchor="middle" x="1027.07" y="-371.7" font-family="Times,serif" font-size="14.00">CellConfiguratorController</text>
<text text-anchor="middle" x="1027.07" y="-354.9" font-family="Times,serif" font-size="14.00">contractsfactory&#45;fundamentalCellConfiguratorController.sol</text>
<polyline fill="none" stroke="black" points="850.15,-346.7 1203.98,-346.7 "/>
<text text-anchor="start" x="858.15" y="-330.1" font-family="Times,serif" font-size="14.00">Public:</text>
<text text-anchor="start" x="858.15" y="-313.3" font-family="Times,serif" font-size="14.00"> &#160;&#160;stringMapping: mapping(bytes32=&gt;string)</text>
<polyline fill="none" stroke="black" points="850.15,-305.1 1203.98,-305.1 "/>
<text text-anchor="start" x="858.15" y="-288.5" font-family="Times,serif" font-size="14.00">Public:</text>
<text text-anchor="start" x="858.15" y="-271.7" font-family="Times,serif" font-size="14.00"> &#160;&#160;&#160;&lt;&lt;event&gt;&gt; Logging(description: string)</text>
<text text-anchor="start" x="858.15" y="-254.9" font-family="Times,serif" font-size="14.00"> &#160;&#160;&#160;constructor()</text>
<text text-anchor="start" x="858.15" y="-238.1" font-family="Times,serif" font-size="14.00"> &#160;&#160;&#160;getType(): Constants.ClassType</text>
<text text-anchor="start" x="858.15" y="-221.3" font-family="Times,serif" font-size="14.00"> &#160;&#160;&#160;setLocationValues(key: string, value: string)</text>
<text text-anchor="start" x="858.15" y="-204.5" font-family="Times,serif" font-size="14.00"> &#160;&#160;&#160;getLocationValues(key: string): string</text>
</g>
<!-- 1&#45;&gt;4 -->
<g id="edge4" class="edge">
<title>1&#45;&gt;4</title>
<path fill="none" stroke="black" d="M951.3,-388.42C932.28,-412.3 912.17,-437.55 894.16,-460.16"/>
<polygon fill="none" stroke="black" points="885.73,-453.89 875.25,-483.9 902.16,-466.97 885.73,-453.89"/>
</g>
<!-- 1&#45;&gt;6 -->
<g id="edge6" class="edge">
<title>1&#45;&gt;6</title>
<path fill="none" stroke="black" stroke-dasharray="5,2" d="M1032.84,-388.33C1032.56,-447.74 1024.88,-524.19 994.07,-584.6 988.93,-594.67 982.37,-604.24 975,-613.19"/>
<polygon fill="black" stroke="black" points="972.23,-611.05 968.33,-620.9 977.52,-615.62 972.23,-611.05"/>
</g>
<!-- 1&#45;&gt;5 -->
<g id="edge5" class="edge">
<title>1&#45;&gt;5</title>
<path fill="none" stroke="black" stroke-dasharray="5,2" d="M1057.01,-388.65C1082.23,-488.59 1103.9,-645.99 1032.07,-755.2 1023.69,-767.93 1012.23,-778.17 999.33,-786.4"/>
<polygon fill="black" stroke="black" points="997.5,-783.42 990.67,-791.52 1001.06,-789.44 997.5,-783.42"/>
</g>
<!-- 2 -->
<g id="node3" class="node">
<title>2</title>
<polygon fill="#f2f2f2" stroke="black" points="0,-225.5 0,-359.1 404.13,-359.1 404.13,-225.5 0,-225.5"/>
<text text-anchor="middle" x="202.07" y="-342.5" font-family="Times,serif" font-size="14.00">CellMaintenanceAgent</text>
<text text-anchor="middle" x="202.07" y="-325.7" font-family="Times,serif" font-size="14.00">contractsfactory&#45;fundamentalCellMaintenanceAgent.sol</text>
<polyline fill="none" stroke="black" points="0,-317.5 404.13,-317.5 "/>
<text text-anchor="start" x="8" y="-300.9" font-family="Times,serif" font-size="14.00">Public:</text>
<text text-anchor="start" x="8" y="-284.1" font-family="Times,serif" font-size="14.00"> &#160;&#160;&#160;&lt;&lt;event&gt;&gt; Logging(description: string, problemDefinition: string)</text>
<text text-anchor="start" x="8" y="-267.3" font-family="Times,serif" font-size="14.00"> &#160;&#160;&#160;constructor()</text>
<text text-anchor="start" x="8" y="-250.5" font-family="Times,serif" font-size="14.00"> &#160;&#160;&#160;assignLogging(_description: string, _problemDefinition: string)</text>
<text text-anchor="start" x="8" y="-233.7" font-family="Times,serif" font-size="14.00"> &#160;&#160;&#160;getType(): Constants.ClassType</text>
</g>
<!-- 2&#45;&gt;4 -->
<g id="edge7" class="edge">
<title>2&#45;&gt;4</title>
<path fill="none" stroke="black" d="M274.42,-359.49C312.91,-391.08 362.61,-426.5 413.07,-447.6 505.28,-486.16 537.12,-463.63 635.07,-483.6 642.25,-485.07 649.57,-486.61 656.96,-488.22"/>
<polygon fill="none" stroke="black" points="654.97,-498.53 686.54,-494.87 659.58,-478.04 654.97,-498.53"/>
</g>
<!-- 2&#45;&gt;6 -->
<g id="edge9" class="edge">
<title>2&#45;&gt;6</title>
<path fill="none" stroke="black" stroke-dasharray="5,2" d="M287.7,-359.33C373.04,-422.97 509.55,-519 638.07,-584.6 667.76,-599.76 700.23,-614.54 731.52,-627.95"/>
<polygon fill="black" stroke="black" points="730.17,-631.18 740.75,-631.88 732.92,-624.74 730.17,-631.18"/>
</g>
<!-- 2&#45;&gt;5 -->
<g id="edge8" class="edge">
<title>2&#45;&gt;5</title>
<path fill="none" stroke="black" stroke-dasharray="5,2" d="M243.53,-359.29C310.69,-460.54 453.15,-653.19 624.07,-755.2 656.37,-774.48 694.24,-788.04 730.87,-797.57"/>
<polygon fill="black" stroke="black" points="730.1,-800.99 740.65,-800.03 731.81,-794.2 730.1,-800.99"/>
</g>
<!-- 3 -->
<g id="node4" class="node">
<title>3</title>
<polygon fill="#f2f2f2" stroke="black" points="1221.7,-171.1 1221.7,-413.5 1616.43,-413.5 1616.43,-171.1 1221.7,-171.1"/>
<text text-anchor="middle" x="1419.07" y="-396.9" font-family="Times,serif" font-size="14.00">Cobot</text>
<text text-anchor="middle" x="1419.07" y="-380.1" font-family="Times,serif" font-size="14.00">contractsfactory&#45;fundamentalCobot.sol</text>
<polyline fill="none" stroke="black" points="1221.7,-371.9 1616.43,-371.9 "/>
<text text-anchor="start" x="1229.7" y="-355.3" font-family="Times,serif" font-size="14.00">Public:</text>
<text text-anchor="start" x="1229.7" y="-338.5" font-family="Times,serif" font-size="14.00"> &#160;&#160;cobotCollection: mapping(bytes32=&gt;string)</text>
<polyline fill="none" stroke="black" points="1221.7,-330.3 1616.43,-330.3 "/>
<text text-anchor="start" x="1229.7" y="-313.7" font-family="Times,serif" font-size="14.00">External:</text>
<text text-anchor="start" x="1229.7" y="-296.9" font-family="Times,serif" font-size="14.00"> &#160;&#160;&#160;setCobotID(_id: string, _name: string)</text>
<text text-anchor="start" x="1229.7" y="-280.1" font-family="Times,serif" font-size="14.00"> &#160;&#160;&#160;getLocationOfMapping(mappingSlot: uint, key: uint): (slot: uint)</text>
<text text-anchor="start" x="1229.7" y="-263.3" font-family="Times,serif" font-size="14.00">Public:</text>
<text text-anchor="start" x="1229.7" y="-246.5" font-family="Times,serif" font-size="14.00"> &#160;&#160;&#160;&lt;&lt;event&gt;&gt; Logging(description: string)</text>
<text text-anchor="start" x="1229.7" y="-229.7" font-family="Times,serif" font-size="14.00"> &#160;&#160;&#160;constructor()</text>
<text text-anchor="start" x="1229.7" y="-212.9" font-family="Times,serif" font-size="14.00"> &#160;&#160;&#160;getType(): Constants.ClassType</text>
<text text-anchor="start" x="1229.7" y="-196.1" font-family="Times,serif" font-size="14.00"> &#160;&#160;&#160;getCobotName(_id: string, _name: string): string</text>
<text text-anchor="start" x="1229.7" y="-179.3" font-family="Times,serif" font-size="14.00"> &#160;&#160;&#160;getHashValue(_id: string, _text: string): bytes32</text>
</g>
<!-- 3&#45;&gt;4 -->
<g id="edge10" class="edge">
<title>3&#45;&gt;4</title>
<path fill="none" stroke="black" d="M1273.55,-413.65C1253.97,-426.4 1233.55,-438.13 1213.07,-447.6 1151.53,-476.04 1079.87,-495.35 1015.65,-508.3"/>
<polygon fill="none" stroke="black" points="1013.27,-498.07 985.76,-513.99 1017.2,-518.7 1013.27,-498.07"/>
</g>
<!-- 3&#45;&gt;6 -->
<g id="edge12" class="edge">
<title>3&#45;&gt;6</title>
<path fill="none" stroke="black" stroke-dasharray="5,2" d="M1259.01,-413.6C1243.51,-425.13 1228,-436.61 1213.07,-447.6 1135.98,-504.33 1048.16,-567.76 982.36,-615.06"/>
<polygon fill="black" stroke="black" points="980.12,-612.36 974.04,-621.04 984.21,-618.04 980.12,-612.36"/>
</g>
<!-- 3&#45;&gt;5 -->
<g id="edge11" class="edge">
<title>3&#45;&gt;5</title>
<path fill="none" stroke="black" stroke-dasharray="5,2" d="M1354.74,-413.74C1293.63,-517.61 1192.67,-664.75 1068.07,-755.2 1049.75,-768.5 1028.47,-779.24 1006.98,-787.87"/>
<polygon fill="black" stroke="black" points="1005.5,-784.69 997.43,-791.56 1008.02,-791.22 1005.5,-784.69"/>
</g>
<!-- 4&#45;&gt;6 -->
<g id="edge14" class="edge">
<title>4&#45;&gt;6</title>
<path fill="none" stroke="black" stroke-dasharray="5,2" d="M851,-584.39C853.6,-592.97 856.36,-602.07 859.12,-611.17"/>
<polygon fill="black" stroke="black" points="855.85,-612.46 862.1,-621.02 862.55,-610.43 855.85,-612.46"/>
</g>
<!-- 4&#45;&gt;5 -->
<g id="edge13" class="edge">
<title>4&#45;&gt;5</title>
<path fill="none" stroke="black" stroke-dasharray="5,2" d="M759.36,-584.17C748.3,-594.78 738.51,-606.97 732.07,-620.6 706.51,-674.69 699.19,-705.22 732.07,-755.2 740.44,-767.93 751.91,-778.17 764.8,-786.4"/>
<polygon fill="black" stroke="black" points="763.07,-789.44 773.46,-791.52 766.63,-783.42 763.07,-789.44"/>
</g>
<!-- 6&#45;&gt;5 -->
<g id="edge15" class="edge">
<title>6&#45;&gt;5</title>
<path fill="none" stroke="black" d="M882.07,-754.78C882.07,-763.21 882.07,-771.63 882.07,-779.48"/>
<polygon fill="black" stroke="black" points="882.07,-779.67 886.07,-785.67 882.07,-791.67 878.07,-785.67 882.07,-779.67"/>
</g>
<!-- 7 -->
<g id="node8" class="node">
<title>7</title>
<polygon fill="#f2f2f2" stroke="black" points="748.69,-0.5 748.69,-100.5 1099.44,-100.5 1099.44,-0.5 748.69,-0.5"/>
<text text-anchor="middle" x="924.07" y="-83.9" font-family="Times,serif" font-size="14.00">RoleSubtypingFactoryBox</text>
<text text-anchor="middle" x="924.07" y="-67.1" font-family="Times,serif" font-size="14.00">contractsfactory&#45;fundamentalRoleSubtypingFactoryBox.sol</text>
<polyline fill="none" stroke="black" points="748.69,-58.9 1099.44,-58.9 "/>
<text text-anchor="start" x="756.69" y="-42.3" font-family="Times,serif" font-size="14.00">Public:</text>
<text text-anchor="start" x="756.69" y="-25.5" font-family="Times,serif" font-size="14.00"> &#160;&#160;&#160;&lt;&lt;payable&gt;&gt; assignmentOfRoles(): string[]</text>
<text text-anchor="start" x="756.69" y="-8.7" font-family="Times,serif" font-size="14.00"> &#160;&#160;&#160;&lt;&lt;event&gt;&gt; Logging(description: string)</text>
</g>
<!-- 7&#45;&gt;0 -->
<g id="edge17" class="edge">
<title>7&#45;&gt;0</title>
<path fill="none" stroke="black" stroke-dasharray="5,2" d="M857.02,-100.53C840.93,-112.4 823.85,-125.1 808.07,-137 806.18,-138.42 804.29,-139.85 802.38,-141.29"/>
<polygon fill="black" stroke="black" points="799.86,-138.81 794,-147.64 804.08,-144.39 799.86,-138.81"/>
</g>
<!-- 7&#45;&gt;1 -->
<g id="edge18" class="edge">
<title>7&#45;&gt;1</title>
<path fill="none" stroke="black" stroke-dasharray="5,2" d="M945.16,-100.61C955.88,-125.57 969.34,-156.9 982.23,-186.92"/>
<polygon fill="black" stroke="black" points="979.05,-188.38 986.21,-196.18 985.48,-185.61 979.05,-188.38"/>
</g>
<!-- 7&#45;&gt;2 -->
<g id="edge19" class="edge">
<title>7&#45;&gt;2</title>
<path fill="none" stroke="black" stroke-dasharray="5,2" d="M748.44,-60.71C647.17,-70.9 519.28,-92.27 413.07,-137 366.01,-156.82 319.57,-189.01 282.28,-218.88"/>
<polygon fill="black" stroke="black" points="280.03,-216.2 274.47,-225.22 284.44,-221.64 280.03,-216.2"/>
</g>
<!-- 7&#45;&gt;3 -->
<g id="edge20" class="edge">
<title>7&#45;&gt;3</title>
<path fill="none" stroke="black" stroke-dasharray="5,2" d="M1099.45,-92.52C1137.88,-104.47 1177.64,-119.22 1213.07,-137 1229.73,-145.37 1246.43,-155.1 1262.72,-165.54"/>
<polygon fill="black" stroke="black" points="1260.91,-168.54 1271.2,-171.06 1264.73,-162.67 1260.91,-168.54"/>
</g>
<!-- 7&#45;&gt;4 -->
<g id="edge16" class="edge">
<title>7&#45;&gt;4</title>
<path fill="none" stroke="black" stroke-dasharray="5,2" d="M864.63,-100.59C855.05,-111.51 846.51,-123.81 841.07,-137 794.88,-248.86 809.82,-394.1 823.68,-473.97"/>
<polygon fill="black" stroke="black" points="820.25,-474.63 825.45,-483.85 827.14,-473.39 820.25,-474.63"/>
</g>
<!-- 7&#45;&gt;5 -->
<g id="edge21" class="edge">
<title>7&#45;&gt;5</title>
<path fill="none" stroke="black" stroke-dasharray="5,2" d="M1099.59,-60.95C1295.79,-73.34 1590.7,-98.19 1625.07,-137 1716.58,-240.35 1690.95,-326.29 1625.07,-447.6 1507.07,-664.84 1214.17,-758.06 1033.36,-795.96"/>
<polygon fill="black" stroke="black" points="1032.58,-792.55 1023.49,-797.99 1033.99,-799.4 1032.58,-792.55"/>
</g>
</g>
</svg>
