<?xml version="1.0" encoding="UTF-8" standalone="no"?>
<!DOCTYPE svg PUBLIC "-//W3C//DTD SVG 1.1//EN"
 "http://www.w3.org/Graphics/SVG/1.1/DTD/svg11.dtd">
<!-- Generated by graphviz version 5.0.0 (20220707.1540)
 -->
<!-- Title: UmlClassDiagram Pages: 1 -->
<svg width="3448pt" height="1272pt"
 viewBox="0.00 0.00 3448.29 1272.40" xmlns="http://www.w3.org/2000/svg" xmlns:xlink="http://www.w3.org/1999/xlink">
<g id="graph0" class="graph" transform="scale(1 1) rotate(0) translate(4 1268.4)">
<title>UmlClassDiagram</title>
<polygon fill="white" stroke="transparent" points="-4,4 -4,-1268.4 3444.29,-1268.4 3444.29,4 -4,4"/>
<!-- 0 -->
<g id="node1" class="node">
<title>0</title>
<polygon fill="#f2f2f2" stroke="black" points="1378.12,-864.3 1378.12,-964.3 1709.93,-964.3 1709.93,-864.3 1378.12,-864.3"/>
<text text-anchor="middle" x="1544.03" y="-947.7" font-family="Times,serif" font-size="14.00">&lt;&lt;Abstract&gt;&gt;</text>
<text text-anchor="middle" x="1544.03" y="-930.9" font-family="Times,serif" font-size="14.00">FactoryBoxRoles</text>
<text text-anchor="middle" x="1544.03" y="-914.1" font-family="Times,serif" font-size="14.00">contractsfactory&#45;fundamentalFactoryBoxRoles.sol</text>
<polyline fill="none" stroke="black" points="1378.12,-905.9 1709.93,-905.9 "/>
<text text-anchor="start" x="1386.12" y="-889.3" font-family="Times,serif" font-size="14.00">Public:</text>
<text text-anchor="start" x="1386.12" y="-872.5" font-family="Times,serif" font-size="14.00"> &#160;&#160;&#160;&lt;&lt;abstract&gt;&gt; roleAssignment(): Constants.ClassType</text>
</g>
<!-- 15 -->
<g id="node15" class="node">
<title>15</title>
<polygon fill="#f2f2f2" stroke="black" points="1571.87,-1034.9 1571.87,-1168.5 1854.18,-1168.5 1854.18,-1034.9 1571.87,-1034.9"/>
<text text-anchor="middle" x="1713.03" y="-1151.9" font-family="Times,serif" font-size="14.00">&lt;&lt;Enum&gt;&gt;</text>
<text text-anchor="middle" x="1713.03" y="-1135.1" font-family="Times,serif" font-size="14.00">ClassType</text>
<text text-anchor="middle" x="1713.03" y="-1118.3" font-family="Times,serif" font-size="14.00">contractsfactory&#45;fundamentalRoleConstants.sol</text>
<polyline fill="none" stroke="black" points="1571.87,-1110.1 1854.18,-1110.1 "/>
<text text-anchor="start" x="1579.87" y="-1093.5" font-family="Times,serif" font-size="14.00">ProductionConfigurator: 0</text>
<text text-anchor="start" x="1579.87" y="-1076.7" font-family="Times,serif" font-size="14.00">ProductionController: 1</text>
<text text-anchor="start" x="1579.87" y="-1059.9" font-family="Times,serif" font-size="14.00">MaintenanceAgent: 2</text>
<text text-anchor="start" x="1579.87" y="-1043.1" font-family="Times,serif" font-size="14.00">RobotArm: 3</text>
</g>
<!-- 0&#45;&gt;15 -->
<g id="edge2" class="edge">
<title>0&#45;&gt;15</title>
<path fill="none" stroke="black" stroke-dasharray="5,2" d="M1588.87,-964.5C1606.45,-983.79 1627,-1006.32 1646.26,-1027.45"/>
<polygon fill="black" stroke="black" points="1643.68,-1029.82 1653.01,-1034.86 1648.86,-1025.11 1643.68,-1029.82"/>
</g>
<!-- 14 -->
<g id="node16" class="node">
<title>14</title>
<polygon fill="#f2f2f2" stroke="black" points="1571.87,-1205.5 1571.87,-1263.9 1854.18,-1263.9 1854.18,-1205.5 1571.87,-1205.5"/>
<text text-anchor="middle" x="1713.03" y="-1247.3" font-family="Times,serif" font-size="14.00">&lt;&lt;Library&gt;&gt;</text>
<text text-anchor="middle" x="1713.03" y="-1230.5" font-family="Times,serif" font-size="14.00">Constants</text>
<text text-anchor="middle" x="1713.03" y="-1213.7" font-family="Times,serif" font-size="14.00">contractsfactory&#45;fundamentalRoleConstants.sol</text>
</g>
<!-- 0&#45;&gt;14 -->
<g id="edge1" class="edge">
<title>0&#45;&gt;14</title>
<path fill="none" stroke="black" stroke-dasharray="5,2" d="M1533.72,-964.68C1525.15,-1019.81 1520.35,-1109.11 1563.03,-1169 1572.14,-1181.79 1584.33,-1192.07 1597.83,-1200.34"/>
<polygon fill="black" stroke="black" points="1596.46,-1203.58 1606.88,-1205.48 1599.92,-1197.49 1596.46,-1203.58"/>
</g>
<!-- 2 -->
<g id="node2" class="node">
<title>2</title>
<polygon fill="#f2f2f2" stroke="black" points="2009.33,-830.7 2009.33,-997.9 2364.72,-997.9 2364.72,-830.7 2009.33,-830.7"/>
<text text-anchor="middle" x="2187.03" y="-981.3" font-family="Times,serif" font-size="14.00">&lt;&lt;Enum&gt;&gt;</text>
<text text-anchor="middle" x="2187.03" y="-964.5" font-family="Times,serif" font-size="14.00">MachineOperation</text>
<text text-anchor="middle" x="2187.03" y="-947.7" font-family="Times,serif" font-size="14.00">contractsfactory&#45;fundamentalMachineOperationConstant.sol</text>
<polyline fill="none" stroke="black" points="2009.33,-939.5 2364.72,-939.5 "/>
<text text-anchor="start" x="2017.33" y="-922.9" font-family="Times,serif" font-size="14.00">Drilling: 0</text>
<text text-anchor="start" x="2017.33" y="-906.1" font-family="Times,serif" font-size="14.00">SlotMilling: 1</text>
<text text-anchor="start" x="2017.33" y="-889.3" font-family="Times,serif" font-size="14.00">SlabMilling: 2</text>
<text text-anchor="start" x="2017.33" y="-872.5" font-family="Times,serif" font-size="14.00">StepMilling: 3</text>
<text text-anchor="start" x="2017.33" y="-855.7" font-family="Times,serif" font-size="14.00">Shaping: 4</text>
<text text-anchor="start" x="2017.33" y="-838.9" font-family="Times,serif" font-size="14.00">Reaming: 5</text>
</g>
<!-- 1 -->
<g id="node3" class="node">
<title>1</title>
<polygon fill="#f2f2f2" stroke="black" points="2009.33,-1072.5 2009.33,-1130.9 2364.72,-1130.9 2364.72,-1072.5 2009.33,-1072.5"/>
<text text-anchor="middle" x="2187.03" y="-1114.3" font-family="Times,serif" font-size="14.00">&lt;&lt;Library&gt;&gt;</text>
<text text-anchor="middle" x="2187.03" y="-1097.5" font-family="Times,serif" font-size="14.00">MachineOperationConstant</text>
<text text-anchor="middle" x="2187.03" y="-1080.7" font-family="Times,serif" font-size="14.00">contractsfactory&#45;fundamentalMachineOperationConstant.sol</text>
</g>
<!-- 2&#45;&gt;1 -->
<g id="edge3" class="edge">
<title>2&#45;&gt;1</title>
<path fill="none" stroke="black" d="M2187.03,-997.97C2187.03,-1019.52 2187.03,-1041.8 2187.03,-1060.08"/>
<polygon fill="black" stroke="black" points="2187.03,-1060.33 2191.03,-1066.33 2187.03,-1072.33 2183.03,-1066.33 2187.03,-1060.33"/>
</g>
<!-- 4 -->
<g id="node4" class="node">
<title>4</title>
<polygon fill="#f2f2f2" stroke="black" points="364.45,-1043.3 364.45,-1160.1 671.6,-1160.1 671.6,-1043.3 364.45,-1043.3"/>
<text text-anchor="middle" x="518.03" y="-1143.5" font-family="Times,serif" font-size="14.00">&lt;&lt;Enum&gt;&gt;</text>
<text text-anchor="middle" x="518.03" y="-1126.7" font-family="Times,serif" font-size="14.00">MaintenanceTaskStatus</text>
<text text-anchor="middle" x="518.03" y="-1109.9" font-family="Times,serif" font-size="14.00">contractsfactory&#45;fundamentalMaintenanceAgent.sol</text>
<polyline fill="none" stroke="black" points="364.45,-1101.7 671.6,-1101.7 "/>
<text text-anchor="start" x="372.45" y="-1085.1" font-family="Times,serif" font-size="14.00">Open: 0</text>
<text text-anchor="start" x="372.45" y="-1068.3" font-family="Times,serif" font-size="14.00">InProgress: 1</text>
<text text-anchor="start" x="372.45" y="-1051.5" font-family="Times,serif" font-size="14.00">Completed: 2</text>
</g>
<!-- 3 -->
<g id="node6" class="node">
<title>3</title>
<polygon fill="#f2f2f2" stroke="black" points="34.55,-467.3 34.55,-793.7 923.5,-793.7 923.5,-467.3 34.55,-467.3"/>
<text text-anchor="middle" x="479.03" y="-777.1" font-family="Times,serif" font-size="14.00">MaintenanceAgent</text>
<text text-anchor="middle" x="479.03" y="-760.3" font-family="Times,serif" font-size="14.00">contractsfactory&#45;fundamentalMaintenanceAgent.sol</text>
<polyline fill="none" stroke="black" points="34.55,-752.1 923.5,-752.1 "/>
<text text-anchor="start" x="42.55" y="-735.5" font-family="Times,serif" font-size="14.00">Public:</text>
<text text-anchor="start" x="42.55" y="-718.7" font-family="Times,serif" font-size="14.00"> &#160;&#160;owner: address</text>
<text text-anchor="start" x="42.55" y="-701.9" font-family="Times,serif" font-size="14.00"> &#160;&#160;maintenanceTasks: mapping(uint256=&gt;MaintenanceTask)</text>
<text text-anchor="start" x="42.55" y="-685.1" font-family="Times,serif" font-size="14.00"> &#160;&#160;latestTaskID: uint256</text>
<polyline fill="none" stroke="black" points="34.55,-676.9 923.5,-676.9 "/>
<text text-anchor="start" x="42.55" y="-660.3" font-family="Times,serif" font-size="14.00">External:</text>
<text text-anchor="start" x="42.55" y="-643.5" font-family="Times,serif" font-size="14.00"> &#160;&#160;&#160;logMaintenanceTask(taskDescription: string) &lt;&lt;onlyOwner&gt;&gt;</text>
<text text-anchor="start" x="42.55" y="-626.7" font-family="Times,serif" font-size="14.00"> &#160;&#160;&#160;assignTaskToAgent(taskID: uint, assignedAgent: address) &lt;&lt;onlyOwner&gt;&gt;</text>
<text text-anchor="start" x="42.55" y="-609.9" font-family="Times,serif" font-size="14.00"> &#160;&#160;&#160;completeTask(taskID: uint) &lt;&lt;onlyOwner&gt;&gt;</text>
<text text-anchor="start" x="42.55" y="-593.1" font-family="Times,serif" font-size="14.00"> &#160;&#160;&#160;getTaskDetails(taskID: uint): (string, address, MaintenanceTaskStatus, uint)</text>
<text text-anchor="start" x="42.55" y="-576.3" font-family="Times,serif" font-size="14.00">Public:</text>
<text text-anchor="start" x="42.55" y="-559.5" font-family="Times,serif" font-size="14.00"> &#160;&#160;&#160;&lt;&lt;event&gt;&gt; Logging(description: string, problemDefinition: string)</text>
<text text-anchor="start" x="42.55" y="-542.7" font-family="Times,serif" font-size="14.00"> &#160;&#160;&#160;&lt;&lt;event&gt;&gt; TaskLogged(taskID: uint, taskDescription: string, assignedAgent: address, maintenanceTaskStatus: MaintenanceTaskStatus, timestamp: uint)</text>
<text text-anchor="start" x="42.55" y="-525.9" font-family="Times,serif" font-size="14.00"> &#160;&#160;&#160;&lt;&lt;modifier&gt;&gt; onlyOwner()</text>
<text text-anchor="start" x="42.55" y="-509.1" font-family="Times,serif" font-size="14.00"> &#160;&#160;&#160;constructor()</text>
<text text-anchor="start" x="42.55" y="-492.3" font-family="Times,serif" font-size="14.00"> &#160;&#160;&#160;assignLogging(_description: string, _problemDefinition: string)</text>
<text text-anchor="start" x="42.55" y="-475.5" font-family="Times,serif" font-size="14.00"> &#160;&#160;&#160;roleAssignment(): Constants.ClassType</text>
</g>
<!-- 4&#45;&gt;3 -->
<g id="edge5" class="edge">
<title>4&#45;&gt;3</title>
<path fill="none" stroke="black" d="M517.86,-1043.13C514.82,-984.18 507.6,-889.59 500.07,-805.95"/>
<polygon fill="black" stroke="black" points="500.07,-805.91 495.55,-800.29 498.99,-793.96 503.51,-799.57 500.07,-805.91"/>
</g>
<!-- 5 -->
<g id="node5" class="node">
<title>5</title>
<polygon fill="#f2f2f2" stroke="black" points="173.45,-839.1 173.45,-989.5 480.6,-989.5 480.6,-839.1 173.45,-839.1"/>
<text text-anchor="middle" x="327.03" y="-972.9" font-family="Times,serif" font-size="14.00">&lt;&lt;Struct&gt;&gt;</text>
<text text-anchor="middle" x="327.03" y="-956.1" font-family="Times,serif" font-size="14.00">MaintenanceTask</text>
<text text-anchor="middle" x="327.03" y="-939.3" font-family="Times,serif" font-size="14.00">contractsfactory&#45;fundamentalMaintenanceAgent.sol</text>
<polyline fill="none" stroke="black" points="173.45,-931.1 480.6,-931.1 "/>
<text text-anchor="start" x="181.45" y="-914.5" font-family="Times,serif" font-size="14.00">taskID: uint</text>
<text text-anchor="start" x="181.45" y="-897.7" font-family="Times,serif" font-size="14.00">taskDescription: string</text>
<text text-anchor="start" x="181.45" y="-880.9" font-family="Times,serif" font-size="14.00">assignedAgent: address</text>
<text text-anchor="start" x="181.45" y="-864.1" font-family="Times,serif" font-size="14.00">status: MaintenanceTaskStatus</text>
<text text-anchor="start" x="181.45" y="-847.3" font-family="Times,serif" font-size="14.00">timestamp: uint</text>
</g>
<!-- 5&#45;&gt;4 -->
<g id="edge4" class="edge">
<title>5&#45;&gt;4</title>
<path fill="none" stroke="black" stroke-dasharray="5,2" d="M403.61,-989.64C419.4,-1004.96 435.9,-1020.99 451.31,-1035.94"/>
<polygon fill="black" stroke="black" points="449.16,-1038.73 458.77,-1043.18 454.03,-1033.71 449.16,-1038.73"/>
</g>
<!-- 5&#45;&gt;3 -->
<g id="edge6" class="edge">
<title>5&#45;&gt;3</title>
<path fill="none" stroke="black" d="M373.19,-838.89C379.35,-827.96 385.81,-816.33 392.37,-804.37"/>
<polygon fill="black" stroke="black" points="392.4,-804.32 391.78,-797.13 398.17,-793.79 398.79,-800.98 392.4,-804.32"/>
</g>
<!-- 3&#45;&gt;0 -->
<g id="edge7" class="edge">
<title>3&#45;&gt;0</title>
<path fill="none" stroke="black" d="M923.51,-792.01C926.69,-792.76 929.86,-793.49 933.03,-794.2 1089.88,-829.59 1135.75,-796.73 1293.03,-830.2 1323.31,-836.64 1355.05,-845.46 1385.39,-854.95"/>
<polygon fill="none" stroke="black" points="1382.18,-864.95 1413.96,-864.2 1388.65,-844.97 1382.18,-864.95"/>
</g>
<!-- 3&#45;&gt;4 -->
<g id="edge9" class="edge">
<title>3&#45;&gt;4</title>
<path fill="none" stroke="black" stroke-dasharray="5,2" d="M486.07,-793.96C492.19,-875.85 500.6,-970.73 507.49,-1033.03"/>
<polygon fill="black" stroke="black" points="504.03,-1033.58 508.62,-1043.13 510.98,-1032.8 504.03,-1033.58"/>
</g>
<!-- 3&#45;&gt;5 -->
<g id="edge8" class="edge">
<title>3&#45;&gt;5</title>
<path fill="none" stroke="black" d="M384.81,-793.79C378.22,-806.15 371.83,-818.28 365.84,-829.8"/>
<polygon fill="black" stroke="black" points="362.62,-828.4 361.13,-838.89 368.84,-831.62 362.62,-828.4"/>
</g>
<!-- 3&#45;&gt;15 -->
<g id="edge11" class="edge">
<title>3&#45;&gt;15</title>
<path fill="none" stroke="black" stroke-dasharray="5,2" d="M687.3,-793.93C811.53,-890.51 946.8,-994.96 955.03,-998.4 1009.7,-1021.22 1356.47,-1061.93 1561.55,-1084.51"/>
<polygon fill="black" stroke="black" points="1561.19,-1087.99 1571.51,-1085.6 1561.95,-1081.03 1561.19,-1087.99"/>
</g>
<!-- 3&#45;&gt;14 -->
<g id="edge10" class="edge">
<title>3&#45;&gt;14</title>
<path fill="none" stroke="black" stroke-dasharray="5,2" d="M561.02,-794.05C640.1,-950.13 749.13,-1163.18 758.03,-1169 823.41,-1211.82 1308.51,-1226.65 1561.08,-1231.5"/>
<polygon fill="black" stroke="black" points="1561.38,-1235.01 1571.45,-1231.69 1561.52,-1228.01 1561.38,-1235.01"/>
</g>
<!-- 7 -->
<g id="node7" class="node">
<title>7</title>
<polygon fill="#f2f2f2" stroke="black" points="2382.82,-847.5 2382.82,-981.1 2717.23,-981.1 2717.23,-847.5 2382.82,-847.5"/>
<text text-anchor="middle" x="2550.03" y="-964.5" font-family="Times,serif" font-size="14.00">&lt;&lt;Struct&gt;&gt;</text>
<text text-anchor="middle" x="2550.03" y="-947.7" font-family="Times,serif" font-size="14.00">ProductionConfiguraton</text>
<text text-anchor="middle" x="2550.03" y="-930.9" font-family="Times,serif" font-size="14.00">contractsfactory&#45;fundamentalProductionConfigurator.sol</text>
<polyline fill="none" stroke="black" points="2382.82,-922.7 2717.23,-922.7 "/>
<text text-anchor="start" x="2390.82" y="-906.1" font-family="Times,serif" font-size="14.00">configID: uint</text>
<text text-anchor="start" x="2390.82" y="-889.3" font-family="Times,serif" font-size="14.00">processDescription: string</text>
<text text-anchor="start" x="2390.82" y="-872.5" font-family="Times,serif" font-size="14.00">resourceAllocation: uint</text>
<text text-anchor="start" x="2390.82" y="-855.7" font-family="Times,serif" font-size="14.00">timestamp: uint</text>
</g>
<!-- 6 -->
<g id="node8" class="node">
<title>6</title>
<polygon fill="#f2f2f2" stroke="black" points="2180.65,-467.3 2180.65,-793.7 2919.4,-793.7 2919.4,-467.3 2180.65,-467.3"/>
<text text-anchor="middle" x="2550.03" y="-777.1" font-family="Times,serif" font-size="14.00">ProductionConfigurator</text>
<text text-anchor="middle" x="2550.03" y="-760.3" font-family="Times,serif" font-size="14.00">contractsfactory&#45;fundamentalProductionConfigurator.sol</text>
<polyline fill="none" stroke="black" points="2180.65,-752.1 2919.4,-752.1 "/>
<text text-anchor="start" x="2188.65" y="-735.5" font-family="Times,serif" font-size="14.00">Public:</text>
<text text-anchor="start" x="2188.65" y="-718.7" font-family="Times,serif" font-size="14.00"> &#160;&#160;machineID: string</text>
<text text-anchor="start" x="2188.65" y="-701.9" font-family="Times,serif" font-size="14.00"> &#160;&#160;machineProcessConfiguration: mapping(string=&gt;MachineOperationConstant.MachineOperation)</text>
<text text-anchor="start" x="2188.65" y="-685.1" font-family="Times,serif" font-size="14.00"> &#160;&#160;productionConfigurations: mapping(uint=&gt;ProductionConfiguraton)</text>
<text text-anchor="start" x="2188.65" y="-668.3" font-family="Times,serif" font-size="14.00"> &#160;&#160;latestConfigID: uint</text>
<text text-anchor="start" x="2188.65" y="-651.5" font-family="Times,serif" font-size="14.00"> &#160;&#160;owner: address</text>
<polyline fill="none" stroke="black" points="2180.65,-643.3 2919.4,-643.3 "/>
<text text-anchor="start" x="2188.65" y="-626.7" font-family="Times,serif" font-size="14.00">External:</text>
<text text-anchor="start" x="2188.65" y="-609.9" font-family="Times,serif" font-size="14.00"> &#160;&#160;&#160;configureProduction(description: string, resourceAllocation: uint)</text>
<text text-anchor="start" x="2188.65" y="-593.1" font-family="Times,serif" font-size="14.00"> &#160;&#160;&#160;getConfigurationDetails(configId: uint): (string, uint, uint)</text>
<text text-anchor="start" x="2188.65" y="-576.3" font-family="Times,serif" font-size="14.00">Public:</text>
<text text-anchor="start" x="2188.65" y="-559.5" font-family="Times,serif" font-size="14.00"> &#160;&#160;&#160;&lt;&lt;event&gt;&gt; ProductionConfigured(configID: uint, processDescription: string, resourceAllocation: uint, timestamp: uint)</text>
<text text-anchor="start" x="2188.65" y="-542.7" font-family="Times,serif" font-size="14.00"> &#160;&#160;&#160;&lt;&lt;modifier&gt;&gt; onlyOwner()</text>
<text text-anchor="start" x="2188.65" y="-525.9" font-family="Times,serif" font-size="14.00"> &#160;&#160;&#160;constructor()</text>
<text text-anchor="start" x="2188.65" y="-509.1" font-family="Times,serif" font-size="14.00"> &#160;&#160;&#160;roleAssignment(): Constants.ClassType</text>
<text text-anchor="start" x="2188.65" y="-492.3" font-family="Times,serif" font-size="14.00"> &#160;&#160;&#160;setMachineProcessConfiguration(machineAssetID: string, machineOperation: MachineOperationConstant.MachineOperation)</text>
<text text-anchor="start" x="2188.65" y="-475.5" font-family="Times,serif" font-size="14.00"> &#160;&#160;&#160;getMachineProcessConfiguration(name: string): MachineOperationConstant.MachineOperation</text>
</g>
<!-- 7&#45;&gt;6 -->
<g id="edge12" class="edge">
<title>7&#45;&gt;6</title>
<path fill="none" stroke="black" d="M2555.84,-847.36C2556.2,-834.54 2556.45,-820.56 2556.6,-806.07"/>
<polygon fill="black" stroke="black" points="2556.6,-805.79 2552.65,-799.76 2556.71,-793.79 2560.65,-799.83 2556.6,-805.79"/>
</g>
<!-- 6&#45;&gt;0 -->
<g id="edge13" class="edge">
<title>6&#45;&gt;0</title>
<path fill="none" stroke="black" d="M2180.4,-791.7C2177.27,-792.56 2174.14,-793.39 2171.03,-794.2 2020.97,-833.23 1976.11,-800.01 1824.03,-830.2 1789.91,-836.97 1753.97,-846.08 1719.63,-855.79"/>
<polygon fill="none" stroke="black" points="1716.47,-845.77 1690.6,-864.24 1722.34,-865.94 1716.47,-845.77"/>
</g>
<!-- 6&#45;&gt;2 -->
<g id="edge18" class="edge">
<title>6&#45;&gt;2</title>
<path fill="none" stroke="black" stroke-dasharray="5,2" d="M2340.97,-793.79C2327.65,-804.13 2314.54,-814.31 2301.93,-824.1"/>
<polygon fill="black" stroke="black" points="2299.46,-821.58 2293.71,-830.48 2303.76,-827.11 2299.46,-821.58"/>
</g>
<!-- 6&#45;&gt;1 -->
<g id="edge17" class="edge">
<title>6&#45;&gt;1</title>
<path fill="none" stroke="black" stroke-dasharray="5,2" d="M2704.21,-794.07C2749.83,-861.69 2775.81,-938.27 2726.03,-998.4 2681.65,-1051.99 2512.39,-1077.73 2375.23,-1089.95"/>
<polygon fill="black" stroke="black" points="2374.65,-1086.49 2364.99,-1090.85 2375.26,-1093.47 2374.65,-1086.49"/>
</g>
<!-- 6&#45;&gt;7 -->
<g id="edge14" class="edge">
<title>6&#45;&gt;7</title>
<path fill="none" stroke="black" d="M2543.35,-793.79C2543.44,-808.81 2543.65,-823.49 2543.95,-837.14"/>
<polygon fill="black" stroke="black" points="2540.46,-837.45 2544.21,-847.36 2547.46,-837.27 2540.46,-837.45"/>
</g>
<!-- 6&#45;&gt;15 -->
<g id="edge16" class="edge">
<title>6&#45;&gt;15</title>
<path fill="none" stroke="black" stroke-dasharray="5,2" d="M2180.53,-791.15C2177.35,-792.18 2174.18,-793.2 2171.03,-794.2 2096.98,-817.63 2068.86,-794.22 2000.03,-830.2 1907.79,-878.41 1823.91,-964.73 1770.97,-1026.91"/>
<polygon fill="black" stroke="black" points="1768.13,-1024.85 1764.35,-1034.75 1773.48,-1029.37 1768.13,-1024.85"/>
</g>
<!-- 6&#45;&gt;14 -->
<g id="edge15" class="edge">
<title>6&#45;&gt;14</title>
<path fill="none" stroke="black" stroke-dasharray="5,2" d="M2733.94,-793.93C2741.3,-805.59 2747.77,-817.7 2753.03,-830.2 2782,-899.11 2793.61,-935.62 2753.03,-998.4 2652.73,-1153.53 2552.53,-1121.46 2374.03,-1169 2203.23,-1214.48 1999.98,-1228.7 1864.37,-1232.78"/>
<polygon fill="black" stroke="black" points="1864.22,-1229.28 1854.32,-1233.07 1864.42,-1236.28 1864.22,-1229.28"/>
</g>
<!-- 9 -->
<g id="node9" class="node">
<title>9</title>
<polygon fill="#f2f2f2" stroke="black" points="767.21,-1043.3 767.21,-1160.1 1086.84,-1160.1 1086.84,-1043.3 767.21,-1043.3"/>
<text text-anchor="middle" x="927.03" y="-1143.5" font-family="Times,serif" font-size="14.00">&lt;&lt;Enum&gt;&gt;</text>
<text text-anchor="middle" x="927.03" y="-1126.7" font-family="Times,serif" font-size="14.00">QualityStatus</text>
<text text-anchor="middle" x="927.03" y="-1109.9" font-family="Times,serif" font-size="14.00">contractsfactory&#45;fundamentalProductionController.sol</text>
<polyline fill="none" stroke="black" points="767.21,-1101.7 1086.84,-1101.7 "/>
<text text-anchor="start" x="775.21" y="-1085.1" font-family="Times,serif" font-size="14.00">Pending: 0</text>
<text text-anchor="start" x="775.21" y="-1068.3" font-family="Times,serif" font-size="14.00">Approved: 1</text>
<text text-anchor="start" x="775.21" y="-1051.5" font-family="Times,serif" font-size="14.00">Rejected: 2</text>
</g>
<!-- 8 -->
<g id="node11" class="node">
<title>8</title>
<polygon fill="#f2f2f2" stroke="black" points="941.66,-492.5 941.66,-768.5 1478.39,-768.5 1478.39,-492.5 941.66,-492.5"/>
<text text-anchor="middle" x="1210.03" y="-751.9" font-family="Times,serif" font-size="14.00">ProductionController</text>
<text text-anchor="middle" x="1210.03" y="-735.1" font-family="Times,serif" font-size="14.00">contractsfactory&#45;fundamentalProductionController.sol</text>
<polyline fill="none" stroke="black" points="941.66,-726.9 1478.39,-726.9 "/>
<text text-anchor="start" x="949.66" y="-710.3" font-family="Times,serif" font-size="14.00">Public:</text>
<text text-anchor="start" x="949.66" y="-693.5" font-family="Times,serif" font-size="14.00"> &#160;&#160;productionProcess: mapping(uint=&gt;ProductionProcess)</text>
<text text-anchor="start" x="949.66" y="-676.7" font-family="Times,serif" font-size="14.00"> &#160;&#160;latestProcessId: uint</text>
<polyline fill="none" stroke="black" points="941.66,-668.5 1478.39,-668.5 "/>
<text text-anchor="start" x="949.66" y="-651.9" font-family="Times,serif" font-size="14.00">External:</text>
<text text-anchor="start" x="949.66" y="-635.1" font-family="Times,serif" font-size="14.00"> &#160;&#160;&#160;startProductionProcess(description: string)</text>
<text text-anchor="start" x="949.66" y="-618.3" font-family="Times,serif" font-size="14.00"> &#160;&#160;&#160;checkProductionQuality(processId: uint256, newStatus: QualityStatus)</text>
<text text-anchor="start" x="949.66" y="-601.5" font-family="Times,serif" font-size="14.00"> &#160;&#160;&#160;getProcessDetails(processId: uint): (string, QualityStatus, uint)</text>
<text text-anchor="start" x="949.66" y="-584.7" font-family="Times,serif" font-size="14.00">Public:</text>
<text text-anchor="start" x="949.66" y="-567.9" font-family="Times,serif" font-size="14.00"> &#160;&#160;&#160;&lt;&lt;event&gt;&gt; Logging(description: string)</text>
<text text-anchor="start" x="949.66" y="-551.1" font-family="Times,serif" font-size="14.00"> &#160;&#160;&#160;&lt;&lt;event&gt;&gt; ProcessStarted(processId: uint, description: string, timestamp: uint)</text>
<text text-anchor="start" x="949.66" y="-534.3" font-family="Times,serif" font-size="14.00"> &#160;&#160;&#160;&lt;&lt;event&gt;&gt; QualityChecked(processId: uint, qualityStatus: QualityStatus, timestamp: uint)</text>
<text text-anchor="start" x="949.66" y="-517.5" font-family="Times,serif" font-size="14.00"> &#160;&#160;&#160;constructor()</text>
<text text-anchor="start" x="949.66" y="-500.7" font-family="Times,serif" font-size="14.00"> &#160;&#160;&#160;roleAssignment(): Constants.ClassType</text>
</g>
<!-- 9&#45;&gt;8 -->
<g id="edge20" class="edge">
<title>9&#45;&gt;8</title>
<path fill="none" stroke="black" d="M927.25,-1043.26C925.62,-985.7 927.36,-896.38 964.03,-830.2 974.41,-811.46 987.37,-793.89 1001.88,-777.55"/>
<polygon fill="black" stroke="black" points="1001.97,-777.45 1003.08,-770.32 1010.09,-768.61 1008.98,-775.73 1001.97,-777.45"/>
</g>
<!-- 10 -->
<g id="node10" class="node">
<title>10</title>
<polygon fill="#f2f2f2" stroke="black" points="964.21,-847.5 964.21,-981.1 1283.84,-981.1 1283.84,-847.5 964.21,-847.5"/>
<text text-anchor="middle" x="1124.03" y="-964.5" font-family="Times,serif" font-size="14.00">&lt;&lt;Struct&gt;&gt;</text>
<text text-anchor="middle" x="1124.03" y="-947.7" font-family="Times,serif" font-size="14.00">ProductionProcess</text>
<text text-anchor="middle" x="1124.03" y="-930.9" font-family="Times,serif" font-size="14.00">contractsfactory&#45;fundamentalProductionController.sol</text>
<polyline fill="none" stroke="black" points="964.21,-922.7 1283.84,-922.7 "/>
<text text-anchor="start" x="972.21" y="-906.1" font-family="Times,serif" font-size="14.00">processId: uint256</text>
<text text-anchor="start" x="972.21" y="-889.3" font-family="Times,serif" font-size="14.00">description: string</text>
<text text-anchor="start" x="972.21" y="-872.5" font-family="Times,serif" font-size="14.00">qualityStatus: QualityStatus</text>
<text text-anchor="start" x="972.21" y="-855.7" font-family="Times,serif" font-size="14.00">timestamp: uint</text>
</g>
<!-- 10&#45;&gt;9 -->
<g id="edge19" class="edge">
<title>10&#45;&gt;9</title>
<path fill="none" stroke="black" stroke-dasharray="5,2" d="M1054.02,-981.19C1035.08,-999.01 1014.6,-1018.29 995.73,-1036.04"/>
<polygon fill="black" stroke="black" points="993.19,-1033.62 988.31,-1043.03 997.99,-1038.72 993.19,-1033.62"/>
</g>
<!-- 10&#45;&gt;8 -->
<g id="edge21" class="edge">
<title>10&#45;&gt;8</title>
<path fill="none" stroke="black" d="M1149.96,-847.39C1156.72,-827.07 1164.12,-803.81 1171.37,-780.26"/>
<polygon fill="black" stroke="black" points="1171.4,-780.16 1169.33,-773.25 1174.91,-768.69 1176.98,-775.59 1171.4,-780.16"/>
</g>
<!-- 8&#45;&gt;0 -->
<g id="edge22" class="edge">
<title>8&#45;&gt;0</title>
<path fill="none" stroke="black" d="M1372.62,-768.69C1403.77,-794.97 1435.13,-821.42 1462.35,-844.39"/>
<polygon fill="none" stroke="black" points="1455.88,-852.66 1485.58,-863.99 1469.42,-836.61 1455.88,-852.66"/>
</g>
<!-- 8&#45;&gt;9 -->
<g id="edge24" class="edge">
<title>8&#45;&gt;9</title>
<path fill="none" stroke="black" stroke-dasharray="5,2" d="M992.19,-768.61C974.26,-787.42 958.33,-807.99 946.03,-830.2 911.43,-892.63 907.93,-975.65 912.72,-1033.18"/>
<polygon fill="black" stroke="black" points="909.24,-1033.63 913.66,-1043.26 916.21,-1032.97 909.24,-1033.63"/>
</g>
<!-- 8&#45;&gt;10 -->
<g id="edge23" class="edge">
<title>8&#45;&gt;10</title>
<path fill="none" stroke="black" d="M1161.41,-768.69C1154.16,-792.37 1147.11,-816.19 1141.1,-837.48"/>
<polygon fill="black" stroke="black" points="1137.65,-836.82 1138.32,-847.39 1144.39,-838.7 1137.65,-836.82"/>
</g>
<!-- 8&#45;&gt;15 -->
<g id="edge26" class="edge">
<title>8&#45;&gt;15</title>
<path fill="none" stroke="black" stroke-dasharray="5,2" d="M1296.69,-768.76C1307.48,-788.92 1317.65,-809.78 1326.03,-830.2 1355.31,-901.58 1315.53,-942.79 1369.03,-998.4 1419.15,-1050.51 1494.52,-1076.39 1561.94,-1089.13"/>
<polygon fill="black" stroke="black" points="1561.36,-1092.58 1571.83,-1090.91 1562.61,-1085.69 1561.36,-1092.58"/>
</g>
<!-- 8&#45;&gt;14 -->
<g id="edge25" class="edge">
<title>8&#45;&gt;14</title>
<path fill="none" stroke="black" stroke-dasharray="5,2" d="M1271.5,-768.61C1279.42,-789.02 1286.89,-809.99 1293.03,-830.2 1315.15,-903.1 1287.82,-932.49 1326.03,-998.4 1384.12,-1098.6 1422.57,-1111.35 1523.03,-1169 1545.81,-1182.07 1571.64,-1193.05 1596.76,-1202.05"/>
<polygon fill="black" stroke="black" points="1595.75,-1205.4 1606.34,-1205.39 1598.06,-1198.79 1595.75,-1205.4"/>
</g>
<!-- 12 -->
<g id="node12" class="node">
<title>12</title>
<polygon fill="#f2f2f2" stroke="black" points="3179.76,-855.9 3179.76,-972.7 3440.29,-972.7 3440.29,-855.9 3179.76,-855.9"/>
<text text-anchor="middle" x="3310.03" y="-956.1" font-family="Times,serif" font-size="14.00">&lt;&lt;Enum&gt;&gt;</text>
<text text-anchor="middle" x="3310.03" y="-939.3" font-family="Times,serif" font-size="14.00">Partstatus</text>
<text text-anchor="middle" x="3310.03" y="-922.5" font-family="Times,serif" font-size="14.00">contractsfactory&#45;fundamentalRobotArm.sol</text>
<polyline fill="none" stroke="black" points="3179.76,-914.3 3440.29,-914.3 "/>
<text text-anchor="start" x="3187.76" y="-897.7" font-family="Times,serif" font-size="14.00">Ok: 0</text>
<text text-anchor="start" x="3187.76" y="-880.9" font-family="Times,serif" font-size="14.00">NeedsMaintenance: 1</text>
<text text-anchor="start" x="3187.76" y="-864.1" font-family="Times,serif" font-size="14.00">NeedsReplacement: 2</text>
</g>
<!-- 11 -->
<g id="node14" class="node">
<title>11</title>
<polygon fill="#f2f2f2" stroke="black" points="2716.37,-137.5 2716.37,-430.3 3215.68,-430.3 3215.68,-137.5 2716.37,-137.5"/>
<text text-anchor="middle" x="2966.03" y="-413.7" font-family="Times,serif" font-size="14.00">RobotArm</text>
<text text-anchor="middle" x="2966.03" y="-396.9" font-family="Times,serif" font-size="14.00">contractsfactory&#45;fundamentalRobotArm.sol</text>
<polyline fill="none" stroke="black" points="2716.37,-388.7 3215.68,-388.7 "/>
<text text-anchor="start" x="2724.37" y="-372.1" font-family="Times,serif" font-size="14.00">Public:</text>
<text text-anchor="start" x="2724.37" y="-355.3" font-family="Times,serif" font-size="14.00"> &#160;&#160;robotArmCollection: mapping(bytes32=&gt;string)</text>
<text text-anchor="start" x="2724.37" y="-338.5" font-family="Times,serif" font-size="14.00"> &#160;&#160;parts: mapping(uint256=&gt;Part)</text>
<polyline fill="none" stroke="black" points="2716.37,-330.3 3215.68,-330.3 "/>
<text text-anchor="start" x="2724.37" y="-313.7" font-family="Times,serif" font-size="14.00">External:</text>
<text text-anchor="start" x="2724.37" y="-296.9" font-family="Times,serif" font-size="14.00"> &#160;&#160;&#160;checkPartRobotArm(partId: uint256, newStatus: Partstatus, newDescription: string)</text>
<text text-anchor="start" x="2724.37" y="-280.1" font-family="Times,serif" font-size="14.00"> &#160;&#160;&#160;getPartStatus(partId: uint): (Partstatus, string)</text>
<text text-anchor="start" x="2724.37" y="-263.3" font-family="Times,serif" font-size="14.00"> &#160;&#160;&#160;getLocationOfMapping(mappingSlot: uint, key: uint): (slot: uint)</text>
<text text-anchor="start" x="2724.37" y="-246.5" font-family="Times,serif" font-size="14.00">Public:</text>
<text text-anchor="start" x="2724.37" y="-229.7" font-family="Times,serif" font-size="14.00"> &#160;&#160;&#160;&lt;&lt;event&gt;&gt; Logging(description: string)</text>
<text text-anchor="start" x="2724.37" y="-212.9" font-family="Times,serif" font-size="14.00"> &#160;&#160;&#160;&lt;&lt;event&gt;&gt; PartChecked(partID: uint256, status: Partstatus, description: string)</text>
<text text-anchor="start" x="2724.37" y="-196.1" font-family="Times,serif" font-size="14.00"> &#160;&#160;&#160;constructor()</text>
<text text-anchor="start" x="2724.37" y="-179.3" font-family="Times,serif" font-size="14.00"> &#160;&#160;&#160;roleAssignment(): Constants.ClassType</text>
<text text-anchor="start" x="2724.37" y="-162.5" font-family="Times,serif" font-size="14.00"> &#160;&#160;&#160;setRobotArmConfiguration()</text>
<text text-anchor="start" x="2724.37" y="-145.7" font-family="Times,serif" font-size="14.00"> &#160;&#160;&#160;getHashValue(_id: string, _text: string): bytes32</text>
</g>
<!-- 12&#45;&gt;11 -->
<g id="edge28" class="edge">
<title>12&#45;&gt;11</title>
<path fill="none" stroke="black" d="M3328.25,-855.66C3347.94,-765.28 3366.3,-588.05 3291.03,-466.8 3274,-439.38 3251.22,-415.66 3225.59,-395.27"/>
<polygon fill="black" stroke="black" points="3225.53,-395.22 3218.34,-394.73 3216.02,-387.9 3223.21,-388.39 3225.53,-395.22"/>
</g>
<!-- 13 -->
<g id="node13" class="node">
<title>13</title>
<polygon fill="#f2f2f2" stroke="black" points="3012.76,-580.5 3012.76,-680.5 3273.29,-680.5 3273.29,-580.5 3012.76,-580.5"/>
<text text-anchor="middle" x="3143.03" y="-663.9" font-family="Times,serif" font-size="14.00">&lt;&lt;Struct&gt;&gt;</text>
<text text-anchor="middle" x="3143.03" y="-647.1" font-family="Times,serif" font-size="14.00">Part</text>
<text text-anchor="middle" x="3143.03" y="-630.3" font-family="Times,serif" font-size="14.00">contractsfactory&#45;fundamentalRobotArm.sol</text>
<polyline fill="none" stroke="black" points="3012.76,-622.1 3273.29,-622.1 "/>
<text text-anchor="start" x="3020.76" y="-605.5" font-family="Times,serif" font-size="14.00">status: Partstatus</text>
<text text-anchor="start" x="3020.76" y="-588.7" font-family="Times,serif" font-size="14.00">description: string</text>
</g>
<!-- 13&#45;&gt;12 -->
<g id="edge27" class="edge">
<title>13&#45;&gt;12</title>
<path fill="none" stroke="black" stroke-dasharray="5,2" d="M3172.11,-680.59C3199.41,-726.65 3240.45,-795.9 3270.67,-846.88"/>
<polygon fill="black" stroke="black" points="3267.69,-848.72 3275.8,-855.54 3273.71,-845.15 3267.69,-848.72"/>
</g>
<!-- 13&#45;&gt;11 -->
<g id="edge29" class="edge">
<title>13&#45;&gt;11</title>
<path fill="none" stroke="black" d="M3122.59,-580.17C3105.16,-543.56 3079.02,-491.48 3053.05,-441.23"/>
<polygon fill="black" stroke="black" points="3053.03,-441.2 3046.72,-437.71 3047.51,-430.54 3053.82,-434.03 3053.03,-441.2"/>
</g>
<!-- 11&#45;&gt;0 -->
<g id="edge30" class="edge">
<title>11&#45;&gt;0</title>
<path fill="none" stroke="black" d="M2716.32,-330.51C2532.81,-362.61 2277.11,-404.4 2051.03,-430.8 1997.57,-437.04 1605.68,-428.35 1568.03,-466.8 1518.8,-517.06 1527.25,-719.96 1536.38,-834.18"/>
<polygon fill="none" stroke="black" points="1525.92,-835.18 1538.95,-864.17 1546.85,-833.38 1525.92,-835.18"/>
</g>
<!-- 11&#45;&gt;1 -->
<g id="edge36" class="edge">
<title>11&#45;&gt;1</title>
<path fill="none" stroke="black" stroke-dasharray="5,2" d="M2965.19,-430.51C2962.65,-557.38 2954.25,-730.68 2928.03,-794.2 2882.42,-904.68 2856.72,-938.96 2753.03,-998.4 2689.68,-1034.71 2514.01,-1062.92 2375.01,-1080.44"/>
<polygon fill="black" stroke="black" points="2374.56,-1076.96 2365.07,-1081.68 2375.42,-1083.91 2374.56,-1076.96"/>
</g>
<!-- 11&#45;&gt;6 -->
<g id="edge35" class="edge">
<title>11&#45;&gt;6</title>
<path fill="none" stroke="black" stroke-dasharray="5,2" d="M2790.21,-430.54C2778.2,-440.49 2766.05,-450.55 2753.92,-460.6"/>
<polygon fill="black" stroke="black" points="2751.41,-458.13 2745.95,-467.21 2755.88,-463.52 2751.41,-458.13"/>
</g>
<!-- 11&#45;&gt;12 -->
<g id="edge31" class="edge">
<title>11&#45;&gt;12</title>
<path fill="none" stroke="black" stroke-dasharray="5,2" d="M3215.87,-401.97C3238.06,-420.81 3257.83,-442.33 3273.03,-466.8 3345.58,-583.67 3331.14,-752.54 3318.34,-845.53"/>
<polygon fill="black" stroke="black" points="3314.84,-845.26 3316.91,-855.66 3321.77,-846.24 3314.84,-845.26"/>
</g>
<!-- 11&#45;&gt;13 -->
<g id="edge32" class="edge">
<title>11&#45;&gt;13</title>
<path fill="none" stroke="black" d="M3034.16,-430.54C3059.3,-480.03 3086.75,-532.52 3107.84,-571.16"/>
<polygon fill="black" stroke="black" points="3104.91,-573.09 3112.79,-580.17 3111.05,-569.72 3104.91,-573.09"/>
</g>
<!-- 11&#45;&gt;15 -->
<g id="edge34" class="edge">
<title>11&#45;&gt;15</title>
<path fill="none" stroke="black" stroke-dasharray="5,2" d="M2716.27,-330.14C2532.74,-362.06 2277.03,-403.78 2051.03,-430.8 2001.22,-436.75 1635.05,-429.94 1601.03,-466.8 1551.67,-520.26 1557.73,-735.73 1601.03,-794.2 1633.65,-838.27 1686.4,-786.13 1719.03,-830.2 1759.92,-885.43 1752.11,-965.86 1737.92,-1024.67"/>
<polygon fill="black" stroke="black" points="1734.45,-1024.09 1735.4,-1034.65 1741.24,-1025.81 1734.45,-1024.09"/>
</g>
<!-- 11&#45;&gt;14 -->
<g id="edge33" class="edge">
<title>11&#45;&gt;14</title>
<path fill="none" stroke="black" stroke-dasharray="5,2" d="M2990.57,-430.44C3002.05,-535.15 3004.78,-677.83 2960.03,-794.2 2872.81,-1020.98 2788.56,-1081.13 2562.03,-1169 2438.8,-1216.8 2073.47,-1229.39 1864.39,-1232.64"/>
<polygon fill="black" stroke="black" points="1864.2,-1229.14 1854.25,-1232.79 1864.3,-1236.14 1864.2,-1229.14"/>
</g>
<!-- 15&#45;&gt;14 -->
<g id="edge37" class="edge">
<title>15&#45;&gt;14</title>
<path fill="none" stroke="black" d="M1713.03,-1168.58C1713.03,-1177.01 1713.03,-1185.43 1713.03,-1193.28"/>
<polygon fill="black" stroke="black" points="1713.03,-1193.47 1717.03,-1199.47 1713.03,-1205.47 1709.03,-1199.47 1713.03,-1193.47"/>
</g>
<!-- 16 -->
<g id="node17" class="node">
<title>16</title>
<polygon fill="#f2f2f2" stroke="black" points="1256.65,-0.5 1256.65,-100.5 1607.4,-100.5 1607.4,-0.5 1256.65,-0.5"/>
<text text-anchor="middle" x="1432.03" y="-83.9" font-family="Times,serif" font-size="14.00">RoleSubtypingFactoryBox</text>
<text text-anchor="middle" x="1432.03" y="-67.1" font-family="Times,serif" font-size="14.00">contractsfactory&#45;fundamentalRoleSubtypingFactoryBox.sol</text>
<polyline fill="none" stroke="black" points="1256.65,-58.9 1607.4,-58.9 "/>
<text text-anchor="start" x="1264.65" y="-42.3" font-family="Times,serif" font-size="14.00">Public:</text>
<text text-anchor="start" x="1264.65" y="-25.5" font-family="Times,serif" font-size="14.00"> &#160;&#160;&#160;&lt;&lt;payable&gt;&gt; assignmentOfRoles(): string[]</text>
<text text-anchor="start" x="1264.65" y="-8.7" font-family="Times,serif" font-size="14.00"> &#160;&#160;&#160;&lt;&lt;event&gt;&gt; Logging(description: string)</text>
</g>
<!-- 16&#45;&gt;0 -->
<g id="edge38" class="edge">
<title>16&#45;&gt;0</title>
<path fill="none" stroke="black" stroke-dasharray="5,2" d="M1438.8,-100.69C1449.45,-178.4 1470.57,-334.36 1487.03,-466.8 1505.09,-612.17 1505.04,-649.08 1525.03,-794.2 1527.71,-813.72 1530.99,-834.98 1534.06,-854.06"/>
<polygon fill="black" stroke="black" points="1530.64,-854.81 1535.7,-864.12 1537.55,-853.68 1530.64,-854.81"/>
</g>
<!-- 16&#45;&gt;3 -->
<g id="edge41" class="edge">
<title>16&#45;&gt;3</title>
<path fill="none" stroke="black" stroke-dasharray="5,2" d="M1346.12,-100.64C1325.71,-112.45 1304.05,-125.09 1284.03,-137 1104.87,-243.53 904.97,-365.81 749.2,-461.87"/>
<polygon fill="black" stroke="black" points="747.08,-459.06 740.41,-467.29 750.76,-465.02 747.08,-459.06"/>
</g>
<!-- 16&#45;&gt;6 -->
<g id="edge39" class="edge">
<title>16&#45;&gt;6</title>
<path fill="none" stroke="black" stroke-dasharray="5,2" d="M1607.59,-63.38C1762.56,-76.09 1975.25,-99.64 2051.03,-137 2201.62,-211.25 2334.8,-348.47 2425.61,-459.25"/>
<polygon fill="black" stroke="black" points="2423.05,-461.64 2432.08,-467.18 2428.47,-457.21 2423.05,-461.64"/>
</g>
<!-- 16&#45;&gt;8 -->
<g id="edge40" class="edge">
<title>16&#45;&gt;8</title>
<path fill="none" stroke="black" stroke-dasharray="5,2" d="M1413.1,-100.78C1380.98,-184.39 1314.63,-357.16 1266.48,-482.51"/>
<polygon fill="black" stroke="black" points="1263.08,-481.61 1262.76,-492.2 1269.61,-484.12 1263.08,-481.61"/>
</g>
<!-- 16&#45;&gt;11 -->
<g id="edge42" class="edge">
<title>16&#45;&gt;11</title>
<path fill="none" stroke="black" stroke-dasharray="5,2" d="M1607.63,-61.68C1788.13,-73.69 2076.93,-97.25 2324.03,-137 2450.94,-157.42 2590.25,-188.05 2706.56,-215.99"/>
<polygon fill="black" stroke="black" points="2705.78,-219.4 2716.32,-218.34 2707.42,-212.59 2705.78,-219.4"/>
</g>
<!-- 16&#45;&gt;14 -->
<g id="edge43" class="edge">
<title>16&#45;&gt;14</title>
<path fill="none" stroke="black" stroke-dasharray="5,2" d="M1256.48,-62.56C1128.23,-73.68 951.08,-95.42 800.03,-137 439.51,-236.25 249.97,-167.35 26.03,-466.8 -17.58,-525.1 7.03,-556.7 7.03,-629.5 7.03,-629.5 7.03,-629.5 7.03,-915.3 7.03,-1106.7 174.5,-1105.39 355.03,-1169 466.22,-1208.18 1231.09,-1225.61 1561.52,-1231.38"/>
<polygon fill="black" stroke="black" points="1561.59,-1234.88 1571.65,-1231.56 1561.71,-1227.88 1561.59,-1234.88"/>
</g>
<!-- 17 -->
<g id="node18" class="node">
<title>17</title>
<polygon fill="#f2f2f2" stroke="black" points="1609.79,-484.1 1609.79,-776.9 2162.26,-776.9 2162.26,-484.1 1609.79,-484.1"/>
<text text-anchor="middle" x="1886.03" y="-760.3" font-family="Times,serif" font-size="14.00">UpdatedRobotArm</text>
<text text-anchor="middle" x="1886.03" y="-743.5" font-family="Times,serif" font-size="14.00">contractsuups&#45;role&#45;updatedUpdatedRobotArm.sol</text>
<polyline fill="none" stroke="black" points="1609.79,-735.3 2162.26,-735.3 "/>
<text text-anchor="start" x="1617.79" y="-718.7" font-family="Times,serif" font-size="14.00">Public:</text>
<text text-anchor="start" x="1617.79" y="-701.9" font-family="Times,serif" font-size="14.00"> &#160;&#160;sampleVariable: uint</text>
<polyline fill="none" stroke="black" points="1609.79,-693.7 2162.26,-693.7 "/>
<text text-anchor="start" x="1617.79" y="-677.1" font-family="Times,serif" font-size="14.00">Internal:</text>
<text text-anchor="start" x="1617.79" y="-660.3" font-family="Times,serif" font-size="14.00"> &#160;&#160;&#160;_authorizeUpgrade(newImplementationAddress: address)</text>
<text text-anchor="start" x="1617.79" y="-643.5" font-family="Times,serif" font-size="14.00">External:</text>
<text text-anchor="start" x="1617.79" y="-626.7" font-family="Times,serif" font-size="14.00"> &#160;&#160;&#160;addFunctionalityToRobotArm(): string</text>
<text text-anchor="start" x="1617.79" y="-609.9" font-family="Times,serif" font-size="14.00"> &#160;&#160;&#160;pause() &lt;&lt;onlyOwner&gt;&gt;</text>
<text text-anchor="start" x="1617.79" y="-593.1" font-family="Times,serif" font-size="14.00"> &#160;&#160;&#160;unpause() &lt;&lt;onlyOwner&gt;&gt;</text>
<text text-anchor="start" x="1617.79" y="-576.3" font-family="Times,serif" font-size="14.00"> &#160;&#160;&#160;_onlyProxyPause() &lt;&lt;onlyProxy&gt;&gt;</text>
<text text-anchor="start" x="1617.79" y="-559.5" font-family="Times,serif" font-size="14.00">Public:</text>
<text text-anchor="start" x="1617.79" y="-542.7" font-family="Times,serif" font-size="14.00"> &#160;&#160;&#160;initializeRoleOwner(roleAddress: address) &lt;&lt;initializer&gt;&gt;</text>
<text text-anchor="start" x="1617.79" y="-525.9" font-family="Times,serif" font-size="14.00"> &#160;&#160;&#160;getMessage(): string</text>
<text text-anchor="start" x="1617.79" y="-509.1" font-family="Times,serif" font-size="14.00"> &#160;&#160;&#160;setDifferentMachineryState(machineryState: MachineOperationConstant.MachineOperation)</text>
<text text-anchor="start" x="1617.79" y="-492.3" font-family="Times,serif" font-size="14.00"> &#160;&#160;&#160;roleAssignment(): Constants.ClassType</text>
</g>
<!-- 17&#45;&gt;0 -->
<g id="edge44" class="edge">
<title>17&#45;&gt;0</title>
<path fill="none" stroke="black" d="M1709.52,-776.94C1680.7,-800.68 1652.1,-824.25 1626.98,-844.95"/>
<polygon fill="none" stroke="black" points="1620.08,-837.02 1603.61,-864.21 1633.44,-853.23 1620.08,-837.02"/>
</g>
<!-- 17&#45;&gt;2 -->
<g id="edge46" class="edge">
<title>17&#45;&gt;2</title>
<path fill="none" stroke="black" stroke-dasharray="5,2" d="M2041.37,-776.94C2058.3,-792.78 2075.14,-808.55 2091.04,-823.44"/>
<polygon fill="black" stroke="black" points="2089.08,-826.4 2098.77,-830.68 2093.86,-821.29 2089.08,-826.4"/>
</g>
<!-- 17&#45;&gt;1 -->
<g id="edge45" class="edge">
<title>17&#45;&gt;1</title>
<path fill="none" stroke="black" stroke-dasharray="5,2" d="M1904.87,-776.97C1920.42,-849.85 1948.71,-935.68 2000.03,-998.4 2025.09,-1029.03 2061.84,-1051.92 2096.15,-1068.19"/>
<polygon fill="black" stroke="black" points="2094.73,-1071.39 2105.28,-1072.4 2097.66,-1065.04 2094.73,-1071.39"/>
</g>
<!-- 17&#45;&gt;15 -->
<g id="edge48" class="edge">
<title>17&#45;&gt;15</title>
<path fill="none" stroke="black" stroke-dasharray="5,2" d="M1833.35,-777.19C1808.84,-844.59 1779.17,-925.65 1752.03,-998.4 1748.77,-1007.12 1745.33,-1016.25 1741.9,-1025.32"/>
<polygon fill="black" stroke="black" points="1738.61,-1024.12 1738.34,-1034.71 1745.16,-1026.61 1738.61,-1024.12"/>
</g>
<!-- 17&#45;&gt;14 -->
<g id="edge47" class="edge">
<title>17&#45;&gt;14</title>
<path fill="none" stroke="black" stroke-dasharray="5,2" d="M1896.71,-777.22C1903.81,-914.41 1905.25,-1107.7 1863.03,-1169 1854.25,-1181.74 1842.4,-1191.99 1829.19,-1200.23"/>
<polygon fill="black" stroke="black" points="1827.23,-1197.32 1820.33,-1205.36 1830.74,-1203.38 1827.23,-1197.32"/>
</g>
<!-- 18 -->
<g id="node19" class="node">
<title>18</title>
<polygon fill="#f2f2f2" stroke="black" points="1729.7,-242.3 1729.7,-325.5 2042.35,-325.5 2042.35,-242.3 1729.7,-242.3"/>
<text text-anchor="middle" x="1886.03" y="-308.9" font-family="Times,serif" font-size="14.00">UpdatedRobotArmV2</text>
<text text-anchor="middle" x="1886.03" y="-292.1" font-family="Times,serif" font-size="14.00">contractsuups&#45;role&#45;updatedUpdatedRobotArmV2.sol</text>
<polyline fill="none" stroke="black" points="1729.7,-283.9 2042.35,-283.9 "/>
<text text-anchor="start" x="1737.7" y="-267.3" font-family="Times,serif" font-size="14.00">External:</text>
<text text-anchor="start" x="1737.7" y="-250.5" font-family="Times,serif" font-size="14.00"> &#160;&#160;&#160;additionalUpdate()</text>
</g>
<!-- 18&#45;&gt;17 -->
<g id="edge49" class="edge">
<title>18&#45;&gt;17</title>
<path fill="none" stroke="black" d="M1886.03,-325.78C1886.03,-358.19 1886.03,-405.86 1886.03,-453.88"/>
<polygon fill="none" stroke="black" points="1875.53,-454.09 1886.03,-484.09 1896.53,-454.09 1875.53,-454.09"/>
</g>
</g>
</svg>
