<?xml version="1.0" encoding="UTF-8" standalone="no"?>
<!DOCTYPE svg PUBLIC "-//W3C//DTD SVG 1.1//EN"
 "http://www.w3.org/Graphics/SVG/1.1/DTD/svg11.dtd">
<!-- Generated by graphviz version 5.0.0 (20220707.1540)
 -->
<!-- Title: UmlClassDiagram Pages: 1 -->
<svg width="1993pt" height="872pt"
 viewBox="0.00 0.00 1992.68 872.00" xmlns="http://www.w3.org/2000/svg" xmlns:xlink="http://www.w3.org/1999/xlink">
<g id="graph0" class="graph" transform="scale(1 1) rotate(0) translate(4 868)">
<title>UmlClassDiagram</title>
<polygon fill="white" stroke="transparent" points="-4,4 -4,-868 1988.68,-868 1988.68,4 -4,4"/>
<!-- 0 -->
<g id="node1" class="node">
<title>0</title>
<polygon fill="#f2f2f2" stroke="black" points="190.09,-59.3 190.09,-234.5 669.56,-234.5 669.56,-59.3 190.09,-59.3"/>
<text text-anchor="middle" x="429.83" y="-217.9" font-family="Times,serif" font-size="14.00">ChainOfResponsibility</text>
<text text-anchor="middle" x="429.83" y="-201.1" font-family="Times,serif" font-size="14.00">contractsfactory&#45;patternsChainOfResponsibility.sol</text>
<polyline fill="none" stroke="black" points="190.09,-192.9 669.56,-192.9 "/>
<text text-anchor="start" x="198.09" y="-176.3" font-family="Times,serif" font-size="14.00">Public:</text>
<text text-anchor="start" x="198.09" y="-159.5" font-family="Times,serif" font-size="14.00"> &#160;&#160;isChainResponsibilitySuitable: bool</text>
<text text-anchor="start" x="198.09" y="-142.7" font-family="Times,serif" font-size="14.00"> &#160;&#160;handler: ChainOfResponsibilityHandler</text>
<polyline fill="none" stroke="black" points="190.09,-134.5 669.56,-134.5 "/>
<text text-anchor="start" x="198.09" y="-117.9" font-family="Times,serif" font-size="14.00">Public:</text>
<text text-anchor="start" x="198.09" y="-101.1" font-family="Times,serif" font-size="14.00"> &#160;&#160;&#160;&lt;&lt;event&gt;&gt; Logging(description: string)</text>
<text text-anchor="start" x="198.09" y="-84.3" font-family="Times,serif" font-size="14.00"> &#160;&#160;&#160;constructor(_handler: ChainOfResponsibilityHandler)</text>
<text text-anchor="start" x="198.09" y="-67.5" font-family="Times,serif" font-size="14.00"> &#160;&#160;&#160;testHandlers(_chainResponseAddress: address, _chainOfResponsibility: bytes4)</text>
</g>
<!-- 1 -->
<g id="node2" class="node">
<title>1</title>
<polygon fill="#f2f2f2" stroke="black" points="381.95,-746.7 381.95,-863.5 879.7,-863.5 879.7,-746.7 381.95,-746.7"/>
<text text-anchor="middle" x="630.83" y="-846.9" font-family="Times,serif" font-size="14.00">&lt;&lt;Interface&gt;&gt;</text>
<text text-anchor="middle" x="630.83" y="-830.1" font-family="Times,serif" font-size="14.00">ChainOfResponsibilityHandler</text>
<text text-anchor="middle" x="630.83" y="-813.3" font-family="Times,serif" font-size="14.00">contractsfactory&#45;patternsChainOfResponsibility.sol</text>
<polyline fill="none" stroke="black" points="381.95,-805.1 879.7,-805.1 "/>
<text text-anchor="start" x="389.95" y="-788.5" font-family="Times,serif" font-size="14.00">External:</text>
<text text-anchor="start" x="389.95" y="-771.7" font-family="Times,serif" font-size="14.00"> &#160;&#160;&#160;&#160;setNext(_handler: ChainOfResponsibilityHandler): ChainOfResponsibilityHandler</text>
<text text-anchor="start" x="389.95" y="-754.9" font-family="Times,serif" font-size="14.00"> &#160;&#160;&#160;&#160;handle(_request: bytes): string</text>
</g>
<!-- 0&#45;&gt;1 -->
<g id="edge1" class="edge">
<title>0&#45;&gt;1</title>
<path fill="none" stroke="black" d="M190.04,-203.93C125.86,-231.04 63.83,-271.02 25.83,-329.8 -10.7,-386.31 -6.14,-421.99 25.83,-481.2 98.26,-615.35 249.6,-696.09 382.79,-743.28"/>
<polygon fill="black" stroke="black" points="381.75,-746.63 392.35,-746.62 384.06,-740.02 381.75,-746.63"/>
</g>
<!-- 3 -->
<g id="node4" class="node">
<title>3</title>
<polygon fill="#f2f2f2" stroke="black" points="35.1,-355.5 35.1,-455.5 420.56,-455.5 420.56,-355.5 35.1,-355.5"/>
<text text-anchor="middle" x="227.83" y="-438.9" font-family="Times,serif" font-size="14.00">ConcreteHandler1</text>
<text text-anchor="middle" x="227.83" y="-422.1" font-family="Times,serif" font-size="14.00">contractsfactory&#45;patternsChainOfResponsibility.sol</text>
<polyline fill="none" stroke="black" points="35.1,-413.9 420.56,-413.9 "/>
<text text-anchor="start" x="43.1" y="-397.3" font-family="Times,serif" font-size="14.00">Public:</text>
<text text-anchor="start" x="43.1" y="-380.5" font-family="Times,serif" font-size="14.00"> &#160;&#160;&#160;&lt;&lt;event&gt;&gt; Logging(description: string, handlerAddress: bytes)</text>
<text text-anchor="start" x="43.1" y="-363.7" font-family="Times,serif" font-size="14.00"> &#160;&#160;&#160;handle(_request: bytes): string</text>
</g>
<!-- 0&#45;&gt;3 -->
<g id="edge2" class="edge">
<title>0&#45;&gt;3</title>
<path fill="none" stroke="black" stroke-dasharray="5,2" d="M361.44,-234.77C332.32,-271.77 299.14,-313.91 273.14,-346.94"/>
<polygon fill="black" stroke="black" points="270.12,-345.12 266.69,-355.14 275.62,-349.45 270.12,-345.12"/>
</g>
<!-- 4 -->
<g id="node5" class="node">
<title>4</title>
<polygon fill="#f2f2f2" stroke="black" points="438.1,-355.5 438.1,-455.5 823.56,-455.5 823.56,-355.5 438.1,-355.5"/>
<text text-anchor="middle" x="630.83" y="-438.9" font-family="Times,serif" font-size="14.00">ConcreteHandler2</text>
<text text-anchor="middle" x="630.83" y="-422.1" font-family="Times,serif" font-size="14.00">contractsfactory&#45;patternsChainOfResponsibility.sol</text>
<polyline fill="none" stroke="black" points="438.1,-413.9 823.56,-413.9 "/>
<text text-anchor="start" x="446.1" y="-397.3" font-family="Times,serif" font-size="14.00">Public:</text>
<text text-anchor="start" x="446.1" y="-380.5" font-family="Times,serif" font-size="14.00"> &#160;&#160;&#160;&lt;&lt;event&gt;&gt; Logging(description: string, handlerAddress: bytes)</text>
<text text-anchor="start" x="446.1" y="-363.7" font-family="Times,serif" font-size="14.00"> &#160;&#160;&#160;handle(_request: bytes): string</text>
</g>
<!-- 0&#45;&gt;4 -->
<g id="edge3" class="edge">
<title>0&#45;&gt;4</title>
<path fill="none" stroke="black" stroke-dasharray="5,2" d="M497.88,-234.77C526.86,-271.77 559.87,-313.91 585.74,-346.94"/>
<polygon fill="black" stroke="black" points="583.24,-349.42 592.16,-355.14 588.75,-345.11 583.24,-349.42"/>
</g>
<!-- 5 -->
<g id="node6" class="node">
<title>5</title>
<polygon fill="#f2f2f2" stroke="black" points="841.1,-355.5 841.1,-455.5 1226.56,-455.5 1226.56,-355.5 841.1,-355.5"/>
<text text-anchor="middle" x="1033.83" y="-438.9" font-family="Times,serif" font-size="14.00">ConcreteHandler3</text>
<text text-anchor="middle" x="1033.83" y="-422.1" font-family="Times,serif" font-size="14.00">contractsfactory&#45;patternsChainOfResponsibility.sol</text>
<polyline fill="none" stroke="black" points="841.1,-413.9 1226.56,-413.9 "/>
<text text-anchor="start" x="849.1" y="-397.3" font-family="Times,serif" font-size="14.00">Public:</text>
<text text-anchor="start" x="849.1" y="-380.5" font-family="Times,serif" font-size="14.00"> &#160;&#160;&#160;&lt;&lt;event&gt;&gt; Logging(description: string, handlerAddress: bytes)</text>
<text text-anchor="start" x="849.1" y="-363.7" font-family="Times,serif" font-size="14.00"> &#160;&#160;&#160;handle(_request: bytes): string</text>
</g>
<!-- 0&#45;&gt;5 -->
<g id="edge4" class="edge">
<title>0&#45;&gt;5</title>
<path fill="none" stroke="black" stroke-dasharray="5,2" d="M633.89,-234.59C725.02,-273.31 829.49,-317.69 908.8,-351.38"/>
<polygon fill="black" stroke="black" points="907.77,-354.75 918.35,-355.44 910.51,-348.31 907.77,-354.75"/>
</g>
<!-- 1&#45;&gt;1 -->
<g id="edge5" class="edge">
<title>1&#45;&gt;1</title>
<path fill="none" stroke="black" stroke-dasharray="5,2" d="M880.02,-783.05C891.19,-788.66 897.7,-796.01 897.7,-805.1 897.7,-811.49 894.48,-817.02 888.69,-821.7"/>
<polygon fill="black" stroke="black" points="886.62,-818.86 880.02,-827.15 890.35,-824.79 886.62,-818.86"/>
</g>
<!-- 2 -->
<g id="node3" class="node">
<title>2</title>
<polygon fill="#f2f2f2" stroke="black" points="383.7,-517.7 383.7,-709.7 877.95,-709.7 877.95,-517.7 383.7,-517.7"/>
<text text-anchor="middle" x="630.83" y="-693.1" font-family="Times,serif" font-size="14.00">&lt;&lt;Abstract&gt;&gt;</text>
<text text-anchor="middle" x="630.83" y="-676.3" font-family="Times,serif" font-size="14.00">AbstractHandler</text>
<text text-anchor="middle" x="630.83" y="-659.5" font-family="Times,serif" font-size="14.00">contractsfactory&#45;patternsChainOfResponsibility.sol</text>
<polyline fill="none" stroke="black" points="383.7,-651.3 877.95,-651.3 "/>
<text text-anchor="start" x="391.7" y="-634.7" font-family="Times,serif" font-size="14.00">Private:</text>
<text text-anchor="start" x="391.7" y="-617.9" font-family="Times,serif" font-size="14.00"> &#160;&#160;nextHandler: ChainOfResponsibilityHandler</text>
<polyline fill="none" stroke="black" points="383.7,-609.7 877.95,-609.7 "/>
<text text-anchor="start" x="391.7" y="-593.1" font-family="Times,serif" font-size="14.00">External:</text>
<text text-anchor="start" x="391.7" y="-576.3" font-family="Times,serif" font-size="14.00"> &#160;&#160;&#160;setNext(_handler: ChainOfResponsibilityHandler): ChainOfResponsibilityHandler</text>
<text text-anchor="start" x="391.7" y="-559.5" font-family="Times,serif" font-size="14.00"> &#160;&#160;&#160;supportsInterface(interfaceID: bytes4): bool</text>
<text text-anchor="start" x="391.7" y="-542.7" font-family="Times,serif" font-size="14.00">Public:</text>
<text text-anchor="start" x="391.7" y="-525.9" font-family="Times,serif" font-size="14.00"> &#160;&#160;&#160;handle(_request: bytes): string</text>
</g>
<!-- 2&#45;&gt;1 -->
<g id="edge6" class="edge">
<title>2&#45;&gt;1</title>
<path fill="none" stroke="black" stroke-dasharray="5,2" d="M630.83,-709.95C630.83,-712.11 630.83,-714.26 630.83,-716.41"/>
<polygon fill="none" stroke="black" points="620.33,-716.62 630.83,-746.62 641.33,-716.62 620.33,-716.62"/>
</g>
<!-- 3&#45;&gt;2 -->
<g id="edge7" class="edge">
<title>3&#45;&gt;2</title>
<path fill="none" stroke="black" d="M323.85,-455.63C352.45,-470.27 385.01,-486.92 417.97,-503.79"/>
<polygon fill="none" stroke="black" points="413.56,-513.33 445.05,-517.65 423.13,-494.63 413.56,-513.33"/>
</g>
<!-- 4&#45;&gt;2 -->
<g id="edge8" class="edge">
<title>4&#45;&gt;2</title>
<path fill="none" stroke="black" d="M630.83,-455.63C630.83,-465.35 630.83,-475.97 630.83,-486.95"/>
<polygon fill="none" stroke="black" points="620.33,-487.44 630.83,-517.44 641.33,-487.44 620.33,-487.44"/>
</g>
<!-- 5&#45;&gt;2 -->
<g id="edge9" class="edge">
<title>5&#45;&gt;2</title>
<path fill="none" stroke="black" d="M937.81,-455.63C909.21,-470.27 876.65,-486.92 843.68,-503.79"/>
<polygon fill="none" stroke="black" points="838.53,-494.63 816.61,-517.65 848.1,-513.33 838.53,-494.63"/>
</g>
<!-- 6 -->
<g id="node7" class="node">
<title>6</title>
<polygon fill="#f2f2f2" stroke="black" points="1234.11,-0.5 1234.11,-293.3 1629.54,-293.3 1629.54,-0.5 1234.11,-0.5"/>
<text text-anchor="middle" x="1431.83" y="-276.7" font-family="Times,serif" font-size="14.00">Mediator</text>
<text text-anchor="middle" x="1431.83" y="-259.9" font-family="Times,serif" font-size="14.00">contractsfactory&#45;patternsMediator.sol</text>
<polyline fill="none" stroke="black" points="1234.11,-251.7 1629.54,-251.7 "/>
<text text-anchor="start" x="1242.11" y="-235.1" font-family="Times,serif" font-size="14.00">Private:</text>
<text text-anchor="start" x="1242.11" y="-218.3" font-family="Times,serif" font-size="14.00"> &#160;&#160;supportedInterfaces: mapping(bytes4=&gt;bool)</text>
<text text-anchor="start" x="1242.11" y="-201.5" font-family="Times,serif" font-size="14.00"> &#160;&#160;observerLists: mapping(string=&gt;string)</text>
<text text-anchor="start" x="1242.11" y="-184.7" font-family="Times,serif" font-size="14.00">Public:</text>
<text text-anchor="start" x="1242.11" y="-167.9" font-family="Times,serif" font-size="14.00"> &#160;&#160;isObserverSuitable: bool</text>
<polyline fill="none" stroke="black" points="1234.11,-159.7 1629.54,-159.7 "/>
<text text-anchor="start" x="1242.11" y="-143.1" font-family="Times,serif" font-size="14.00">External:</text>
<text text-anchor="start" x="1242.11" y="-126.3" font-family="Times,serif" font-size="14.00"> &#160;&#160;&#160;supportsInterface(interfaceID: bytes4): bool</text>
<text text-anchor="start" x="1242.11" y="-109.5" font-family="Times,serif" font-size="14.00">Public:</text>
<text text-anchor="start" x="1242.11" y="-92.7" font-family="Times,serif" font-size="14.00"> &#160;&#160;&#160;constructor()</text>
<text text-anchor="start" x="1242.11" y="-75.9" font-family="Times,serif" font-size="14.00"> &#160;&#160;&#160;addObserver(_observerSpecification: bytes4, _observer: address)</text>
<text text-anchor="start" x="1242.11" y="-59.1" font-family="Times,serif" font-size="14.00"> &#160;&#160;&#160;addRole(_roleSpecification: bytes32, _roleAddress: address)</text>
<text text-anchor="start" x="1242.11" y="-42.3" font-family="Times,serif" font-size="14.00"> &#160;&#160;&#160;bindRole(_roleSpecification: bytes32)</text>
<text text-anchor="start" x="1242.11" y="-25.5" font-family="Times,serif" font-size="14.00"> &#160;&#160;&#160;invokeRole(_roleSpecification: bytes32)</text>
<text text-anchor="start" x="1242.11" y="-8.7" font-family="Times,serif" font-size="14.00"> &#160;&#160;&#160;getRole(_roleSpecification: bytes32)</text>
</g>
<!-- 9 -->
<g id="node10" class="node">
<title>9</title>
<polygon fill="#f2f2f2" stroke="black" points="1244.79,-330.3 1244.79,-480.7 1618.87,-480.7 1618.87,-330.3 1244.79,-330.3"/>
<text text-anchor="middle" x="1431.83" y="-464.1" font-family="Times,serif" font-size="14.00">&lt;&lt;Interface&gt;&gt;</text>
<text text-anchor="middle" x="1431.83" y="-447.3" font-family="Times,serif" font-size="14.00">MediatorInterface</text>
<text text-anchor="middle" x="1431.83" y="-430.5" font-family="Times,serif" font-size="14.00">contractsfactory&#45;patternsMediatorInterface.sol</text>
<polyline fill="none" stroke="black" points="1244.79,-422.3 1618.87,-422.3 "/>
<text text-anchor="start" x="1252.79" y="-405.7" font-family="Times,serif" font-size="14.00">External:</text>
<text text-anchor="start" x="1252.79" y="-388.9" font-family="Times,serif" font-size="14.00"> &#160;&#160;&#160;&#160;addRole(_roleSpecification: bytes32, _roleAddress: address)</text>
<text text-anchor="start" x="1252.79" y="-372.1" font-family="Times,serif" font-size="14.00"> &#160;&#160;&#160;&#160;bindRole(_roleSpecification: bytes32)</text>
<text text-anchor="start" x="1252.79" y="-355.3" font-family="Times,serif" font-size="14.00"> &#160;&#160;&#160;&#160;invokeRole(_roleSpecification: bytes32)</text>
<text text-anchor="start" x="1252.79" y="-338.5" font-family="Times,serif" font-size="14.00"> &#160;&#160;&#160;&#160;getRole(_roleSpecification: bytes32)</text>
</g>
<!-- 6&#45;&gt;9 -->
<g id="edge10" class="edge">
<title>6&#45;&gt;9</title>
<path fill="none" stroke="black" stroke-dasharray="5,2" d="M1431.83,-293.44C1431.83,-295.72 1431.83,-297.99 1431.83,-300.25"/>
<polygon fill="none" stroke="black" points="1421.33,-300.26 1431.83,-330.26 1442.33,-300.26 1421.33,-300.26"/>
</g>
<!-- 7 -->
<g id="node8" class="node">
<title>7</title>
<polygon fill="#f2f2f2" stroke="black" points="1668.52,-67.7 1668.52,-226.1 1953.14,-226.1 1953.14,-67.7 1668.52,-67.7"/>
<text text-anchor="middle" x="1810.83" y="-209.5" font-family="Times,serif" font-size="14.00">MediatorForwarder</text>
<text text-anchor="middle" x="1810.83" y="-192.7" font-family="Times,serif" font-size="14.00">contractsfactory&#45;patternsMediatorForwarder.sol</text>
<polyline fill="none" stroke="black" points="1668.52,-184.5 1953.14,-184.5 "/>
<text text-anchor="start" x="1676.52" y="-167.9" font-family="Times,serif" font-size="14.00">Private:</text>
<text text-anchor="start" x="1676.52" y="-151.1" font-family="Times,serif" font-size="14.00"> &#160;&#160;_roleReceiver: RoleReceiver</text>
<polyline fill="none" stroke="black" points="1668.52,-142.9 1953.14,-142.9 "/>
<text text-anchor="start" x="1676.52" y="-126.3" font-family="Times,serif" font-size="14.00">External:</text>
<text text-anchor="start" x="1676.52" y="-109.5" font-family="Times,serif" font-size="14.00"> &#160;&#160;&#160;&lt;&lt;payable&gt;&gt; forward()</text>
<text text-anchor="start" x="1676.52" y="-92.7" font-family="Times,serif" font-size="14.00">Public:</text>
<text text-anchor="start" x="1676.52" y="-75.9" font-family="Times,serif" font-size="14.00"> &#160;&#160;&#160;constructor(_roleReceiverAddress: address)</text>
</g>
<!-- 8 -->
<g id="node9" class="node">
<title>8</title>
<polygon fill="#f2f2f2" stroke="black" points="1636.98,-347.1 1636.98,-463.9 1984.68,-463.9 1984.68,-347.1 1636.98,-347.1"/>
<text text-anchor="middle" x="1810.83" y="-447.3" font-family="Times,serif" font-size="14.00">RoleReceiver</text>
<text text-anchor="middle" x="1810.83" y="-430.5" font-family="Times,serif" font-size="14.00">contractsfactory&#45;patternsMediatorForwarder.sol</text>
<polyline fill="none" stroke="black" points="1636.98,-422.3 1984.68,-422.3 "/>
<text text-anchor="start" x="1644.98" y="-405.7" font-family="Times,serif" font-size="14.00">External:</text>
<text text-anchor="start" x="1644.98" y="-388.9" font-family="Times,serif" font-size="14.00"> &#160;&#160;&#160;&lt;&lt;payable&gt;&gt; receiveCryptoAsset(cryptoValue: uint256)</text>
<text text-anchor="start" x="1644.98" y="-372.1" font-family="Times,serif" font-size="14.00">Public:</text>
<text text-anchor="start" x="1644.98" y="-355.3" font-family="Times,serif" font-size="14.00"> &#160;&#160;&#160;&lt;&lt;event&gt;&gt; Received(sender: address, amount: uint256)</text>
</g>
<!-- 7&#45;&gt;8 -->
<g id="edge11" class="edge">
<title>7&#45;&gt;8</title>
<path fill="none" stroke="black" d="M1810.83,-226.28C1810.83,-261.54 1810.83,-302.77 1810.83,-336.68"/>
<polygon fill="black" stroke="black" points="1807.33,-336.95 1810.83,-346.95 1814.33,-336.95 1807.33,-336.95"/>
</g>
</g>
</svg>
