<?xml version="1.0" encoding="UTF-8" standalone="no"?>
<!DOCTYPE svg PUBLIC "-//W3C//DTD SVG 1.1//EN"
 "http://www.w3.org/Graphics/SVG/1.1/DTD/svg11.dtd">
<!-- Generated by graphviz version 5.0.0 (20220707.1540)
 -->
<!-- Title: UmlClassDiagram Pages: 1 -->
<svg width="949pt" height="1067pt"
 viewBox="0.00 0.00 949.46 1067.40" xmlns="http://www.w3.org/2000/svg" xmlns:xlink="http://www.w3.org/1999/xlink">
<g id="graph0" class="graph" transform="scale(1 1) rotate(0) translate(4 1063.4)">
<title>UmlClassDiagram</title>
<polygon fill="white" stroke="transparent" points="-4,4 -4,-1063.4 945.46,-1063.4 945.46,4 -4,4"/>
<!-- 0 -->
<g id="node1" class="node">
<title>0</title>
<polygon fill="#f2f2f2" stroke="black" points="0,-0.5 0,-259.7 495.74,-259.7 495.74,-0.5 0,-0.5"/>
<text text-anchor="middle" x="247.87" y="-243.1" font-family="Times,serif" font-size="14.00">ConcreteMediator</text>
<text text-anchor="middle" x="247.87" y="-226.3" font-family="Times,serif" font-size="14.00">contractsfactory&#45;patternsmediatorConcreteMediator.sol</text>
<polyline fill="none" stroke="black" points="0,-218.1 495.74,-218.1 "/>
<text text-anchor="start" x="8" y="-201.5" font-family="Times,serif" font-size="14.00">Public:</text>
<text text-anchor="start" x="8" y="-184.7" font-family="Times,serif" font-size="14.00"> &#160;&#160;assignedRoles: mapping(bytes32=&gt;Role)</text>
<text text-anchor="start" x="8" y="-167.9" font-family="Times,serif" font-size="14.00"> &#160;&#160;isMediator: bool</text>
<text text-anchor="start" x="8" y="-151.1" font-family="Times,serif" font-size="14.00"> &#160;&#160;sampleMessage: string</text>
<text text-anchor="start" x="8" y="-134.3" font-family="Times,serif" font-size="14.00"> &#160;&#160;rg: RoleGenerator</text>
<polyline fill="none" stroke="black" points="0,-126.1 495.74,-126.1 "/>
<text text-anchor="start" x="8" y="-109.5" font-family="Times,serif" font-size="14.00">Public:</text>
<text text-anchor="start" x="8" y="-92.7" font-family="Times,serif" font-size="14.00"> &#160;&#160;&#160;&lt;&lt;event&gt;&gt; Logging(description: string)</text>
<text text-anchor="start" x="8" y="-75.9" font-family="Times,serif" font-size="14.00"> &#160;&#160;&#160;constructor()</text>
<text text-anchor="start" x="8" y="-59.1" font-family="Times,serif" font-size="14.00"> &#160;&#160;&#160;addRoleConcreteMediator(_roleSpecification: bytes32, _role: address)</text>
<text text-anchor="start" x="8" y="-42.3" font-family="Times,serif" font-size="14.00"> &#160;&#160;&#160;bindRoleConcreteMediator(_roleSpecification: bytes32, _role: address)</text>
<text text-anchor="start" x="8" y="-25.5" font-family="Times,serif" font-size="14.00"> &#160;&#160;&#160;getRoleConcreteMediator(_roleSpecification: bytes32, _role: address): (role: Role)</text>
<text text-anchor="start" x="8" y="-8.7" font-family="Times,serif" font-size="14.00"> &#160;&#160;&#160;setMediator(_addressOfMediator: address): bool</text>
</g>
<!-- 1 -->
<g id="node2" class="node">
<title>1</title>
<polygon fill="#f2f2f2" stroke="black" points="53.25,-612.3 53.25,-888.3 442.49,-888.3 442.49,-612.3 53.25,-612.3"/>
<text text-anchor="middle" x="247.87" y="-871.7" font-family="Times,serif" font-size="14.00">Mediator</text>
<text text-anchor="middle" x="247.87" y="-854.9" font-family="Times,serif" font-size="14.00">contractsfactory&#45;patternsmediatorMediator.sol</text>
<polyline fill="none" stroke="black" points="53.25,-846.7 442.49,-846.7 "/>
<text text-anchor="start" x="61.25" y="-830.1" font-family="Times,serif" font-size="14.00">Public:</text>
<text text-anchor="start" x="61.25" y="-813.3" font-family="Times,serif" font-size="14.00"> &#160;&#160;isMediatorRole: bool</text>
<text text-anchor="start" x="61.25" y="-796.5" font-family="Times,serif" font-size="14.00"> &#160;&#160;concreteMediator: ConcreteMediator</text>
<text text-anchor="start" x="61.25" y="-779.7" font-family="Times,serif" font-size="14.00"> &#160;&#160;mediatorCore: ConcreteMediator</text>
<text text-anchor="start" x="61.25" y="-762.9" font-family="Times,serif" font-size="14.00"> &#160;&#160;isObserverSuitable: bool</text>
<polyline fill="none" stroke="black" points="53.25,-754.7 442.49,-754.7 "/>
<text text-anchor="start" x="61.25" y="-738.1" font-family="Times,serif" font-size="14.00">External:</text>
<text text-anchor="start" x="61.25" y="-721.3" font-family="Times,serif" font-size="14.00"> &#160;&#160;&#160;supportsInterface(interfaceID: bytes4): bool</text>
<text text-anchor="start" x="61.25" y="-704.5" font-family="Times,serif" font-size="14.00">Public:</text>
<text text-anchor="start" x="61.25" y="-687.7" font-family="Times,serif" font-size="14.00"> &#160;&#160;&#160;&lt;&lt;modifier&gt;&gt; onlyActivatedMediator()</text>
<text text-anchor="start" x="61.25" y="-670.9" font-family="Times,serif" font-size="14.00"> &#160;&#160;&#160;constructor()</text>
<text text-anchor="start" x="61.25" y="-654.1" font-family="Times,serif" font-size="14.00"> &#160;&#160;&#160;bindRole(_roleSpecification: bytes32, _roleAddress: address)</text>
<text text-anchor="start" x="61.25" y="-637.3" font-family="Times,serif" font-size="14.00"> &#160;&#160;&#160;unbindRole(_roleSpecification: bytes32, _roleAddress: address)</text>
<text text-anchor="start" x="61.25" y="-620.5" font-family="Times,serif" font-size="14.00"> &#160;&#160;&#160;getRole(_roleSpecification: bytes32, _roleAddress: address)</text>
</g>
<!-- 0&#45;&gt;1 -->
<g id="edge1" class="edge">
<title>0&#45;&gt;1</title>
<path fill="none" stroke="black" d="M242.27,-259.94C240.92,-353.36 240.76,-480.55 241.79,-581.84"/>
<polygon fill="none" stroke="black" points="231.3,-582.17 242.15,-612.04 252.3,-581.92 231.3,-582.17"/>
</g>
<!-- 3 -->
<g id="node4" class="node">
<title>3</title>
<polygon fill="#f2f2f2" stroke="black" points="669.27,-433.7 669.27,-575.3 920.46,-575.3 920.46,-433.7 669.27,-433.7"/>
<text text-anchor="middle" x="794.87" y="-558.7" font-family="Times,serif" font-size="14.00">Role</text>
<text text-anchor="middle" x="794.87" y="-541.9" font-family="Times,serif" font-size="14.00">contractsfactory&#45;patternsmediatorRole.sol</text>
<polyline fill="none" stroke="black" points="669.27,-533.7 920.46,-533.7 "/>
<text text-anchor="start" x="677.27" y="-517.1" font-family="Times,serif" font-size="14.00">Public:</text>
<text text-anchor="start" x="677.27" y="-500.3" font-family="Times,serif" font-size="14.00"> &#160;&#160;message: string</text>
<text text-anchor="start" x="677.27" y="-483.5" font-family="Times,serif" font-size="14.00"> &#160;&#160;mediator: Mediator</text>
<polyline fill="none" stroke="black" points="669.27,-475.3 920.46,-475.3 "/>
<text text-anchor="start" x="677.27" y="-458.7" font-family="Times,serif" font-size="14.00">Public:</text>
<text text-anchor="start" x="677.27" y="-441.9" font-family="Times,serif" font-size="14.00"> &#160;&#160;&#160;constructor(_mediator: Mediator)</text>
</g>
<!-- 0&#45;&gt;3 -->
<g id="edge2" class="edge">
<title>0&#45;&gt;3</title>
<path fill="none" stroke="black" d="M266.64,-259.73C277.64,-317.55 293.42,-377.27 313.87,-397.2 362.32,-444.42 534.6,-473.88 659.15,-489.49"/>
<polygon fill="black" stroke="black" points="658.81,-492.97 669.16,-490.73 659.67,-486.03 658.81,-492.97"/>
</g>
<!-- 4 -->
<g id="node5" class="node">
<title>4</title>
<polygon fill="#f2f2f2" stroke="black" points="323.29,-296.7 323.29,-396.7 630.45,-396.7 630.45,-296.7 323.29,-296.7"/>
<text text-anchor="middle" x="476.87" y="-380.1" font-family="Times,serif" font-size="14.00">&lt;&lt;Interface&gt;&gt;</text>
<text text-anchor="middle" x="476.87" y="-363.3" font-family="Times,serif" font-size="14.00">RoleGenerator</text>
<text text-anchor="middle" x="476.87" y="-346.5" font-family="Times,serif" font-size="14.00">contractsfactory&#45;patternsmediatorRoleGenerator.sol</text>
<polyline fill="none" stroke="black" points="323.29,-338.3 630.45,-338.3 "/>
<text text-anchor="start" x="331.29" y="-321.7" font-family="Times,serif" font-size="14.00">External:</text>
<text text-anchor="start" x="331.29" y="-304.9" font-family="Times,serif" font-size="14.00"> &#160;&#160;&#160;&#160;roleGenerate(_roleSpecification: bytes32): Role</text>
</g>
<!-- 0&#45;&gt;4 -->
<g id="edge3" class="edge">
<title>0&#45;&gt;4</title>
<path fill="none" stroke="black" d="M385.38,-259.96C396.28,-270.17 406.89,-280.12 416.79,-289.4"/>
<polygon fill="black" stroke="black" points="414.53,-292.07 424.22,-296.36 419.31,-286.97 414.53,-292.07"/>
</g>
<!-- 1&#45;&gt;0 -->
<g id="edge5" class="edge">
<title>1&#45;&gt;0</title>
<path fill="none" stroke="black" d="M253.59,-612.04C254.96,-510.3 254.96,-372.16 253.61,-270.02"/>
<polygon fill="black" stroke="black" points="257.11,-269.89 253.47,-259.94 250.11,-269.99 257.11,-269.89"/>
</g>
<!-- 2 -->
<g id="node3" class="node">
<title>2</title>
<polygon fill="#f2f2f2" stroke="black" points="51.5,-925.3 51.5,-1058.9 444.24,-1058.9 444.24,-925.3 51.5,-925.3"/>
<text text-anchor="middle" x="247.87" y="-1042.3" font-family="Times,serif" font-size="14.00">&lt;&lt;Interface&gt;&gt;</text>
<text text-anchor="middle" x="247.87" y="-1025.5" font-family="Times,serif" font-size="14.00">MediatorInterface</text>
<text text-anchor="middle" x="247.87" y="-1008.7" font-family="Times,serif" font-size="14.00">contractsfactory&#45;patternsmediatorMediatorInterface.sol</text>
<polyline fill="none" stroke="black" points="51.5,-1000.5 444.24,-1000.5 "/>
<text text-anchor="start" x="59.5" y="-983.9" font-family="Times,serif" font-size="14.00">External:</text>
<text text-anchor="start" x="59.5" y="-967.1" font-family="Times,serif" font-size="14.00"> &#160;&#160;&#160;&#160;bindRole(_roleSpecification: bytes32, _roleAddress: address)</text>
<text text-anchor="start" x="59.5" y="-950.3" font-family="Times,serif" font-size="14.00"> &#160;&#160;&#160;&#160;unbindRole(_roleSpecification: bytes32, _roleAddress: address)</text>
<text text-anchor="start" x="59.5" y="-933.5" font-family="Times,serif" font-size="14.00"> &#160;&#160;&#160;&#160;getRole(_roleSpecification: bytes32, _roleAddress: address)</text>
</g>
<!-- 1&#45;&gt;2 -->
<g id="edge4" class="edge">
<title>1&#45;&gt;2</title>
<path fill="none" stroke="black" stroke-dasharray="5,2" d="M247.87,-888.36C247.87,-890.54 247.87,-892.72 247.87,-894.88"/>
<polygon fill="none" stroke="black" points="237.37,-895.07 247.87,-925.07 258.37,-895.07 237.37,-895.07"/>
</g>
<!-- 3&#45;&gt;1 -->
<g id="edge6" class="edge">
<title>3&#45;&gt;1</title>
<path fill="none" stroke="black" d="M669.03,-561.59C604.67,-590.27 524.73,-625.9 451.84,-658.39"/>
<polygon fill="black" stroke="black" points="450.24,-655.27 442.53,-662.54 453.09,-661.67 450.24,-655.27"/>
</g>
<!-- 4&#45;&gt;3 -->
<g id="edge7" class="edge">
<title>4&#45;&gt;3</title>
<path fill="none" stroke="black" stroke-dasharray="5,2" d="M577.05,-396.78C603.42,-409.7 632.29,-423.85 660.15,-437.5"/>
<polygon fill="black" stroke="black" points="658.64,-440.65 669.16,-441.91 661.72,-434.37 658.64,-440.65"/>
</g>
<!-- 5 -->
<g id="node6" class="node">
<title>5</title>
<polygon fill="#f2f2f2" stroke="black" points="648.28,-317.5 648.28,-375.9 941.46,-375.9 941.46,-317.5 648.28,-317.5"/>
<text text-anchor="middle" x="794.87" y="-359.3" font-family="Times,serif" font-size="14.00">&lt;&lt;Abstract&gt;&gt;</text>
<text text-anchor="middle" x="794.87" y="-342.5" font-family="Times,serif" font-size="14.00">SampleRole</text>
<text text-anchor="middle" x="794.87" y="-325.7" font-family="Times,serif" font-size="14.00">contractsfactory&#45;patternsmediatorSampleRole.sol</text>
</g>
<!-- 5&#45;&gt;3 -->
<g id="edge8" class="edge">
<title>5&#45;&gt;3</title>
<path fill="none" stroke="black" d="M794.87,-375.91C794.87,-383.98 794.87,-393.27 794.87,-403.08"/>
<polygon fill="none" stroke="black" points="784.37,-403.37 794.87,-433.37 805.37,-403.37 784.37,-403.37"/>
</g>
</g>
</svg>
