<?xml version="1.0" encoding="UTF-8" standalone="no"?>
<!DOCTYPE svg PUBLIC "-//W3C//DTD SVG 1.1//EN"
 "http://www.w3.org/Graphics/SVG/1.1/DTD/svg11.dtd">
<!-- Generated by graphviz version 5.0.0 (20220707.1540)
 -->
<!-- Title: UmlClassDiagram Pages: 1 -->
<svg width="885pt" height="779pt"
 viewBox="0.00 0.00 885.25 779.20" xmlns="http://www.w3.org/2000/svg" xmlns:xlink="http://www.w3.org/1999/xlink">
<g id="graph0" class="graph" transform="scale(1 1) rotate(0) translate(4 775.2)">
<title>UmlClassDiagram</title>
<polygon fill="white" stroke="transparent" points="-4,4 -4,-775.2 881.25,-775.2 881.25,4 -4,4"/>
<!-- 0 -->
<g id="node1" class="node">
<title>0</title>
<polygon fill="#f2f2f2" stroke="black" points="21.22,-195.9 21.22,-404.7 347.82,-404.7 347.82,-195.9 21.22,-195.9"/>
<text text-anchor="middle" x="184.52" y="-388.1" font-family="Times,serif" font-size="14.00">ConcreteMediator</text>
<text text-anchor="middle" x="184.52" y="-371.3" font-family="Times,serif" font-size="14.00">contractsfactory&#45;patternsmediatorConcreteMediator.sol</text>
<polyline fill="none" stroke="black" points="21.22,-363.1 347.82,-363.1 "/>
<text text-anchor="start" x="29.22" y="-346.5" font-family="Times,serif" font-size="14.00">Public:</text>
<text text-anchor="start" x="29.22" y="-329.7" font-family="Times,serif" font-size="14.00"> &#160;&#160;assignedRoles: mapping(address=&gt;Role)</text>
<text text-anchor="start" x="29.22" y="-312.9" font-family="Times,serif" font-size="14.00"> &#160;&#160;isMediator: bool</text>
<polyline fill="none" stroke="black" points="21.22,-304.7 347.82,-304.7 "/>
<text text-anchor="start" x="29.22" y="-288.1" font-family="Times,serif" font-size="14.00">Public:</text>
<text text-anchor="start" x="29.22" y="-271.3" font-family="Times,serif" font-size="14.00"> &#160;&#160;&#160;&lt;&lt;event&gt;&gt; Logging(description: string)</text>
<text text-anchor="start" x="29.22" y="-254.5" font-family="Times,serif" font-size="14.00"> &#160;&#160;&#160;constructor()</text>
<text text-anchor="start" x="29.22" y="-237.7" font-family="Times,serif" font-size="14.00"> &#160;&#160;&#160;bindRole(_roleAddress: address)</text>
<text text-anchor="start" x="29.22" y="-220.9" font-family="Times,serif" font-size="14.00"> &#160;&#160;&#160;unbindRole(_roleAddress: address)</text>
<text text-anchor="start" x="29.22" y="-204.1" font-family="Times,serif" font-size="14.00"> &#160;&#160;&#160;getRole(_roleAddress: address): (role: Role)</text>
</g>
<!-- 1 -->
<g id="node2" class="node">
<title>1</title>
<polygon fill="#f2f2f2" stroke="black" points="43.16,-470.9 43.16,-604.5 325.87,-604.5 325.87,-470.9 43.16,-470.9"/>
<text text-anchor="middle" x="184.52" y="-587.9" font-family="Times,serif" font-size="14.00">&lt;&lt;Interface&gt;&gt;</text>
<text text-anchor="middle" x="184.52" y="-571.1" font-family="Times,serif" font-size="14.00">Mediator</text>
<text text-anchor="middle" x="184.52" y="-554.3" font-family="Times,serif" font-size="14.00">contractsfactory&#45;patternsmediatorMediator.sol</text>
<polyline fill="none" stroke="black" points="43.16,-546.1 325.87,-546.1 "/>
<text text-anchor="start" x="51.16" y="-529.5" font-family="Times,serif" font-size="14.00">External:</text>
<text text-anchor="start" x="51.16" y="-512.7" font-family="Times,serif" font-size="14.00"> &#160;&#160;&#160;&#160;bindRole(_roleAddress: address)</text>
<text text-anchor="start" x="51.16" y="-495.9" font-family="Times,serif" font-size="14.00"> &#160;&#160;&#160;&#160;unbindRole(_roleAddress: address)</text>
<text text-anchor="start" x="51.16" y="-479.1" font-family="Times,serif" font-size="14.00"> &#160;&#160;&#160;&#160;getRole(_roleAddress: address): (role: Role)</text>
</g>
<!-- 0&#45;&gt;1 -->
<g id="edge1" class="edge">
<title>0&#45;&gt;1</title>
<path fill="none" stroke="black" stroke-dasharray="5,2" d="M184.52,-404.89C184.52,-416.75 184.52,-428.81 184.52,-440.57"/>
<polygon fill="none" stroke="black" points="174.02,-440.66 184.52,-470.66 195.02,-440.66 174.02,-440.66"/>
</g>
<!-- 4 -->
<g id="node5" class="node">
<title>4</title>
<polygon fill="#f2f2f2" stroke="black" points="484.92,-670.7 484.92,-770.7 736.11,-770.7 736.11,-670.7 484.92,-670.7"/>
<text text-anchor="middle" x="610.52" y="-754.1" font-family="Times,serif" font-size="14.00">&lt;&lt;Interface&gt;&gt;</text>
<text text-anchor="middle" x="610.52" y="-737.3" font-family="Times,serif" font-size="14.00">Role</text>
<text text-anchor="middle" x="610.52" y="-720.5" font-family="Times,serif" font-size="14.00">contractsfactory&#45;patternsmediatorRole.sol</text>
<polyline fill="none" stroke="black" points="484.92,-712.3 736.11,-712.3 "/>
<text text-anchor="start" x="492.92" y="-695.7" font-family="Times,serif" font-size="14.00">External:</text>
<text text-anchor="start" x="492.92" y="-678.9" font-family="Times,serif" font-size="14.00"> &#160;&#160;&#160;&#160;generateRandomRoleData(): Role</text>
</g>
<!-- 0&#45;&gt;4 -->
<g id="edge2" class="edge">
<title>0&#45;&gt;4</title>
<path fill="none" stroke="black" d="M55.84,-404.99C47.39,-416.36 40.05,-428.46 34.52,-441.2 0.32,-519.86 -21.51,-569.25 34.52,-634.2 90.19,-698.74 322.43,-715.36 474.48,-719.18"/>
<polygon fill="black" stroke="black" points="474.75,-722.68 484.83,-719.42 474.91,-715.68 474.75,-722.68"/>
</g>
<!-- 1&#45;&gt;4 -->
<g id="edge3" class="edge">
<title>1&#45;&gt;4</title>
<path fill="none" stroke="black" stroke-dasharray="5,2" d="M279.6,-604.53C297.39,-615.3 316.17,-625.7 334.52,-634.2 378.93,-654.76 429.57,-672.07 475.25,-685.62"/>
<polygon fill="black" stroke="black" points="474.34,-689 484.92,-688.45 476.31,-682.28 474.34,-689"/>
</g>
<!-- 2 -->
<g id="node3" class="node">
<title>2</title>
<polygon fill="#f2f2f2" stroke="black" points="411.43,-0.5 411.43,-158.9 781.6,-158.9 781.6,-0.5 411.43,-0.5"/>
<text text-anchor="middle" x="596.52" y="-142.3" font-family="Times,serif" font-size="14.00">ProductionControllerRole</text>
<text text-anchor="middle" x="596.52" y="-125.5" font-family="Times,serif" font-size="14.00">contractsfactory&#45;patternsmediatorProductionControllerRole.sol</text>
<polyline fill="none" stroke="black" points="411.43,-117.3 781.6,-117.3 "/>
<text text-anchor="start" x="419.43" y="-100.7" font-family="Times,serif" font-size="14.00">Public:</text>
<text text-anchor="start" x="419.43" y="-83.9" font-family="Times,serif" font-size="14.00"> &#160;&#160;concreteMediator: ConcreteMediator</text>
<text text-anchor="start" x="419.43" y="-67.1" font-family="Times,serif" font-size="14.00"> &#160;&#160;roleImplementor: RoleImplementor</text>
<polyline fill="none" stroke="black" points="411.43,-58.9 781.6,-58.9 "/>
<text text-anchor="start" x="419.43" y="-42.3" font-family="Times,serif" font-size="14.00">Public:</text>
<text text-anchor="start" x="419.43" y="-25.5" font-family="Times,serif" font-size="14.00"> &#160;&#160;&#160;&lt;&lt;event&gt;&gt; Logging(description: string, data: bytes32)</text>
<text text-anchor="start" x="419.43" y="-8.7" font-family="Times,serif" font-size="14.00"> &#160;&#160;&#160;roleBasedFunctionInitiate()</text>
</g>
<!-- 2&#45;&gt;0 -->
<g id="edge4" class="edge">
<title>2&#45;&gt;0</title>
<path fill="none" stroke="black" d="M448.94,-159C419.1,-174.84 387.47,-191.62 356.87,-207.85"/>
<polygon fill="black" stroke="black" points="355.03,-204.87 347.84,-212.65 358.31,-211.05 355.03,-204.87"/>
</g>
<!-- 2&#45;&gt;2 -->
<g id="edge6" class="edge">
<title>2&#45;&gt;2</title>
<path fill="none" stroke="black" stroke-dasharray="5,2" d="M781.71,-51.14C792.89,-57.93 799.6,-67.45 799.6,-79.7 799.6,-88.5 796.14,-95.9 790.03,-101.88"/>
<polygon fill="black" stroke="black" points="787.52,-99.4 781.71,-108.26 791.78,-104.95 787.52,-99.4"/>
</g>
<!-- 5 -->
<g id="node6" class="node">
<title>5</title>
<polygon fill="#f2f2f2" stroke="black" points="343.79,-441.7 343.79,-633.7 877.25,-633.7 877.25,-441.7 343.79,-441.7"/>
<text text-anchor="middle" x="610.52" y="-617.1" font-family="Times,serif" font-size="14.00">&lt;&lt;Abstract&gt;&gt;</text>
<text text-anchor="middle" x="610.52" y="-600.3" font-family="Times,serif" font-size="14.00">RoleImplementor</text>
<text text-anchor="middle" x="610.52" y="-583.5" font-family="Times,serif" font-size="14.00">contractsfactory&#45;patternsmediatorRoleImplementor.sol</text>
<polyline fill="none" stroke="black" points="343.79,-575.3 877.25,-575.3 "/>
<text text-anchor="start" x="351.79" y="-558.7" font-family="Times,serif" font-size="14.00">Public:</text>
<text text-anchor="start" x="351.79" y="-541.9" font-family="Times,serif" font-size="14.00"> &#160;&#160;isRole: bool</text>
<text text-anchor="start" x="351.79" y="-525.1" font-family="Times,serif" font-size="14.00"> &#160;&#160;isMediator: bool</text>
<text text-anchor="start" x="351.79" y="-508.3" font-family="Times,serif" font-size="14.00"> &#160;&#160;nonce: uint256</text>
<polyline fill="none" stroke="black" points="343.79,-500.1 877.25,-500.1 "/>
<text text-anchor="start" x="351.79" y="-483.5" font-family="Times,serif" font-size="14.00">External:</text>
<text text-anchor="start" x="351.79" y="-466.7" font-family="Times,serif" font-size="14.00"> &#160;&#160;&#160;supportsInterface(interfaceID: bytes4): bool</text>
<text text-anchor="start" x="351.79" y="-449.9" font-family="Times,serif" font-size="14.00"> &#160;&#160;&#160;generateRandomRoleData(_roleAddress: address, _addressOfMediator: address): bytes32</text>
</g>
<!-- 2&#45;&gt;5 -->
<g id="edge5" class="edge">
<title>2&#45;&gt;5</title>
<path fill="none" stroke="black" d="M598.92,-159.09C601.23,-234.26 604.73,-348.27 607.28,-431.35"/>
<polygon fill="black" stroke="black" points="603.79,-431.69 607.6,-441.57 610.79,-431.47 603.79,-431.69"/>
</g>
<!-- 3 -->
<g id="node4" class="node">
<title>3</title>
<polygon fill="#f2f2f2" stroke="black" points="44.06,-0.5 44.06,-158.9 378.97,-158.9 378.97,-0.5 44.06,-0.5"/>
<text text-anchor="middle" x="211.52" y="-142.3" font-family="Times,serif" font-size="14.00">RobotArmRole</text>
<text text-anchor="middle" x="211.52" y="-125.5" font-family="Times,serif" font-size="14.00">contractsfactory&#45;patternsmediatorRobotArmRole.sol</text>
<polyline fill="none" stroke="black" points="44.06,-117.3 378.97,-117.3 "/>
<text text-anchor="start" x="52.06" y="-100.7" font-family="Times,serif" font-size="14.00">Public:</text>
<text text-anchor="start" x="52.06" y="-83.9" font-family="Times,serif" font-size="14.00"> &#160;&#160;concreteMediator: ConcreteMediator</text>
<text text-anchor="start" x="52.06" y="-67.1" font-family="Times,serif" font-size="14.00"> &#160;&#160;roleImplementor: RoleImplementor</text>
<polyline fill="none" stroke="black" points="44.06,-58.9 378.97,-58.9 "/>
<text text-anchor="start" x="52.06" y="-42.3" font-family="Times,serif" font-size="14.00">Public:</text>
<text text-anchor="start" x="52.06" y="-25.5" font-family="Times,serif" font-size="14.00"> &#160;&#160;&#160;&lt;&lt;event&gt;&gt; Logging(description: string, data: bytes32)</text>
<text text-anchor="start" x="52.06" y="-8.7" font-family="Times,serif" font-size="14.00"> &#160;&#160;&#160;roleBasedFunctionInitiate()</text>
</g>
<!-- 3&#45;&gt;0 -->
<g id="edge7" class="edge">
<title>3&#45;&gt;0</title>
<path fill="none" stroke="black" d="M201.85,-159C200.78,-167.64 199.68,-176.55 198.57,-185.51"/>
<polygon fill="black" stroke="black" points="195.07,-185.27 197.32,-195.62 202.02,-186.13 195.07,-185.27"/>
</g>
<!-- 3&#45;&gt;5 -->
<g id="edge8" class="edge">
<title>3&#45;&gt;5</title>
<path fill="none" stroke="black" d="M317.33,-159.02C331.01,-170.67 344.44,-182.96 356.52,-195.4 427.71,-268.73 496.15,-362.5 544.02,-433.19"/>
<polygon fill="black" stroke="black" points="541.26,-435.36 549.75,-441.7 547.06,-431.45 541.26,-435.36"/>
</g>
<!-- 4&#45;&gt;4 -->
<g id="edge9" class="edge">
<title>4&#45;&gt;4</title>
<path fill="none" stroke="black" stroke-dasharray="5,2" d="M736.54,-694.07C747.36,-699.74 754.11,-708.61 754.11,-720.7 754.11,-729.2 750.77,-736.11 745.03,-741.43"/>
<polygon fill="black" stroke="black" points="742.76,-738.75 736.54,-747.33 746.75,-744.5 742.76,-738.75"/>
</g>
<!-- 5&#45;&gt;4 -->
<g id="edge10" class="edge">
<title>5&#45;&gt;4</title>
<path fill="none" stroke="black" stroke-dasharray="5,2" d="M610.52,-633.71C610.52,-635.88 610.52,-638.04 610.52,-640.2"/>
<polygon fill="none" stroke="black" points="600.02,-640.26 610.52,-670.26 621.02,-640.26 600.02,-640.26"/>
</g>
</g>
</svg>
