<?xml version="1.0" encoding="UTF-8" standalone="no"?>
<!DOCTYPE svg PUBLIC "-//W3C//DTD SVG 1.1//EN"
 "http://www.w3.org/Graphics/SVG/1.1/DTD/svg11.dtd">
<!-- Generated by graphviz version 5.0.0 (20220707.1540)
 -->
<!-- Title: UmlClassDiagram Pages: 1 -->
<svg width="1617pt" height="859pt"
 viewBox="0.00 0.00 1616.82 858.60" xmlns="http://www.w3.org/2000/svg" xmlns:xlink="http://www.w3.org/1999/xlink">
<g id="graph0" class="graph" transform="scale(1 1) rotate(0) translate(4 854.6)">
<title>UmlClassDiagram</title>
<polygon fill="white" stroke="transparent" points="-4,4 -4,-854.6 1612.82,-854.6 1612.82,4 -4,4"/>
<!-- 0 -->
<g id="node1" class="node">
<title>0</title>
<polygon fill="#f2f2f2" stroke="black" points="0,-171.1 0,-413.5 394.73,-413.5 394.73,-171.1 0,-171.1"/>
<text text-anchor="middle" x="197.37" y="-396.9" font-family="Times,serif" font-size="14.00">Cobot</text>
<text text-anchor="middle" x="197.37" y="-380.1" font-family="Times,serif" font-size="14.00">factory&#45;fundamentalCobot.sol</text>
<polyline fill="none" stroke="black" points="0,-371.9 394.73,-371.9 "/>
<text text-anchor="start" x="8" y="-355.3" font-family="Times,serif" font-size="14.00">Public:</text>
<text text-anchor="start" x="8" y="-338.5" font-family="Times,serif" font-size="14.00"> &#160;&#160;cobotCollection: mapping(bytes32=&gt;string)</text>
<polyline fill="none" stroke="black" points="0,-330.3 394.73,-330.3 "/>
<text text-anchor="start" x="8" y="-313.7" font-family="Times,serif" font-size="14.00">External:</text>
<text text-anchor="start" x="8" y="-296.9" font-family="Times,serif" font-size="14.00"> &#160;&#160;&#160;setCobotID(_id: string, _name: string)</text>
<text text-anchor="start" x="8" y="-280.1" font-family="Times,serif" font-size="14.00"> &#160;&#160;&#160;getLocationOfMapping(mappingSlot: uint, key: uint): (slot: uint)</text>
<text text-anchor="start" x="8" y="-263.3" font-family="Times,serif" font-size="14.00">Public:</text>
<text text-anchor="start" x="8" y="-246.5" font-family="Times,serif" font-size="14.00"> &#160;&#160;&#160;&lt;&lt;event&gt;&gt; Logging(description: string)</text>
<text text-anchor="start" x="8" y="-229.7" font-family="Times,serif" font-size="14.00"> &#160;&#160;&#160;constructor()</text>
<text text-anchor="start" x="8" y="-212.9" font-family="Times,serif" font-size="14.00"> &#160;&#160;&#160;getType(): Constants.ClassType</text>
<text text-anchor="start" x="8" y="-196.1" font-family="Times,serif" font-size="14.00"> &#160;&#160;&#160;getCobotName(_id: string, _name: string): string</text>
<text text-anchor="start" x="8" y="-179.3" font-family="Times,serif" font-size="14.00"> &#160;&#160;&#160;getHashValue(_id: string, _text: string): bytes32</text>
</g>
<!-- 1 -->
<g id="node2" class="node">
<title>1</title>
<polygon fill="#f2f2f2" stroke="black" points="710.85,-484.1 710.85,-584.1 999.88,-584.1 999.88,-484.1 710.85,-484.1"/>
<text text-anchor="middle" x="855.37" y="-567.5" font-family="Times,serif" font-size="14.00">&lt;&lt;Abstract&gt;&gt;</text>
<text text-anchor="middle" x="855.37" y="-550.7" font-family="Times,serif" font-size="14.00">FactoryBoxRoles</text>
<text text-anchor="middle" x="855.37" y="-533.9" font-family="Times,serif" font-size="14.00">factory&#45;fundamentalFactoryBoxRoles.sol</text>
<polyline fill="none" stroke="black" points="710.85,-525.7 999.88,-525.7 "/>
<text text-anchor="start" x="718.85" y="-509.1" font-family="Times,serif" font-size="14.00">Public:</text>
<text text-anchor="start" x="718.85" y="-492.3" font-family="Times,serif" font-size="14.00"> &#160;&#160;&#160;&lt;&lt;abstract&gt;&gt; getType(): Constants.ClassType</text>
</g>
<!-- 0&#45;&gt;1 -->
<g id="edge1" class="edge">
<title>0&#45;&gt;1</title>
<path fill="none" stroke="black" d="M339.53,-413.63C360.02,-426.76 381.58,-438.6 403.37,-447.6 509.16,-491.28 546.04,-461.62 658.37,-483.6 665.96,-485.09 673.69,-486.68 681.49,-488.35"/>
<polygon fill="none" stroke="black" points="679.22,-498.6 710.79,-494.92 683.81,-478.11 679.22,-498.6"/>
</g>
<!-- 6 -->
<g id="node6" class="node">
<title>6</title>
<polygon fill="#f2f2f2" stroke="black" points="806.47,-621.1 806.47,-754.7 1038.26,-754.7 1038.26,-621.1 806.47,-621.1"/>
<text text-anchor="middle" x="922.37" y="-738.1" font-family="Times,serif" font-size="14.00">&lt;&lt;Enum&gt;&gt;</text>
<text text-anchor="middle" x="922.37" y="-721.3" font-family="Times,serif" font-size="14.00">ClassType</text>
<text text-anchor="middle" x="922.37" y="-704.5" font-family="Times,serif" font-size="14.00">factory&#45;fundamentalRoleConstants.sol</text>
<polyline fill="none" stroke="black" points="806.47,-696.3 1038.26,-696.3 "/>
<text text-anchor="start" x="814.47" y="-679.7" font-family="Times,serif" font-size="14.00">ProductionConfigurator: 0</text>
<text text-anchor="start" x="814.47" y="-662.9" font-family="Times,serif" font-size="14.00">ProductionController: 1</text>
<text text-anchor="start" x="814.47" y="-646.1" font-family="Times,serif" font-size="14.00">MaintenanceAgent: 2</text>
<text text-anchor="start" x="814.47" y="-629.3" font-family="Times,serif" font-size="14.00">Cobot: 3</text>
</g>
<!-- 0&#45;&gt;6 -->
<g id="edge3" class="edge">
<title>0&#45;&gt;6</title>
<path fill="none" stroke="black" stroke-dasharray="5,2" d="M352.76,-413.62C369.59,-425.46 386.67,-437 403.37,-447.6 512.98,-517.17 543.4,-530.38 661.37,-584.6 704.83,-604.58 753.39,-624.3 796.73,-641.01"/>
<polygon fill="black" stroke="black" points="795.59,-644.32 806.18,-644.64 798.1,-637.78 795.59,-644.32"/>
</g>
<!-- 5 -->
<g id="node7" class="node">
<title>5</title>
<polygon fill="#f2f2f2" stroke="black" points="806.47,-791.7 806.47,-850.1 1038.26,-850.1 1038.26,-791.7 806.47,-791.7"/>
<text text-anchor="middle" x="922.37" y="-833.5" font-family="Times,serif" font-size="14.00">&lt;&lt;Library&gt;&gt;</text>
<text text-anchor="middle" x="922.37" y="-816.7" font-family="Times,serif" font-size="14.00">Constants</text>
<text text-anchor="middle" x="922.37" y="-799.9" font-family="Times,serif" font-size="14.00">factory&#45;fundamentalRoleConstants.sol</text>
</g>
<!-- 0&#45;&gt;5 -->
<g id="edge2" class="edge">
<title>0&#45;&gt;5</title>
<path fill="none" stroke="black" stroke-dasharray="5,2" d="M289.7,-413.54C376.94,-518.92 517.14,-668.45 671.37,-755.2 709.49,-776.65 754.85,-791.13 796.46,-800.86"/>
<polygon fill="black" stroke="black" points="795.86,-804.31 806.39,-803.1 797.41,-797.48 795.86,-804.31"/>
</g>
<!-- 1&#45;&gt;6 -->
<g id="edge5" class="edge">
<title>1&#45;&gt;6</title>
<path fill="none" stroke="black" stroke-dasharray="5,2" d="M877.12,-584.39C880.99,-593.15 885.1,-602.46 889.2,-611.75"/>
<polygon fill="black" stroke="black" points="886.05,-613.28 893.29,-621.02 892.45,-610.46 886.05,-613.28"/>
</g>
<!-- 1&#45;&gt;5 -->
<g id="edge4" class="edge">
<title>1&#45;&gt;5</title>
<path fill="none" stroke="black" stroke-dasharray="5,2" d="M814.72,-584.52C807.58,-595.75 801.21,-608.08 797.37,-620.6 779.8,-677.79 766.27,-704.09 797.37,-755.2 804.95,-767.67 815.8,-777.84 827.98,-786.11"/>
<polygon fill="black" stroke="black" points="826.27,-789.17 836.59,-791.53 830,-783.24 826.27,-789.17"/>
</g>
<!-- 2 -->
<g id="node3" class="node">
<title>2</title>
<polygon fill="#f2f2f2" stroke="black" points="412.3,-225.5 412.3,-359.1 816.43,-359.1 816.43,-225.5 412.3,-225.5"/>
<text text-anchor="middle" x="614.37" y="-342.5" font-family="Times,serif" font-size="14.00">MaintenanceAgent</text>
<text text-anchor="middle" x="614.37" y="-325.7" font-family="Times,serif" font-size="14.00">factory&#45;fundamentalMaintenanceAgent.sol</text>
<polyline fill="none" stroke="black" points="412.3,-317.5 816.43,-317.5 "/>
<text text-anchor="start" x="420.3" y="-300.9" font-family="Times,serif" font-size="14.00">Public:</text>
<text text-anchor="start" x="420.3" y="-284.1" font-family="Times,serif" font-size="14.00"> &#160;&#160;&#160;&lt;&lt;event&gt;&gt; Logging(description: string, problemDefinition: string)</text>
<text text-anchor="start" x="420.3" y="-267.3" font-family="Times,serif" font-size="14.00"> &#160;&#160;&#160;constructor()</text>
<text text-anchor="start" x="420.3" y="-250.5" font-family="Times,serif" font-size="14.00"> &#160;&#160;&#160;assignLogging(_description: string, _problemDefinition: string)</text>
<text text-anchor="start" x="420.3" y="-233.7" font-family="Times,serif" font-size="14.00"> &#160;&#160;&#160;getType(): Constants.ClassType</text>
</g>
<!-- 2&#45;&gt;1 -->
<g id="edge6" class="edge">
<title>2&#45;&gt;1</title>
<path fill="none" stroke="black" d="M680.54,-359.14C712.69,-391.14 751.37,-429.63 784.17,-462.26"/>
<polygon fill="none" stroke="black" points="777.11,-470.04 805.78,-483.76 791.92,-455.16 777.11,-470.04"/>
</g>
<!-- 2&#45;&gt;6 -->
<g id="edge8" class="edge">
<title>2&#45;&gt;6</title>
<path fill="none" stroke="black" stroke-dasharray="5,2" d="M630.98,-359.17C651.74,-439.65 686.38,-567.29 701.37,-584.6 726.65,-613.79 762.02,-635.17 797.07,-650.61"/>
<polygon fill="black" stroke="black" points="795.88,-653.9 806.45,-654.6 798.62,-647.46 795.88,-653.9"/>
</g>
<!-- 2&#45;&gt;5 -->
<g id="edge7" class="edge">
<title>2&#45;&gt;5</title>
<path fill="none" stroke="black" stroke-dasharray="5,2" d="M617.07,-359.31C621.37,-419.75 632.51,-510.76 661.37,-584.6 694.46,-669.31 704.74,-696.68 774.37,-755.2 789.45,-767.88 807.4,-778.47 825.51,-787.16"/>
<polygon fill="black" stroke="black" points="824.43,-790.52 834.97,-791.54 827.37,-784.17 824.43,-790.52"/>
</g>
<!-- 3 -->
<g id="node4" class="node">
<title>3</title>
<polygon fill="#f2f2f2" stroke="black" points="872.45,-137.5 872.45,-447.1 1244.28,-447.1 1244.28,-137.5 872.45,-137.5"/>
<text text-anchor="middle" x="1058.37" y="-430.5" font-family="Times,serif" font-size="14.00">ProductionConfigurator</text>
<text text-anchor="middle" x="1058.37" y="-413.7" font-family="Times,serif" font-size="14.00">factory&#45;fundamentalProductionConfigurator.sol</text>
<polyline fill="none" stroke="black" points="872.45,-405.5 1244.28,-405.5 "/>
<text text-anchor="start" x="880.45" y="-388.9" font-family="Times,serif" font-size="14.00">Public:</text>
<text text-anchor="start" x="880.45" y="-372.1" font-family="Times,serif" font-size="14.00"> &#160;&#160;companyName: string</text>
<text text-anchor="start" x="880.45" y="-355.3" font-family="Times,serif" font-size="14.00"> &#160;&#160;companyId: string</text>
<text text-anchor="start" x="880.45" y="-338.5" font-family="Times,serif" font-size="14.00"> &#160;&#160;isProductionEnviornmentLeased: bool</text>
<text text-anchor="start" x="880.45" y="-321.7" font-family="Times,serif" font-size="14.00"> &#160;&#160;serviceProviderID: string</text>
<text text-anchor="start" x="880.45" y="-304.9" font-family="Times,serif" font-size="14.00"> &#160;&#160;machineID: string</text>
<text text-anchor="start" x="880.45" y="-288.1" font-family="Times,serif" font-size="14.00"> &#160;&#160;owner: address</text>
<polyline fill="none" stroke="black" points="872.45,-279.9 1244.28,-279.9 "/>
<text text-anchor="start" x="880.45" y="-263.3" font-family="Times,serif" font-size="14.00">Public:</text>
<text text-anchor="start" x="880.45" y="-246.5" font-family="Times,serif" font-size="14.00"> &#160;&#160;&#160;&lt;&lt;modifier&gt;&gt; onlyOwner()</text>
<text text-anchor="start" x="880.45" y="-229.7" font-family="Times,serif" font-size="14.00"> &#160;&#160;&#160;constructor()</text>
<text text-anchor="start" x="880.45" y="-212.9" font-family="Times,serif" font-size="14.00"> &#160;&#160;&#160;getCompanyName(): string</text>
<text text-anchor="start" x="880.45" y="-196.1" font-family="Times,serif" font-size="14.00"> &#160;&#160;&#160;getCompanyId(): string</text>
<text text-anchor="start" x="880.45" y="-179.3" font-family="Times,serif" font-size="14.00"> &#160;&#160;&#160;setCompanyName(_companyName: string) &lt;&lt;onlyOwner&gt;&gt;</text>
<text text-anchor="start" x="880.45" y="-162.5" font-family="Times,serif" font-size="14.00"> &#160;&#160;&#160;setCompanyId(_companyId: string) &lt;&lt;onlyOwner&gt;&gt;</text>
<text text-anchor="start" x="880.45" y="-145.7" font-family="Times,serif" font-size="14.00"> &#160;&#160;&#160;getType(): Constants.ClassType</text>
</g>
<!-- 3&#45;&gt;1 -->
<g id="edge9" class="edge">
<title>3&#45;&gt;1</title>
<path fill="none" stroke="black" d="M928.08,-447.2C924.23,-451.76 920.43,-456.24 916.72,-460.62"/>
<polygon fill="none" stroke="black" points="908.59,-453.97 897.23,-483.65 924.62,-467.54 908.59,-453.97"/>
</g>
<!-- 3&#45;&gt;6 -->
<g id="edge11" class="edge">
<title>3&#45;&gt;6</title>
<path fill="none" stroke="black" stroke-dasharray="5,2" d="M1048.14,-447.24C1041.01,-492.98 1029.12,-542.18 1009.37,-584.6 1004.88,-594.23 999.24,-603.67 992.99,-612.69"/>
<polygon fill="black" stroke="black" points="990.12,-610.68 987.1,-620.84 995.8,-614.78 990.12,-610.68"/>
</g>
<!-- 3&#45;&gt;5 -->
<g id="edge10" class="edge">
<title>3&#45;&gt;5</title>
<path fill="none" stroke="black" stroke-dasharray="5,2" d="M1092.23,-447.26C1104.66,-542.9 1104.06,-664.47 1047.37,-755.2 1039.58,-767.66 1028.56,-777.84 1016.25,-786.11"/>
<polygon fill="black" stroke="black" points="1014.17,-783.28 1007.54,-791.55 1017.88,-789.22 1014.17,-783.28"/>
</g>
<!-- 4 -->
<g id="node5" class="node">
<title>4</title>
<polygon fill="#f2f2f2" stroke="black" points="1262.57,-196.3 1262.57,-388.3 1542.17,-388.3 1542.17,-196.3 1262.57,-196.3"/>
<text text-anchor="middle" x="1402.37" y="-371.7" font-family="Times,serif" font-size="14.00">ProductionController</text>
<text text-anchor="middle" x="1402.37" y="-354.9" font-family="Times,serif" font-size="14.00">factory&#45;fundamentalProductionController.sol</text>
<polyline fill="none" stroke="black" points="1262.57,-346.7 1542.17,-346.7 "/>
<text text-anchor="start" x="1270.57" y="-330.1" font-family="Times,serif" font-size="14.00">Public:</text>
<text text-anchor="start" x="1270.57" y="-313.3" font-family="Times,serif" font-size="14.00"> &#160;&#160;stringMapping: mapping(bytes32=&gt;string)</text>
<polyline fill="none" stroke="black" points="1262.57,-305.1 1542.17,-305.1 "/>
<text text-anchor="start" x="1270.57" y="-288.5" font-family="Times,serif" font-size="14.00">Public:</text>
<text text-anchor="start" x="1270.57" y="-271.7" font-family="Times,serif" font-size="14.00"> &#160;&#160;&#160;&lt;&lt;event&gt;&gt; Logging(description: string)</text>
<text text-anchor="start" x="1270.57" y="-254.9" font-family="Times,serif" font-size="14.00"> &#160;&#160;&#160;constructor()</text>
<text text-anchor="start" x="1270.57" y="-238.1" font-family="Times,serif" font-size="14.00"> &#160;&#160;&#160;getType(): Constants.ClassType</text>
<text text-anchor="start" x="1270.57" y="-221.3" font-family="Times,serif" font-size="14.00"> &#160;&#160;&#160;setLocationValues(key: string, value: string)</text>
<text text-anchor="start" x="1270.57" y="-204.5" font-family="Times,serif" font-size="14.00"> &#160;&#160;&#160;getLocationValues(key: string): string</text>
</g>
<!-- 4&#45;&gt;1 -->
<g id="edge12" class="edge">
<title>4&#45;&gt;1</title>
<path fill="none" stroke="black" d="M1327.6,-388.49C1305.85,-410.83 1280.55,-432.5 1253.37,-447.6 1214.59,-469.15 1118.14,-490.12 1029.91,-505.9"/>
<polygon fill="none" stroke="black" points="1027.83,-495.61 1000.08,-511.1 1031.44,-516.3 1027.83,-495.61"/>
</g>
<!-- 4&#45;&gt;6 -->
<g id="edge14" class="edge">
<title>4&#45;&gt;6</title>
<path fill="none" stroke="black" stroke-dasharray="5,2" d="M1315.48,-388.59C1295.7,-408.76 1274.33,-429.42 1253.37,-447.6 1183.11,-508.53 1097.98,-569.83 1031.64,-615.13"/>
<polygon fill="black" stroke="black" points="1029.53,-612.34 1023.23,-620.86 1033.47,-618.12 1029.53,-612.34"/>
</g>
<!-- 4&#45;&gt;5 -->
<g id="edge13" class="edge">
<title>4&#45;&gt;5</title>
<path fill="none" stroke="black" stroke-dasharray="5,2" d="M1357.95,-388.38C1305.48,-491.45 1209.17,-654.66 1083.37,-755.2 1067.11,-768.19 1047.91,-778.88 1028.54,-787.56"/>
<polygon fill="black" stroke="black" points="1027.12,-784.36 1019.33,-791.54 1029.9,-790.79 1027.12,-784.36"/>
</g>
<!-- 6&#45;&gt;5 -->
<g id="edge15" class="edge">
<title>6&#45;&gt;5</title>
<path fill="none" stroke="black" d="M922.37,-754.78C922.37,-763.21 922.37,-771.63 922.37,-779.48"/>
<polygon fill="black" stroke="black" points="922.37,-779.67 926.37,-785.67 922.37,-791.67 918.37,-785.67 922.37,-779.67"/>
</g>
<!-- 7 -->
<g id="node8" class="node">
<title>7</title>
<polygon fill="#f2f2f2" stroke="black" points="801.25,-0.5 801.25,-100.5 1101.48,-100.5 1101.48,-0.5 801.25,-0.5"/>
<text text-anchor="middle" x="951.37" y="-83.9" font-family="Times,serif" font-size="14.00">RoleSubtypingFactoryBox</text>
<text text-anchor="middle" x="951.37" y="-67.1" font-family="Times,serif" font-size="14.00">factory&#45;fundamentalRoleSubtypingFactoryBox.sol</text>
<polyline fill="none" stroke="black" points="801.25,-58.9 1101.48,-58.9 "/>
<text text-anchor="start" x="809.25" y="-42.3" font-family="Times,serif" font-size="14.00">Public:</text>
<text text-anchor="start" x="809.25" y="-25.5" font-family="Times,serif" font-size="14.00"> &#160;&#160;&#160;&lt;&lt;payable&gt;&gt; assignmentOfRoles(): string[]</text>
<text text-anchor="start" x="809.25" y="-8.7" font-family="Times,serif" font-size="14.00"> &#160;&#160;&#160;&lt;&lt;event&gt;&gt; Logging(description: string)</text>
</g>
<!-- 7&#45;&gt;0 -->
<g id="edge20" class="edge">
<title>7&#45;&gt;0</title>
<path fill="none" stroke="black" stroke-dasharray="5,2" d="M800.96,-55.42C687.74,-62.94 530.81,-83.29 403.37,-137 384.79,-144.83 366.36,-154.69 348.61,-165.63"/>
<polygon fill="black" stroke="black" points="346.55,-162.79 339.95,-171.08 350.27,-168.71 346.55,-162.79"/>
</g>
<!-- 7&#45;&gt;1 -->
<g id="edge16" class="edge">
<title>7&#45;&gt;1</title>
<path fill="none" stroke="black" stroke-dasharray="5,2" d="M888.04,-100.61C878.06,-111.46 869.14,-123.72 863.37,-137 815.05,-248.16 829.46,-393.96 843.13,-474.05"/>
<polygon fill="black" stroke="black" points="839.7,-474.71 844.88,-483.96 846.59,-473.5 839.7,-474.71"/>
</g>
<!-- 7&#45;&gt;2 -->
<g id="edge19" class="edge">
<title>7&#45;&gt;2</title>
<path fill="none" stroke="black" stroke-dasharray="5,2" d="M881.58,-100.72C864.8,-112.58 846.93,-125.23 830.37,-137 792.47,-163.92 750.9,-193.59 714.44,-219.65"/>
<polygon fill="black" stroke="black" points="712.36,-216.84 706.26,-225.5 716.43,-222.53 712.36,-216.84"/>
</g>
<!-- 7&#45;&gt;3 -->
<g id="edge17" class="edge">
<title>7&#45;&gt;3</title>
<path fill="none" stroke="black" stroke-dasharray="5,2" d="M973.28,-100.61C977.08,-109.12 981.21,-118.38 985.53,-128.07"/>
<polygon fill="black" stroke="black" points="982.46,-129.78 989.73,-137.49 988.86,-126.93 982.46,-129.78"/>
</g>
<!-- 7&#45;&gt;4 -->
<g id="edge18" class="edge">
<title>7&#45;&gt;4</title>
<path fill="none" stroke="black" stroke-dasharray="5,2" d="M1101.73,-77.56C1152.27,-90.52 1207.43,-109.5 1253.37,-137 1276.7,-150.97 1298.85,-169.52 1318.59,-188.91"/>
<polygon fill="black" stroke="black" points="1316.21,-191.48 1325.75,-196.09 1321.16,-186.54 1316.21,-191.48"/>
</g>
<!-- 7&#45;&gt;5 -->
<g id="edge21" class="edge">
<title>7&#45;&gt;5</title>
<path fill="none" stroke="black" stroke-dasharray="5,2" d="M1101.55,-51.34C1259.9,-54.74 1494.26,-71.18 1551.37,-137 1641.83,-241.27 1611.59,-323.39 1551.37,-447.6 1455.05,-646.24 1358.58,-655.99 1161.37,-755.2 1126.29,-772.85 1085.82,-786.14 1048.27,-795.93"/>
<polygon fill="black" stroke="black" points="1047.11,-792.62 1038.28,-798.47 1048.83,-799.4 1047.11,-792.62"/>
</g>
</g>
</svg>
